SplineFontDB: 3.0
FontName: Midway-BoldItalic
FullName: Midway Bold Italic
FamilyName: Midway
Weight: Bold
Copyright: Copyright 2011 Canonical Ltd.\nCopyright 2015 Yuta Taniguchi\nLicensed under the Ubuntu Font Licence 1.0
Version: 0.1
ItalicAngle: -13
UnderlinePosition: -156.655
UnderlineWidth: 23.5571
Ascent: 800
Descent: 200
InvalidEm: 0
sfntRevision: 0x0000199a
LayerCount: 2
Layer: 0 1 "Back" 1
Layer: 1 1 "Fore" 0
XUID: [1021 935 -1301570125 9264418]
StyleMap: 0x0001
FSType: 0
OS2Version: 3
OS2_WeightWidthSlopeOnly: 0
OS2_UseTypoMetrics: 0
CreationTime: 1304432203
ModificationTime: 1453341093
PfmFamily: 17
TTFWeight: 700
TTFWidth: 5
LineGap: 0
VLineGap: 0
Panose: 2 11 8 9 3 6 2 10 2 4
OS2TypoAscent: 816
OS2TypoAOffset: 0
OS2TypoDescent: -194
OS2TypoDOffset: 0
OS2TypoLinegap: 58
OS2WinAscent: 978
OS2WinAOffset: 0
OS2WinDescent: 200
OS2WinDOffset: 0
HheadAscent: 978
HheadAOffset: 0
HheadDescent: -200
HheadDOffset: 0
OS2SubXSize: 824
OS2SubYSize: 766
OS2SubXOff: 0
OS2SubYOff: 165
OS2SupXSize: 824
OS2SupYSize: 766
OS2SupXOff: 0
OS2SupYOff: 562
OS2StrikeYSize: 59
OS2StrikeYPos: 294
OS2CapHeight: 693
OS2XHeight: 520
OS2Vendor: 'DAMA'
OS2CodePages: 2000009f.00000000
OS2UnicodeRanges: e00002ff.5000385b.00000000.00000000
Lookup: 1 0 0 "'locl' Localized Forms in Latin lookup 0" { "'locl' Localized Forms in Latin lookup 0 subtable"  } ['locl' ('latn' <'AZE ' > ) ]
Lookup: 1 0 0 "'locl' Localized Forms in Latin lookup 1" { "'locl' Localized Forms in Latin lookup 1 subtable"  } ['locl' ('latn' <'TRK ' > ) ]
Lookup: 1 0 0 "'locl' Localized Forms in Latin lookup 2" { "'locl' Localized Forms in Latin lookup 2 subtable"  } ['locl' ('latn' <'CRT ' > ) ]
Lookup: 1 0 0 "'locl' Localized Forms in Cyrillic lookup 3" { "'locl' Localized Forms in Cyrillic lookup 3 subtable"  } ['locl' ('cyrl' <'SRB ' > ) ]
Lookup: 1 0 0 "'locl' Localized Forms in Cyrillic lookup 4" { "'locl' Localized Forms in Cyrillic lookup 4 subtable"  } ['locl' ('cyrl' <'BGR ' > ) ]

StartChar: SF030000.001
Encoding: 65536 -1 0
Width: 588
VWidth: 1177
Flags: W
LayerCount: 2
Fore
SplineSet
59 0 m 1,0,-1
 59 883 l 1,1,-1
 530 883 l 1,2,-1
 530 0 l 1,3,-1
 59 0 l 1,0,-1
471 59 m 1,4,-1
 471 824 l 1,5,-1
 118 824 l 1,6,-1
 118 59 l 1,7,-1
 471 59 l 1,4,-1
EndSplineSet
EndChar

StartChar: exclam
Encoding: 33 33 4
Width: 588
VWidth: 1177
Flags: W
LayerCount: 2
Fore
SplineSet
477 532 m 2,0,1
 466 490 466 490 457 456 c 128,-1,2
 448 422 448 422 437 391 c 128,-1,3
 426 360 426 360 414.5 330 c 128,-1,4
 403 300 403 300 389 265 c 1,5,-1
 269 265 l 1,6,7
 273 305 273 305 276.5 340 c 128,-1,8
 280 375 280 375 285 408 c 128,-1,9
 290 441 290 441 296.5 473 c 128,-1,10
 303 505 303 505 312 541 c 2,11,-1
 357 729 l 1,12,-1
 524 729 l 1,13,-1
 477 532 l 2,0,1
300 183 m 0,14,15
 338 183 338 183 363 161 c 128,-1,16
 388 139 388 139 388 95 c 0,17,18
 388 71 388 71 379 51.5 c 128,-1,19
 370 32 370 32 355 17 c 128,-1,20
 340 2 340 2 321.5 -6 c 128,-1,21
 303 -14 303 -14 282 -14 c 0,22,23
 245 -14 245 -14 219.5 8.5 c 128,-1,24
 194 31 194 31 194 74 c 0,25,26
 194 99 194 99 203 119 c 128,-1,27
 212 139 212 139 226.5 153 c 128,-1,28
 241 167 241 167 260.5 175 c 128,-1,29
 280 183 280 183 300 183 c 0,14,15
EndSplineSet
EndChar

StartChar: quotedbl
Encoding: 34 34 5
Width: 588
VWidth: 1177
Flags: W
LayerCount: 2
Fore
SplineSet
422 800 m 1,0,-1
 404 726 l 2,1,2
 398 699 398 699 387.5 666.5 c 128,-1,3
 377 634 377 634 364 599.5 c 128,-1,4
 351 565 351 565 337 531.5 c 128,-1,5
 323 498 323 498 310 469 c 1,6,-1
 227 469 l 1,7,8
 228 498 228 498 230 534 c 128,-1,9
 232 570 232 570 235.5 607 c 128,-1,10
 239 644 239 644 244.5 679.5 c 128,-1,11
 250 715 250 715 257 744 c 2,12,-1
 269 800 l 1,13,-1
 422 800 l 1,0,-1
654 800 m 1,14,-1
 637 726 l 2,15,16
 631 699 631 699 620.5 666.5 c 128,-1,17
 610 634 610 634 597 599.5 c 128,-1,18
 584 565 584 565 570 531.5 c 128,-1,19
 556 498 556 498 542 469 c 1,20,-1
 459 469 l 1,21,22
 460 498 460 498 462.5 534 c 128,-1,23
 465 570 465 570 468.5 607 c 128,-1,24
 472 644 472 644 477 679.5 c 128,-1,25
 482 715 482 715 489 744 c 2,26,-1
 502 800 l 1,27,-1
 654 800 l 1,14,-1
EndSplineSet
EndChar

StartChar: numbersign
Encoding: 35 35 6
Width: 588
VWidth: 1177
Flags: W
LayerCount: 2
Fore
SplineSet
259 550 m 1,0,-1
 331 729 l 1,1,-1
 449 729 l 1,2,-1
 377 550 l 1,3,-1
 475 550 l 1,4,-1
 547 729 l 1,5,-1
 664 729 l 1,6,-1
 591 550 l 1,7,-1
 668 550 l 1,8,-1
 640 432 l 1,9,-1
 545 432 l 1,10,-1
 491 298 l 1,11,-1
 607 298 l 1,12,-1
 578 180 l 1,13,-1
 444 180 l 1,14,-1
 371 0 l 1,15,-1
 253 0 l 1,16,-1
 326 180 l 1,17,-1
 227 180 l 1,18,-1
 155 0 l 1,19,-1
 38 0 l 1,20,-1
 110 180 l 1,21,-1
 39 180 l 1,22,-1
 67 298 l 1,23,-1
 158 298 l 1,24,-1
 212 432 l 1,25,-1
 100 432 l 1,26,-1
 128 550 l 1,27,-1
 259 550 l 1,0,-1
276 298 m 1,28,-1
 373 298 l 1,29,-1
 428 432 l 1,30,-1
 330 432 l 1,31,-1
 276 298 l 1,28,-1
EndSplineSet
EndChar

StartChar: dollar
Encoding: 36 36 7
Width: 588
VWidth: 1177
Flags: W
LayerCount: 2
Fore
SplineSet
278 127 m 0,0,1
 302 127 302 127 326 130 c 128,-1,2
 350 133 350 133 369.5 142 c 128,-1,3
 389 151 389 151 400.5 167.5 c 128,-1,4
 412 184 412 184 412 211 c 0,5,6
 412 230 412 230 404.5 243.5 c 128,-1,7
 397 257 397 257 384 268 c 128,-1,8
 371 279 371 279 354 288.5 c 128,-1,9
 337 298 337 298 318 307 c 0,10,11
 273 328 273 328 243.5 350.5 c 128,-1,12
 214 373 214 373 196 397.5 c 128,-1,13
 178 422 178 422 170.5 449.5 c 128,-1,14
 163 477 163 477 163 509 c 0,15,16
 163 544 163 544 175.5 577 c 128,-1,17
 188 610 188 610 214.5 636.5 c 128,-1,18
 241 663 241 663 282 682 c 128,-1,19
 323 701 323 701 379 707 c 1,20,-1
 408 816 l 1,21,-1
 529 816 l 1,22,-1
 501 704 l 1,23,24
 542 695 542 695 576 682 c 128,-1,25
 610 669 610 669 631 656 c 1,26,-1
 574 552 l 1,27,28
 545 572 545 572 505.5 583 c 128,-1,29
 466 594 466 594 429 594 c 0,30,31
 381 594 381 594 345.5 574.5 c 128,-1,32
 310 555 310 555 310 516 c 0,33,34
 310 487 310 487 330 465.5 c 128,-1,35
 350 444 350 444 403 418 c 0,36,37
 432 403 432 403 460.5 385 c 128,-1,38
 489 367 489 367 510.5 344.5 c 128,-1,39
 532 322 532 322 545 291.5 c 128,-1,40
 558 261 558 261 558 221 c 0,41,42
 558 124 558 124 497 72.5 c 128,-1,43
 436 21 436 21 336 12 c 1,44,-1
 306 -114 l 1,45,-1
 184 -114 l 1,46,-1
 214 13 l 1,47,48
 159 21 159 21 118 38 c 128,-1,49
 77 55 77 55 55 68 c 1,50,-1
 114 177 l 1,51,52
 140 161 140 161 183.5 144 c 128,-1,53
 227 127 227 127 278 127 c 0,0,1
EndSplineSet
EndChar

StartChar: percent
Encoding: 37 37 8
Width: 588
VWidth: 1177
Flags: W
LayerCount: 2
Fore
SplineSet
111 0 m 1,0,-1
 5 0 l 1,1,-1
 615 729 l 1,2,-1
 720 729 l 1,3,-1
 111 0 l 1,0,-1
227 470 m 0,4,5
 245 470 245 470 257.5 487 c 128,-1,6
 270 504 270 504 278.5 527 c 128,-1,7
 287 550 287 550 291.5 574 c 128,-1,8
 296 598 296 598 296 612 c 0,9,10
 296 638 296 638 286.5 646.5 c 128,-1,11
 277 655 277 655 267 655 c 0,12,13
 249 655 249 655 237 638 c 128,-1,14
 225 621 225 621 216 598 c 128,-1,15
 207 575 207 575 203 551.5 c 128,-1,16
 199 528 199 528 199 514 c 0,17,18
 199 487 199 487 207.5 478.5 c 128,-1,19
 216 470 216 470 227 470 c 0,4,5
211 379 m 0,20,21
 166 379 166 379 137 411.5 c 128,-1,22
 108 444 108 444 108 497 c 0,23,24
 108 534 108 534 117.5 577.5 c 128,-1,25
 127 621 127 621 147.5 658 c 128,-1,26
 168 695 168 695 202 720.5 c 128,-1,27
 236 746 236 746 284 746 c 0,28,29
 329 746 329 746 357.5 713.5 c 128,-1,30
 386 681 386 681 386 628 c 0,31,32
 386 591 386 591 376.5 548 c 128,-1,33
 367 505 367 505 346.5 467.5 c 128,-1,34
 326 430 326 430 292.5 404.5 c 128,-1,35
 259 379 259 379 211 379 c 0,20,21
497 259 m 0,36,37
 479 259 479 259 467 242 c 128,-1,38
 455 225 455 225 446 202 c 128,-1,39
 437 179 437 179 433 155 c 128,-1,40
 429 131 429 131 429 117 c 0,41,42
 429 91 429 91 438.5 82.5 c 128,-1,43
 448 74 448 74 457 74 c 0,44,45
 475 74 475 74 488 90.5 c 128,-1,46
 501 107 501 107 509.5 130 c 128,-1,47
 518 153 518 153 522.5 177 c 128,-1,48
 527 201 527 201 527 216 c 0,49,50
 527 243 527 243 517.5 251 c 128,-1,51
 508 259 508 259 497 259 c 0,36,37
515 349 m 0,52,53
 560 349 560 349 588 316.5 c 128,-1,54
 616 284 616 284 616 231 c 0,55,56
 616 194 616 194 606.5 151 c 128,-1,57
 597 108 597 108 576.5 71 c 128,-1,58
 556 34 556 34 522.5 9 c 128,-1,59
 489 -16 489 -16 441 -16 c 0,60,61
 396 -16 396 -16 367.5 16 c 128,-1,62
 339 48 339 48 339 101 c 0,63,64
 339 138 339 138 348.5 181 c 128,-1,65
 358 224 358 224 378.5 261 c 128,-1,66
 399 298 399 298 433 323.5 c 128,-1,67
 467 349 467 349 515 349 c 0,52,53
EndSplineSet
EndChar

StartChar: ampersand
Encoding: 38 38 9
Width: 588
VWidth: 1177
Flags: W
LayerCount: 2
Fore
SplineSet
452 254 m 1,0,1
 471 282 471 282 484.5 317.5 c 128,-1,2
 498 353 498 353 510 391 c 1,3,-1
 618 378 l 1,4,5
 600 303 600 303 570.5 250.5 c 128,-1,6
 541 198 541 198 514 160 c 1,7,8
 529 128 529 128 544 88.5 c 128,-1,9
 559 49 559 49 572 0 c 1,10,-1
 439 0 l 1,11,12
 433 24 433 24 429 37.5 c 128,-1,13
 425 51 425 51 419 67 c 1,14,15
 374 25 374 25 324 7 c 128,-1,16
 274 -11 274 -11 221 -11 c 0,17,18
 177 -11 177 -11 145.5 2 c 128,-1,19
 114 15 114 15 93.5 37 c 128,-1,20
 73 59 73 59 63 88.5 c 128,-1,21
 53 118 53 118 53 152 c 0,22,23
 53 191 53 191 63 222 c 128,-1,24
 73 253 73 253 92.5 280 c 128,-1,25
 112 307 112 307 141.5 332.5 c 128,-1,26
 171 358 171 358 208 385 c 2,27,-1
 221 395 l 1,28,29
 206 423 206 423 197 453 c 128,-1,30
 188 483 188 483 188 514 c 0,31,32
 188 567 188 567 205.5 609 c 128,-1,33
 223 651 223 651 253 682 c 128,-1,34
 283 713 283 713 324.5 729.5 c 128,-1,35
 366 746 366 746 415 746 c 0,36,37
 492 746 492 746 529.5 708.5 c 128,-1,38
 567 671 567 671 567 605 c 0,39,40
 567 579 567 579 559 551.5 c 128,-1,41
 551 524 551 524 530.5 494 c 128,-1,42
 510 464 510 464 474.5 433 c 128,-1,43
 439 402 439 402 384 369 c 2,44,-1
 378 365 l 1,45,-1
 452 254 l 1,0,1
181 173 m 0,46,47
 181 142 181 142 200.5 120 c 128,-1,48
 220 98 220 98 256 98 c 0,49,50
 287 98 287 98 319 114.5 c 128,-1,51
 351 131 351 131 373 155 c 1,52,53
 357 184 357 184 328 227.5 c 128,-1,54
 299 271 299 271 271 313 c 1,55,56
 242 297 242 297 224 278.5 c 128,-1,57
 206 260 206 260 196.5 241.5 c 128,-1,58
 187 223 187 223 184 205 c 128,-1,59
 181 187 181 187 181 173 c 0,46,47
336 448 m 2,60,61
 402 481 402 481 426 519.5 c 128,-1,62
 450 558 450 558 450 589 c 0,63,64
 450 609 450 609 439 623.5 c 128,-1,65
 428 638 428 638 400 638 c 0,66,67
 361 638 361 638 334 608 c 128,-1,68
 307 578 307 578 307 527 c 0,69,70
 307 500 307 500 312 481 c 128,-1,71
 317 462 317 462 326 443 c 1,72,-1
 336 448 l 2,60,61
EndSplineSet
EndChar

StartChar: quotesingle
Encoding: 39 39 10
Width: 588
VWidth: 1177
Flags: W
LayerCount: 2
Fore
SplineSet
534 800 m 1,0,-1
 511 708 l 2,1,2
 497 649 497 649 469.5 579 c 128,-1,3
 442 509 442 509 415 448 c 1,4,-1
 330 448 l 1,5,6
 331 479 331 479 333.5 515 c 128,-1,7
 336 551 336 551 339.5 588 c 128,-1,8
 343 625 343 625 348 661 c 128,-1,9
 353 697 353 697 360 727 c 2,10,-1
 378 800 l 1,11,-1
 534 800 l 1,0,-1
EndSplineSet
EndChar

StartChar: parenleft
Encoding: 40 40 11
Width: 588
VWidth: 1177
Flags: W
LayerCount: 2
Fore
SplineSet
631 734 m 1,0,1
 552 685 552 685 490.5 620.5 c 128,-1,2
 429 556 429 556 386 484.5 c 128,-1,3
 343 413 343 413 320 339 c 128,-1,4
 297 265 297 265 297 196 c 0,5,6
 297 106 297 106 324 32.5 c 128,-1,7
 351 -41 351 -41 420 -114 c 1,8,-1
 333 -200 l 1,9,10
 295 -168 295 -168 263.5 -125 c 128,-1,11
 232 -82 232 -82 209 -33 c 128,-1,12
 186 16 186 16 173 71.5 c 128,-1,13
 160 127 160 127 160 185 c 0,14,15
 160 292 160 292 192 389 c 128,-1,16
 224 486 224 486 280.5 569.5 c 128,-1,17
 337 653 337 653 413.5 720.5 c 128,-1,18
 490 788 490 788 578 836 c 1,19,-1
 631 734 l 1,0,1
EndSplineSet
Substitution2: "'case' Case-Sensitive Forms lookup 17 subtable" Parenleft
EndChar

StartChar: parenright
Encoding: 41 41 12
Width: 588
VWidth: 1177
Flags: W
LayerCount: 2
Fore
SplineSet
51 -98 m 1,0,1
 130 -49 130 -49 191.5 15.5 c 128,-1,2
 253 80 253 80 296 151.5 c 128,-1,3
 339 223 339 223 362 297 c 128,-1,4
 385 371 385 371 385 441 c 0,5,6
 385 531 385 531 357.5 604 c 128,-1,7
 330 677 330 677 261 750 c 1,8,-1
 349 836 l 1,9,10
 387 804 387 804 418.5 761 c 128,-1,11
 450 718 450 718 473 669 c 128,-1,12
 496 620 496 620 509 564.5 c 128,-1,13
 522 509 522 509 522 451 c 0,14,15
 522 343 522 343 490 246.5 c 128,-1,16
 458 150 458 150 401.5 67 c 128,-1,17
 345 -16 345 -16 268.5 -84 c 128,-1,18
 192 -152 192 -152 104 -200 c 1,19,-1
 51 -98 l 1,0,1
EndSplineSet
Substitution2: "'case' Case-Sensitive Forms lookup 17 subtable" Parenright
EndChar

StartChar: asterisk
Encoding: 42 42 13
Width: 588
VWidth: 1177
Flags: W
LayerCount: 2
Fore
SplineSet
388 441 m 1,0,1
 384 427 384 427 377 406.5 c 128,-1,2
 370 386 370 386 362.5 366 c 128,-1,3
 355 346 355 346 346 328.5 c 128,-1,4
 337 311 337 311 329 299 c 2,5,-1
 306 270 l 1,6,-1
 196 349 l 1,7,-1
 218 378 l 2,8,9
 226 390 226 390 241 404 c 128,-1,10
 256 418 256 418 271.5 432 c 128,-1,11
 287 446 287 446 303.5 458.5 c 128,-1,12
 320 471 320 471 332 479 c 1,13,14
 317 479 317 479 296.5 479 c 128,-1,15
 276 479 276 479 254.5 481 c 128,-1,16
 233 483 233 483 213 486.5 c 128,-1,17
 193 490 193 490 180 495 c 2,18,-1
 145 506 l 1,19,-1
 188 635 l 1,20,-1
 223 624 l 2,21,22
 237 619 237 619 254.5 609.5 c 128,-1,23
 272 600 272 600 289.5 588 c 128,-1,24
 307 576 307 576 324.5 564 c 128,-1,25
 342 552 342 552 353 543 c 1,26,27
 347 557 347 557 341.5 576.5 c 128,-1,28
 336 596 336 596 331 617 c 128,-1,29
 326 638 326 638 322.5 658 c 128,-1,30
 319 678 319 678 319 693 c 2,31,-1
 319 729 l 1,32,-1
 456 729 l 1,33,-1
 456 693 l 2,34,35
 456 679 456 679 452.5 658.5 c 128,-1,36
 449 638 449 638 443.5 617 c 128,-1,37
 438 596 438 596 431.5 576.5 c 128,-1,38
 425 557 425 557 420 543 c 1,39,40
 432 551 432 551 449 563 c 128,-1,41
 466 575 466 575 485 586 c 128,-1,42
 504 597 504 597 521.5 606.5 c 128,-1,43
 539 616 539 616 554 621 c 2,44,-1
 588 633 l 1,45,-1
 630 502 l 1,46,-1
 595 491 l 2,47,48
 581 486 581 486 561 484 c 128,-1,49
 541 482 541 482 519.5 480 c 128,-1,50
 498 478 498 478 477.5 478 c 128,-1,51
 457 478 457 478 442 478 c 1,52,53
 455 470 455 470 471.5 457.5 c 128,-1,54
 488 445 488 445 504.5 431.5 c 128,-1,55
 521 418 521 418 535 404 c 128,-1,56
 549 390 549 390 557 378 c 2,57,-1
 580 349 l 1,58,-1
 469 269 l 1,59,-1
 448 298 l 2,60,61
 440 310 440 310 431 327.5 c 128,-1,62
 422 345 422 345 413.5 365.5 c 128,-1,63
 405 386 405 386 398.5 406 c 128,-1,64
 392 426 392 426 388 441 c 1,0,1
EndSplineSet
EndChar

StartChar: plus
Encoding: 43 43 14
Width: 588
VWidth: 1177
Flags: W
LayerCount: 2
Fore
SplineSet
108 369 m 1,0,-1
 293 369 l 1,1,-1
 342 574 l 1,2,-1
 466 574 l 1,3,-1
 418 369 l 1,4,-1
 603 369 l 1,5,-1
 574 250 l 1,6,-1
 389 250 l 1,7,-1
 340 45 l 1,8,-1
 216 45 l 1,9,-1
 264 250 l 1,10,-1
 79 250 l 1,11,-1
 108 369 l 1,0,-1
EndSplineSet
EndChar

StartChar: comma
Encoding: 44 44 15
Width: 588
VWidth: 1177
Flags: W
LayerCount: 2
Fore
SplineSet
113 -85 m 1,0,1
 138 -84 138 -84 162.5 -78.5 c 128,-1,2
 187 -73 187 -73 209 -63 c 128,-1,3
 231 -53 231 -53 247 -40 c 128,-1,4
 263 -27 263 -27 269 -9 c 1,5,6
 234 -4 234 -4 213 18.5 c 128,-1,7
 192 41 192 41 192 79 c 0,8,9
 192 130 192 130 225 163.5 c 128,-1,10
 258 197 258 197 307 197 c 0,11,12
 353 197 353 197 376 169 c 128,-1,13
 399 141 399 141 399 104 c 0,14,15
 399 52 399 52 382.5 3.5 c 128,-1,16
 366 -45 366 -45 332 -83.5 c 128,-1,17
 298 -122 298 -122 245.5 -147.5 c 128,-1,18
 193 -173 193 -173 122 -178 c 1,19,-1
 113 -85 l 1,0,1
EndSplineSet
EndChar

StartChar: hyphen
Encoding: 45 45 16
Width: 588
VWidth: 1177
Flags: W
LayerCount: 2
Fore
SplineSet
151 373 m 1,0,-1
 568 373 l 1,1,-1
 532 231 l 1,2,-1
 117 231 l 5,3,-1
 151 373 l 1,0,-1
EndSplineSet
Substitution2: "'case' Case-Sensitive Forms lookup 17 subtable" Hyphen
EndChar

StartChar: period
Encoding: 46 46 17
Width: 588
VWidth: 1177
Flags: W
LayerCount: 2
Fore
SplineSet
305 197 m 0,0,1
 346 197 346 197 372.5 173.5 c 128,-1,2
 399 150 399 150 399 104 c 0,3,4
 399 78 399 78 389.5 56 c 128,-1,5
 380 34 380 34 364.5 19 c 128,-1,6
 349 4 349 4 328 -5 c 128,-1,7
 307 -14 307 -14 286 -14 c 0,8,9
 245 -14 245 -14 218.5 9.5 c 128,-1,10
 192 33 192 33 192 80 c 0,11,12
 192 106 192 106 201.5 127 c 128,-1,13
 211 148 211 148 227 163.5 c 128,-1,14
 243 179 243 179 263.5 188 c 128,-1,15
 284 197 284 197 305 197 c 0,0,1
EndSplineSet
EndChar

StartChar: slash
Encoding: 47 47 18
Width: 588
VWidth: 1177
Flags: W
LayerCount: 2
Fore
SplineSet
139 -194 m 1,0,-1
 -13 -194 l 1,1,-1
 531 823 l 1,2,-1
 683 823 l 1,3,-1
 139 -194 l 1,0,-1
EndSplineSet
Substitution2: "'case' Case-Sensitive Forms lookup 17 subtable" Slash
Substitution2: "'ss02' Style Set 2 lookup 14 subtable" fraction
Substitution2: "'frac' Diagonal Fractions lookup 12 subtable" fraction
EndChar

StartChar: zero
Encoding: 48 48 19
Width: 588
VWidth: 1177
Flags: W
LayerCount: 2
Fore
SplineSet
431 746 m 0,0,1
 525 746 525 746 578 684.5 c 128,-1,2
 631 623 631 623 631 519 c 0,3,4
 631 473 631 473 624 415.5 c 128,-1,5
 617 358 617 358 600.5 298.5 c 128,-1,6
 584 239 584 239 557.5 182.5 c 128,-1,7
 531 126 531 126 493 82 c 128,-1,8
 455 38 455 38 403 11.5 c 128,-1,9
 351 -15 351 -15 285 -15 c 0,10,11
 238 -15 238 -15 201 0.5 c 128,-1,12
 164 16 164 16 138 46.5 c 128,-1,13
 112 77 112 77 98 118 c 128,-1,14
 84 159 84 159 84 211 c 0,15,16
 84 257 84 257 91 314.5 c 128,-1,17
 98 372 98 372 114.5 431.5 c 128,-1,18
 131 491 131 491 157.5 547.5 c 128,-1,19
 184 604 184 604 222 648.5 c 128,-1,20
 260 693 260 693 312 719.5 c 128,-1,21
 364 746 364 746 431 746 c 0,0,1
298 106 m 0,22,23
 331 106 331 106 358.5 125.5 c 128,-1,24
 386 145 386 145 408.5 177.5 c 128,-1,25
 431 210 431 210 447.5 251.5 c 128,-1,26
 464 293 464 293 475 338.5 c 128,-1,27
 486 384 486 384 491.5 428.5 c 128,-1,28
 497 473 497 473 497 511 c 0,29,30
 497 559 497 559 480 591.5 c 128,-1,31
 463 624 463 624 418 624 c 0,32,33
 385 624 385 624 357 604.5 c 128,-1,34
 329 585 329 585 306.5 553 c 128,-1,35
 284 521 284 521 267.5 478.5 c 128,-1,36
 251 436 251 436 240 391 c 128,-1,37
 229 346 229 346 223.5 301.5 c 128,-1,38
 218 257 218 257 218 219 c 0,39,40
 218 171 218 171 235.5 138.5 c 128,-1,41
 253 106 253 106 298 106 c 0,22,23
349 299 m 0,42,43
 320 299 320 299 306.5 314.5 c 128,-1,44
 293 330 293 330 293 352 c 0,45,46
 293 378 293 378 301.5 397.5 c 128,-1,47
 310 417 310 417 321.5 430 c 128,-1,48
 333 443 333 443 347.5 449.5 c 128,-1,49
 362 456 362 456 373 456 c 0,50,51
 402 456 402 456 415 440 c 128,-1,52
 428 424 428 424 428 402 c 0,53,54
 428 376 428 376 419.5 356.5 c 128,-1,55
 411 337 411 337 399.5 324.5 c 128,-1,56
 388 312 388 312 374.5 305.5 c 128,-1,57
 361 299 361 299 349 299 c 0,42,43
EndSplineSet
Substitution2: "'ss02' Style Set 2 lookup 15 subtable" zerosuperior
Substitution2: "'sinf' Scientific Inferiors lookup 11 subtable" zero.sinf
Substitution2: "'subs' Subscript lookup 10 subtable" zero.sinf
Substitution2: "'sups' Superscript lookup 9 subtable" zero.sups
Substitution2: "'dnom' Denominators lookup 8 subtable" zeroinferior
Substitution2: "'numr' Numerators lookup 6 subtable" zerosuperior
EndChar

StartChar: one
Encoding: 49 49 20
Width: 588
VWidth: 1177
Flags: W
LayerCount: 2
Fore
SplineSet
257 120 m 1,0,-1
 358 542 l 1,1,2
 318 515 318 515 272 492.5 c 128,-1,3
 226 470 226 470 196 459 c 1,4,-1
 161 577 l 1,5,6
 193 588 193 588 229 604.5 c 128,-1,7
 265 621 265 621 301.5 641 c 128,-1,8
 338 661 338 661 372 683.5 c 128,-1,9
 406 706 406 706 433 729 c 1,10,-1
 548 729 l 1,11,-1
 402 120 l 1,12,-1
 547 120 l 1,13,-1
 518 0 l 1,14,-1
 75 0 l 1,15,-1
 104 120 l 1,16,-1
 257 120 l 1,0,-1
EndSplineSet
Substitution2: "'ss02' Style Set 2 lookup 15 subtable" onesuperior
Substitution2: "'sinf' Scientific Inferiors lookup 11 subtable" one.sinf
Substitution2: "'subs' Subscript lookup 10 subtable" one.sinf
Substitution2: "'sups' Superscript lookup 9 subtable" one.sups
Substitution2: "'dnom' Denominators lookup 8 subtable" oneinferior
Substitution2: "'numr' Numerators lookup 6 subtable" onesuperior
EndChar

StartChar: two
Encoding: 50 50 21
Width: 588
VWidth: 1177
Flags: W
LayerCount: 2
Fore
SplineSet
430 746 m 0,0,1
 477 746 477 746 513.5 732 c 128,-1,2
 550 718 550 718 575 694.5 c 128,-1,3
 600 671 600 671 612.5 640.5 c 128,-1,4
 625 610 625 610 625 575 c 0,5,6
 625 523 625 523 605 480.5 c 128,-1,7
 585 438 585 438 553 402 c 128,-1,8
 521 366 521 366 478.5 334.5 c 128,-1,9
 436 303 436 303 391 271 c 0,10,11
 323 224 323 224 283.5 189 c 128,-1,12
 244 154 244 154 224 120 c 1,13,-1
 549 120 l 1,14,-1
 521 0 l 1,15,-1
 48 0 l 1,16,17
 55 62 55 62 76 111 c 128,-1,18
 97 160 97 160 128.5 200 c 128,-1,19
 160 240 160 240 201.5 275 c 128,-1,20
 243 310 243 310 292 345 c 0,21,22
 343 382 343 382 379 409.5 c 128,-1,23
 415 437 415 437 437 460 c 128,-1,24
 459 483 459 483 470 504 c 128,-1,25
 481 525 481 525 481 549 c 0,26,27
 481 581 481 581 462 600.5 c 128,-1,28
 443 620 443 620 400 620 c 256,29,30
 358 620 358 620 311.5 601.5 c 128,-1,31
 265 583 265 583 220 549 c 1,32,-1
 173 654 l 1,33,34
 234 702 234 702 300 724 c 128,-1,35
 366 746 366 746 430 746 c 0,0,1
EndSplineSet
Substitution2: "'ss02' Style Set 2 lookup 15 subtable" twosuperior
Substitution2: "'sinf' Scientific Inferiors lookup 11 subtable" two.sinf
Substitution2: "'subs' Subscript lookup 10 subtable" two.sinf
Substitution2: "'sups' Superscript lookup 9 subtable" two.sups
Substitution2: "'dnom' Denominators lookup 8 subtable" twoinferior
Substitution2: "'numr' Numerators lookup 6 subtable" twosuperior
EndChar

StartChar: three
Encoding: 51 51 22
Width: 588
VWidth: 1177
Flags: W
LayerCount: 2
Fore
SplineSet
457 384 m 1,0,1
 511 359 511 359 537 317.5 c 128,-1,2
 563 276 563 276 563 226 c 0,3,4
 563 182 563 182 546.5 139.5 c 128,-1,5
 530 97 530 97 492.5 62 c 128,-1,6
 455 27 455 27 394 6 c 128,-1,7
 333 -15 333 -15 246 -15 c 0,8,9
 188 -15 188 -15 136 -3.5 c 128,-1,10
 84 8 84 8 35 35 c 1,11,-1
 85 148 l 1,12,13
 118 128 118 128 162.5 115 c 128,-1,14
 207 102 207 102 254 102 c 0,15,16
 287 102 287 102 316.5 108.5 c 128,-1,17
 346 115 346 115 368.5 130.5 c 128,-1,18
 391 146 391 146 404.5 171 c 128,-1,19
 418 196 418 196 418 232 c 0,20,21
 418 280 418 280 381 302.5 c 128,-1,22
 344 325 344 325 278 325 c 2,23,-1
 230 325 l 1,24,-1
 259 439 l 1,25,-1
 319 439 l 2,26,27
 343 439 343 439 369.5 444.5 c 128,-1,28
 396 450 396 450 419 463.5 c 128,-1,29
 442 477 442 477 456.5 499 c 128,-1,30
 471 521 471 521 471 554 c 0,31,32
 471 589 471 589 444.5 608 c 128,-1,33
 418 627 418 627 377 627 c 0,34,35
 346 627 346 627 308.5 615.5 c 128,-1,36
 271 604 271 604 233 583 c 1,37,-1
 197 689 l 1,38,39
 246 715 246 715 301 730.5 c 128,-1,40
 356 746 356 746 403 746 c 0,41,42
 447 746 447 746 485 736 c 128,-1,43
 523 726 523 726 552 706 c 128,-1,44
 581 686 581 686 597.5 655.5 c 128,-1,45
 614 625 614 625 614 584 c 0,46,47
 614 519 614 519 576 467.5 c 128,-1,48
 538 416 538 416 457 384 c 1,0,1
EndSplineSet
Substitution2: "'ss02' Style Set 2 lookup 15 subtable" threesuperior
Substitution2: "'sinf' Scientific Inferiors lookup 11 subtable" three.sinf
Substitution2: "'subs' Subscript lookup 10 subtable" three.sinf
Substitution2: "'sups' Superscript lookup 9 subtable" three.sups
Substitution2: "'dnom' Denominators lookup 8 subtable" threeinferior
Substitution2: "'numr' Numerators lookup 6 subtable" threesuperior
EndChar

StartChar: four
Encoding: 52 52 23
Width: 588
VWidth: 1177
Flags: W
LayerCount: 2
Fore
SplineSet
466 570 m 1,0,1
 400 509 400 509 330 434 c 128,-1,2
 260 359 260 359 204 287 c 1,3,-1
 398 287 l 1,4,-1
 466 570 l 1,0,1
641 729 m 1,5,-1
 535 287 l 1,6,-1
 612 287 l 1,7,-1
 584 172 l 1,8,-1
 506 172 l 1,9,-1
 465 0 l 1,10,-1
 329 0 l 1,11,-1
 369 172 l 1,12,-1
 47 172 l 1,13,-1
 73 280 l 1,14,15
 106 326 106 326 156 384 c 128,-1,16
 206 442 206 442 263 502.5 c 128,-1,17
 320 563 320 563 381.5 622 c 128,-1,18
 443 681 443 681 499 729 c 1,19,-1
 641 729 l 1,5,-1
EndSplineSet
Substitution2: "'ss02' Style Set 2 lookup 15 subtable" foursuperior
Substitution2: "'sinf' Scientific Inferiors lookup 11 subtable" four.sinf
Substitution2: "'subs' Subscript lookup 10 subtable" four.sinf
Substitution2: "'sups' Superscript lookup 9 subtable" four.sups
Substitution2: "'dnom' Denominators lookup 8 subtable" fourinferior
Substitution2: "'numr' Numerators lookup 6 subtable" foursuperior
EndChar

StartChar: five
Encoding: 53 53 24
Width: 588
VWidth: 1177
Flags: W
LayerCount: 2
Fore
SplineSet
92 151 m 1,0,1
 130 127 130 127 171 116 c 128,-1,2
 212 105 212 105 251 105 c 0,3,4
 418 105 418 105 418 232 c 0,5,6
 418 285 418 285 356 316 c 128,-1,7
 294 347 294 347 152 350 c 1,8,9
 186 450 186 450 216.5 545 c 128,-1,10
 247 640 247 640 271 729 c 1,11,-1
 654 729 l 1,12,-1
 625 609 l 1,13,-1
 359 609 l 1,14,15
 347 565 347 565 334.5 524 c 128,-1,16
 322 483 322 483 311 456 c 1,17,18
 376 450 376 450 423 431.5 c 128,-1,19
 470 413 470 413 500.5 385 c 128,-1,20
 531 357 531 357 546.5 320.5 c 128,-1,21
 562 284 562 284 562 244 c 0,22,23
 562 126 562 126 484 55.5 c 128,-1,24
 406 -15 406 -15 254 -15 c 0,25,26
 197 -15 197 -15 142 -3.5 c 128,-1,27
 87 8 87 8 38 34 c 1,28,-1
 92 151 l 1,0,1
EndSplineSet
Substitution2: "'ss02' Style Set 2 lookup 15 subtable" fivesuperior
Substitution2: "'sinf' Scientific Inferiors lookup 11 subtable" five.sinf
Substitution2: "'subs' Subscript lookup 10 subtable" five.sinf
Substitution2: "'sups' Superscript lookup 9 subtable" five.sups
Substitution2: "'dnom' Denominators lookup 8 subtable" fiveinferior
Substitution2: "'numr' Numerators lookup 6 subtable" fivesuperior
EndChar

StartChar: six
Encoding: 54 54 25
Width: 588
VWidth: 1177
Flags: W
LayerCount: 2
Fore
SplineSet
638 617 m 1,0,1
 577 617 577 617 519.5 609 c 128,-1,2
 462 601 462 601 412.5 579.5 c 128,-1,3
 363 558 363 558 323.5 519.5 c 128,-1,4
 284 481 284 481 259 419 c 1,5,6
 297 441 297 441 337.5 450 c 128,-1,7
 378 459 378 459 408 459 c 0,8,9
 447 459 447 459 480.5 447 c 128,-1,10
 514 435 514 435 539 410.5 c 128,-1,11
 564 386 564 386 579 350 c 128,-1,12
 594 314 594 314 594 266 c 0,13,14
 594 198 594 198 571.5 145.5 c 128,-1,15
 549 93 549 93 511 57 c 128,-1,16
 473 21 473 21 423 3 c 128,-1,17
 373 -15 373 -15 318 -15 c 0,18,19
 270 -15 270 -15 227.5 1.5 c 128,-1,20
 185 18 185 18 154.5 50 c 128,-1,21
 124 82 124 82 106 130 c 128,-1,22
 88 178 88 178 88 240 c 0,23,24
 88 333 88 333 119.5 422 c 128,-1,25
 151 511 151 511 216.5 580.5 c 128,-1,26
 282 650 282 650 382.5 692 c 128,-1,27
 483 734 483 734 621 734 c 0,28,29
 627 734 627 734 638 733.5 c 128,-1,30
 649 733 649 733 655 733 c 1,31,-1
 638 617 l 1,0,1
456 256 m 0,32,33
 456 284 456 284 447.5 302 c 128,-1,34
 439 320 439 320 425 331 c 128,-1,35
 411 342 411 342 393 346.5 c 128,-1,36
 375 351 375 351 353 351 c 0,37,38
 325 351 325 351 295.5 344 c 128,-1,39
 266 337 266 337 239 326 c 1,40,41
 233 305 233 305 229.5 283 c 128,-1,42
 226 261 226 261 226 238 c 0,43,44
 226 211 226 211 232.5 186 c 128,-1,45
 239 161 239 161 252 143 c 128,-1,46
 265 125 265 125 284.5 114.5 c 128,-1,47
 304 104 304 104 331 104 c 0,48,49
 388 104 388 104 422 144.5 c 128,-1,50
 456 185 456 185 456 256 c 0,32,33
EndSplineSet
Substitution2: "'ss02' Style Set 2 lookup 15 subtable" sixsuperior
Substitution2: "'sinf' Scientific Inferiors lookup 11 subtable" six.sinf
Substitution2: "'subs' Subscript lookup 10 subtable" six.sinf
Substitution2: "'sups' Superscript lookup 9 subtable" six.sups
Substitution2: "'dnom' Denominators lookup 8 subtable" sixinferior
Substitution2: "'numr' Numerators lookup 6 subtable" sixsuperior
EndChar

StartChar: seven
Encoding: 55 55 26
Width: 588
VWidth: 1177
Flags: W
LayerCount: 2
Fore
SplineSet
139 0 m 1,0,1
 160 79 160 79 199.5 164 c 128,-1,2
 239 249 239 249 287.5 329.5 c 128,-1,3
 336 410 336 410 389.5 481 c 128,-1,4
 443 552 443 552 494 605 c 1,5,-1
 163 605 l 1,6,-1
 192 729 l 1,7,-1
 700 729 l 1,8,-1
 674 623 l 1,9,10
 633 589 633 589 578 525 c 128,-1,11
 523 461 523 461 467.5 377 c 128,-1,12
 412 293 412 293 364 196.5 c 128,-1,13
 316 100 316 100 287 0 c 1,14,-1
 139 0 l 1,0,1
EndSplineSet
Substitution2: "'ss02' Style Set 2 lookup 15 subtable" sevensuperior
Substitution2: "'sinf' Scientific Inferiors lookup 11 subtable" seven.sinf
Substitution2: "'subs' Subscript lookup 10 subtable" seven.sinf
Substitution2: "'sups' Superscript lookup 9 subtable" seven.sups
Substitution2: "'dnom' Denominators lookup 8 subtable" seveninferior
Substitution2: "'numr' Numerators lookup 6 subtable" sevensuperior
EndChar

StartChar: eight
Encoding: 56 56 27
Width: 588
VWidth: 1177
Flags: W
LayerCount: 2
Fore
SplineSet
73 163 m 0,0,1
 73 197 73 197 82.5 225.5 c 128,-1,2
 92 254 92 254 112 280.5 c 128,-1,3
 132 307 132 307 164 332.5 c 128,-1,4
 196 358 196 358 240 386 c 1,5,6
 213 414 213 414 194.5 446 c 128,-1,7
 176 478 176 478 176 522 c 0,8,9
 176 563 176 563 191 603 c 128,-1,10
 206 643 206 643 238 675 c 128,-1,11
 270 707 270 707 318 726.5 c 128,-1,12
 366 746 366 746 432 746 c 0,13,14
 476 746 476 746 513 733.5 c 128,-1,15
 550 721 550 721 577 699 c 128,-1,16
 604 677 604 677 620 646 c 128,-1,17
 636 615 636 615 636 576 c 0,18,19
 636 552 636 552 630 527 c 128,-1,20
 624 502 624 502 607.5 475.5 c 128,-1,21
 591 449 591 449 560.5 422 c 128,-1,22
 530 395 530 395 479 370 c 1,23,24
 518 343 518 343 546 306.5 c 128,-1,25
 574 270 574 270 574 212 c 0,26,27
 574 165 574 165 555.5 123.5 c 128,-1,28
 537 82 537 82 501.5 51 c 128,-1,29
 466 20 466 20 414 2.5 c 128,-1,30
 362 -15 362 -15 293 -15 c 0,31,32
 255 -15 255 -15 216 -5.5 c 128,-1,33
 177 4 177 4 145 24.5 c 128,-1,34
 113 45 113 45 93 79.5 c 128,-1,35
 73 114 73 114 73 163 c 0,0,1
433 208 m 0,36,37
 433 253 433 253 402.5 279.5 c 128,-1,38
 372 306 372 306 327 330 c 1,39,40
 290 312 290 312 268 294 c 128,-1,41
 246 276 246 276 233 257 c 128,-1,42
 220 238 220 238 215.5 219 c 128,-1,43
 211 200 211 200 211 181 c 0,44,45
 211 140 211 140 240 119.5 c 128,-1,46
 269 99 269 99 310 99 c 0,47,48
 335 99 335 99 357 106.5 c 128,-1,49
 379 114 379 114 396 128.5 c 128,-1,50
 413 143 413 143 423 163 c 128,-1,51
 433 183 433 183 433 208 c 0,36,37
309 531 m 0,52,53
 309 493 309 493 332.5 468.5 c 128,-1,54
 356 444 356 444 389 424 c 1,55,56
 456 456 456 456 478.5 489 c 128,-1,57
 501 522 501 522 501 554 c 0,58,59
 501 592 501 592 478 611 c 128,-1,60
 455 630 455 630 413 630 c 0,61,62
 364 630 364 630 336.5 601.5 c 128,-1,63
 309 573 309 573 309 531 c 0,52,53
EndSplineSet
Substitution2: "'ss02' Style Set 2 lookup 15 subtable" eightsuperior
Substitution2: "'sinf' Scientific Inferiors lookup 11 subtable" eight.sinf
Substitution2: "'subs' Subscript lookup 10 subtable" eight.sinf
Substitution2: "'sups' Superscript lookup 9 subtable" eight.sups
Substitution2: "'dnom' Denominators lookup 8 subtable" eightinferior
Substitution2: "'numr' Numerators lookup 6 subtable" eightsuperior
EndChar

StartChar: nine
Encoding: 57 57 28
Width: 588
VWidth: 1177
Flags: W
LayerCount: 2
Fore
SplineSet
365 383 m 0,0,1
 392 383 392 383 422 390 c 128,-1,2
 452 397 452 397 479 408 c 1,3,4
 485 430 485 430 488 450.5 c 128,-1,5
 491 471 491 471 491 494 c 0,6,7
 491 548 491 548 466 586 c 128,-1,8
 441 624 441 624 388 624 c 0,9,10
 331 624 331 624 296 587.5 c 128,-1,11
 261 551 261 551 261 477 c 0,12,13
 261 423 261 423 292 403 c 128,-1,14
 323 383 323 383 365 383 c 0,0,1
310 276 m 0,15,16
 271 276 271 276 237.5 287.5 c 128,-1,17
 204 299 204 299 178.5 323 c 128,-1,18
 153 347 153 347 138.5 382.5 c 128,-1,19
 124 418 124 418 124 466 c 0,20,21
 124 534 124 534 146 587 c 128,-1,22
 168 640 168 640 206 675 c 128,-1,23
 244 710 244 710 294 728 c 128,-1,24
 344 746 344 746 399 746 c 0,25,26
 447 746 447 746 489.5 729.5 c 128,-1,27
 532 713 532 713 563.5 680.5 c 128,-1,28
 595 648 595 648 612.5 600 c 128,-1,29
 630 552 630 552 630 490 c 0,30,31
 630 396 630 396 599 307 c 128,-1,32
 568 218 568 218 502.5 149 c 128,-1,33
 437 80 437 80 337.5 37.5 c 128,-1,34
 238 -5 238 -5 100 -5 c 0,35,36
 94 -5 94 -5 83 -4.5 c 128,-1,37
 72 -4 72 -4 65 -2 c 1,38,-1
 82 112 l 1,39,40
 143 112 143 112 200.5 120 c 128,-1,41
 258 128 258 128 307.5 150.5 c 128,-1,42
 357 173 357 173 396.5 212.5 c 128,-1,43
 436 252 436 252 461 316 c 1,44,45
 423 294 423 294 382 285 c 128,-1,46
 341 276 341 276 310 276 c 0,15,16
EndSplineSet
Substitution2: "'ss02' Style Set 2 lookup 15 subtable" ninesuperior
Substitution2: "'sinf' Scientific Inferiors lookup 11 subtable" nine.sinf
Substitution2: "'subs' Subscript lookup 10 subtable" nine.sinf
Substitution2: "'sups' Superscript lookup 9 subtable" nine.sups
Substitution2: "'dnom' Denominators lookup 8 subtable" nineinferior
Substitution2: "'numr' Numerators lookup 6 subtable" ninesuperior
EndChar

StartChar: less
Encoding: 60 60 31
Width: 588
VWidth: 1177
Flags: W
LayerCount: 2
Fore
SplineSet
120 367 m 1,0,-1
 618 558 l 1,1,-1
 629 429 l 1,2,-1
 264 302 l 1,3,-1
 564 164 l 1,4,-1
 504 52 l 1,5,-1
 92 251 l 1,6,-1
 120 367 l 1,0,-1
EndSplineSet
EndChar

StartChar: equal
Encoding: 61 61 32
Width: 588
VWidth: 1177
Flags: W
LayerCount: 2
Fore
SplineSet
548 134 m 1,0,-1
 53 134 l 1,1,-1
 81 254 l 1,2,-1
 576 254 l 1,3,-1
 548 134 l 1,0,-1
602 364 m 1,4,-1
 107 364 l 1,5,-1
 137 484 l 1,6,-1
 630 484 l 1,7,-1
 602 364 l 1,4,-1
EndSplineSet
EndChar

StartChar: greater
Encoding: 62 62 33
Width: 588
VWidth: 1177
Flags: W
LayerCount: 2
Fore
SplineSet
571 243 m 1,0,-1
 73 52 l 1,1,-1
 62 181 l 1,2,-1
 428 309 l 1,3,-1
 127 446 l 1,4,-1
 187 558 l 1,5,-1
 600 359 l 1,6,-1
 571 243 l 1,0,-1
EndSplineSet
EndChar

StartChar: question
Encoding: 63 63 34
Width: 588
VWidth: 1177
Flags: W
LayerCount: 2
Fore
SplineSet
395 624 m 0,0,1
 356 624 356 624 323 612 c 128,-1,2
 290 600 290 600 244 580 c 1,3,-1
 226 691 l 1,4,5
 274 717 274 717 326 731.5 c 128,-1,6
 378 746 378 746 435 746 c 0,7,8
 487 746 487 746 522.5 734 c 128,-1,9
 558 722 558 722 581 701.5 c 128,-1,10
 604 681 604 681 614.5 654 c 128,-1,11
 625 627 625 627 625 595 c 0,12,13
 625 560 625 560 614.5 532 c 128,-1,14
 604 504 604 504 586 480.5 c 128,-1,15
 568 457 568 457 543 436.5 c 128,-1,16
 518 416 518 416 489 396 c 0,17,18
 462 376 462 376 443 361.5 c 128,-1,19
 424 347 424 347 410.5 333 c 128,-1,20
 397 319 397 319 387.5 303 c 128,-1,21
 378 287 378 287 371 265 c 1,22,-1
 237 265 l 1,23,24
 245 319 245 319 274 360.5 c 128,-1,25
 303 402 303 402 369 449 c 0,26,27
 397 470 397 470 416.5 484.5 c 128,-1,28
 436 499 436 499 447 512 c 128,-1,29
 458 525 458 525 463.5 538.5 c 128,-1,30
 469 552 469 552 469 570 c 0,31,32
 469 624 469 624 395 624 c 0,0,1
287 183 m 0,33,34
 325 183 325 183 350 161 c 128,-1,35
 375 139 375 139 375 95 c 0,36,37
 375 71 375 71 366 51.5 c 128,-1,38
 357 32 357 32 342 17 c 128,-1,39
 327 2 327 2 308.5 -6 c 128,-1,40
 290 -14 290 -14 269 -14 c 0,41,42
 232 -14 232 -14 206.5 8.5 c 128,-1,43
 181 31 181 31 181 74 c 0,44,45
 181 99 181 99 190 119 c 128,-1,46
 199 139 199 139 214 153 c 128,-1,47
 229 167 229 167 248 175 c 128,-1,48
 267 183 267 183 287 183 c 0,33,34
EndSplineSet
EndChar

StartChar: at
Encoding: 64 64 35
Width: 588
VWidth: 1177
Flags: W
LayerCount: 2
Fore
SplineSet
369 -57 m 0,0,1
 420 -57 420 -57 449.5 -50.5 c 128,-1,2
 479 -44 479 -44 489 -41 c 1,3,-1
 481 -143 l 1,4,5
 450 -150 450 -150 418 -154.5 c 128,-1,6
 386 -159 386 -159 352 -159 c 0,7,8
 213 -159 213 -159 139 -77.5 c 128,-1,9
 65 4 65 4 65 173 c 0,10,11
 65 297 65 297 93.5 401.5 c 128,-1,12
 122 506 122 506 174 583 c 128,-1,13
 226 660 226 660 297.5 703 c 128,-1,14
 369 746 369 746 455 746 c 0,15,16
 561 746 561 746 610.5 699.5 c 128,-1,17
 660 653 660 653 660 565 c 0,18,19
 660 543 660 543 655.5 515.5 c 128,-1,20
 651 488 651 488 645 462 c 2,21,-1
 550 65 l 1,22,23
 517 54 517 54 481.5 47.5 c 128,-1,24
 446 41 446 41 416 41 c 0,25,26
 378 41 378 41 347 51 c 128,-1,27
 316 61 316 61 293.5 83.5 c 128,-1,28
 271 106 271 106 258.5 141.5 c 128,-1,29
 246 177 246 177 246 227 c 0,30,31
 246 281 246 281 260 334.5 c 128,-1,32
 274 388 274 388 303 429 c 128,-1,33
 332 470 332 470 375 496 c 128,-1,34
 418 522 418 522 475 522 c 0,35,36
 495 522 495 522 511 518.5 c 128,-1,37
 527 515 527 515 535 512 c 1,38,39
 539 525 539 525 541 540 c 128,-1,40
 543 555 543 555 543 564 c 0,41,42
 543 601 543 601 517.5 622.5 c 128,-1,43
 492 644 492 644 449 644 c 0,44,45
 394 644 394 644 343.5 613 c 128,-1,46
 293 582 293 582 255.5 522.5 c 128,-1,47
 218 463 218 463 196 378 c 128,-1,48
 174 293 174 293 174 187 c 0,49,50
 174 56 174 56 226 -0.5 c 128,-1,51
 278 -57 278 -57 369 -57 c 0,0,1
428 153 m 0,52,53
 432 153 432 153 438 153 c 128,-1,54
 444 153 444 153 449 155 c 2,55,-1
 508 402 l 1,56,57
 499 409 499 409 478 409 c 0,58,59
 447 409 447 409 425.5 393 c 128,-1,60
 404 377 404 377 390.5 351 c 128,-1,61
 377 325 377 325 370.5 293 c 128,-1,62
 364 261 364 261 364 229 c 0,63,64
 364 191 364 191 380.5 172 c 128,-1,65
 397 153 397 153 428 153 c 0,52,53
EndSplineSet
Substitution2: "'case' Case-Sensitive Forms lookup 17 subtable" At
EndChar

StartChar: A
Encoding: 65 65 36
Width: 588
VWidth: 1177
Flags: W
LayerCount: 2
Fore
SplineSet
419 170 m 1,0,-1
 212 170 l 1,1,2
 194 130 194 130 175.5 87.5 c 128,-1,3
 157 45 157 45 140 0 c 1,4,-1
 -7 0 l 1,5,6
 93 219 93 219 186 402 c 128,-1,7
 279 585 279 585 367 729 c 1,8,-1
 522 729 l 1,9,10
 538 590 538 590 548 435 c 128,-1,11
 558 280 558 280 561 105 c 2,12,-1
 561 0 l 1,13,-1
 415 0 l 1,14,-1
 419 170 l 1,0,-1
415 591 m 1,15,16
 400 562 400 562 385 533.5 c 128,-1,17
 370 505 370 505 353 470.5 c 128,-1,18
 336 436 336 436 314.5 391 c 128,-1,19
 293 346 293 346 266 286 c 1,20,-1
 422 286 l 1,21,22
 423 346 423 346 422.5 391 c 128,-1,23
 422 436 422 436 420.5 470.5 c 128,-1,24
 419 505 419 505 417.5 534 c 128,-1,25
 416 563 416 563 415 591 c 1,15,16
EndSplineSet
EndChar

StartChar: B
Encoding: 66 66 37
Width: 588
VWidth: 1177
Flags: W
LayerCount: 2
Fore
SplineSet
244 -9 m 0,0,1
 226 -9 226 -9 202 -8 c 128,-1,2
 178 -7 178 -7 151 -4 c 128,-1,3
 124 -1 124 -1 96 3.5 c 128,-1,4
 68 8 68 8 46 15 c 1,5,-1
 214 715 l 1,6,7
 238 721 238 721 264.5 725 c 128,-1,8
 291 729 291 729 316.5 732 c 128,-1,9
 342 735 342 735 365.5 736 c 128,-1,10
 389 737 389 737 406 737 c 0,11,12
 457 737 457 737 498 727.5 c 128,-1,13
 539 718 539 718 568.5 697 c 128,-1,14
 598 676 598 676 614.5 643.5 c 128,-1,15
 631 611 631 611 631 565 c 0,16,17
 631 512 631 512 602.5 463.5 c 128,-1,18
 574 415 574 415 498 385 c 1,19,20
 547 361 547 361 569.5 326.5 c 128,-1,21
 592 292 592 292 592 240 c 0,22,23
 592 183 592 183 570 137.5 c 128,-1,24
 548 92 548 92 503.5 59.5 c 128,-1,25
 459 27 459 27 394 9 c 128,-1,26
 329 -9 329 -9 244 -9 c 0,0,1
260 320 m 1,27,-1
 212 119 l 1,28,29
 225 117 225 117 245.5 115.5 c 128,-1,30
 266 114 266 114 296 114 c 0,31,32
 317 114 317 114 344 120 c 128,-1,33
 371 126 371 126 394.5 140 c 128,-1,34
 418 154 418 154 434.5 179 c 128,-1,35
 451 204 451 204 451 241 c 0,36,37
 451 288 451 288 419.5 304 c 128,-1,38
 388 320 388 320 337 320 c 2,39,-1
 260 320 l 1,27,-1
290 437 m 1,40,-1
 335 437 l 2,41,42
 364 437 364 437 392 442.5 c 128,-1,43
 420 448 420 448 442.5 460.5 c 128,-1,44
 465 473 465 473 479.5 494.5 c 128,-1,45
 494 516 494 516 494 547 c 0,46,47
 494 585 494 585 468 600 c 128,-1,48
 442 615 442 615 396 615 c 0,49,50
 377 615 377 615 360 614.5 c 128,-1,51
 343 614 343 614 330 611 c 1,52,-1
 290 437 l 1,40,-1
EndSplineSet
EndChar

StartChar: C
Encoding: 67 67 38
Width: 588
VWidth: 1177
Flags: W
LayerCount: 2
Fore
SplineSet
339 -15 m 0,0,1
 279 -15 279 -15 234.5 3 c 128,-1,2
 190 21 190 21 161 54.5 c 128,-1,3
 132 88 132 88 118 136 c 128,-1,4
 104 184 104 184 104 241 c 0,5,6
 104 329 104 329 128 419.5 c 128,-1,7
 152 510 152 510 200.5 582.5 c 128,-1,8
 249 655 249 655 322.5 700.5 c 128,-1,9
 396 746 396 746 495 746 c 0,10,11
 533 746 533 746 562 738.5 c 128,-1,12
 591 731 591 731 613.5 722.5 c 128,-1,13
 636 714 636 714 650 704 c 128,-1,14
 664 694 664 694 670 689 c 1,15,-1
 616 577 l 1,16,17
 592 595 592 595 560.5 607.5 c 128,-1,18
 529 620 529 620 479 620 c 0,19,20
 421 620 421 620 378.5 585.5 c 128,-1,21
 336 551 336 551 307 498 c 128,-1,22
 278 445 278 445 264 381 c 128,-1,23
 250 317 250 317 250 256 c 0,24,25
 250 224 250 224 256.5 198 c 128,-1,26
 263 172 263 172 277.5 152.5 c 128,-1,27
 292 133 292 133 316 122.5 c 128,-1,28
 340 112 340 112 376 112 c 0,29,30
 430 112 430 112 466.5 125 c 128,-1,31
 503 138 503 138 527 152 c 1,32,-1
 543 35 l 1,33,34
 512 16 512 16 459 0.5 c 128,-1,35
 406 -15 406 -15 339 -15 c 0,0,1
EndSplineSet
EndChar

StartChar: D
Encoding: 68 68 39
Width: 588
VWidth: 1177
Flags: W
LayerCount: 2
Fore
SplineSet
208 118 m 1,0,1
 214 117 214 117 221.5 117 c 128,-1,2
 229 117 229 117 234 117 c 0,3,4
 301 117 301 117 348 151.5 c 128,-1,5
 395 186 395 186 423 239.5 c 128,-1,6
 451 293 451 293 464 356.5 c 128,-1,7
 477 420 477 420 477 477 c 0,8,9
 477 505 477 505 472.5 530 c 128,-1,10
 468 555 468 555 456 573 c 128,-1,11
 444 591 444 591 423 601 c 128,-1,12
 402 611 402 611 369 611 c 0,13,14
 348 611 348 611 326 608 c 1,15,-1
 208 118 l 1,0,1
623 482 m 0,16,17
 623 388 623 388 600.5 299 c 128,-1,18
 578 210 578 210 528.5 141.5 c 128,-1,19
 479 73 479 73 401 32 c 128,-1,20
 323 -9 323 -9 212 -9 c 0,21,22
 174 -9 174 -9 126 -5 c 128,-1,23
 78 -1 78 -1 37 8 c 1,24,-1
 208 720 l 1,25,26
 260 731 260 731 296 734 c 128,-1,27
 332 737 332 737 370 737 c 0,28,29
 488 737 488 737 555.5 670.5 c 128,-1,30
 623 604 623 604 623 482 c 0,16,17
EndSplineSet
EndChar

StartChar: E
Encoding: 69 69 40
Width: 588
VWidth: 1177
Flags: W
LayerCount: 2
Fore
SplineSet
62 0 m 1,0,-1
 237 729 l 1,1,-1
 669 729 l 1,2,-1
 641 609 l 1,3,-1
 353 609 l 1,4,-1
 313 445 l 1,5,-1
 563 445 l 1,6,-1
 535 325 l 1,7,-1
 285 325 l 1,8,-1
 236 120 l 1,9,-1
 549 120 l 1,10,-1
 521 0 l 1,11,-1
 62 0 l 1,0,-1
EndSplineSet
EndChar

StartChar: F
Encoding: 70 70 41
Width: 588
VWidth: 1177
Flags: W
LayerCount: 2
Fore
SplineSet
67 0 m 1,0,-1
 241 729 l 1,1,-1
 689 729 l 1,2,-1
 661 609 l 1,3,-1
 359 609 l 1,4,-1
 316 432 l 1,5,-1
 580 432 l 1,6,-1
 551 312 l 1,7,-1
 287 312 l 1,8,-1
 212 0 l 1,9,-1
 67 0 l 1,0,-1
EndSplineSet
EndChar

StartChar: G
Encoding: 71 71 42
Width: 588
VWidth: 1177
Flags: W
LayerCount: 2
Fore
SplineSet
310 -15 m 0,0,1
 200 -15 200 -15 146 52 c 128,-1,2
 92 119 92 119 92 241 c 0,3,4
 92 329 92 329 117.5 419.5 c 128,-1,5
 143 510 143 510 193 582.5 c 128,-1,6
 243 655 243 655 318 700.5 c 128,-1,7
 393 746 393 746 495 746 c 0,8,9
 533 746 533 746 562 738.5 c 128,-1,10
 591 731 591 731 613.5 722.5 c 128,-1,11
 636 714 636 714 650 704 c 128,-1,12
 664 694 664 694 670 689 c 1,13,-1
 616 577 l 1,14,15
 592 595 592 595 560.5 607.5 c 128,-1,16
 529 620 529 620 479 620 c 0,17,18
 419 620 419 620 374 585.5 c 128,-1,19
 329 551 329 551 298 498 c 128,-1,20
 267 445 267 445 252 381 c 128,-1,21
 237 317 237 317 237 256 c 0,22,23
 237 192 237 192 260.5 151.5 c 128,-1,24
 284 111 284 111 340 111 c 0,25,26
 355 111 355 111 370 112 c 128,-1,27
 385 113 385 113 398 115 c 1,28,-1
 462 382 l 1,29,-1
 607 382 l 1,30,-1
 519 18 l 1,31,32
 492 9 492 9 435 -3 c 128,-1,33
 378 -15 378 -15 310 -15 c 0,0,1
EndSplineSet
EndChar

StartChar: H
Encoding: 72 72 43
Width: 588
VWidth: 1177
Flags: W
LayerCount: 2
Fore
SplineSet
690 729 m 1,0,-1
 515 0 l 1,1,-1
 369 0 l 1,2,-1
 448 322 l 1,3,-1
 253 322 l 1,4,-1
 176 0 l 1,5,-1
 31 0 l 1,6,-1
 206 729 l 1,7,-1
 351 729 l 1,8,-1
 282 442 l 1,9,-1
 476 442 l 1,10,-1
 545 729 l 1,11,-1
 690 729 l 1,0,-1
EndSplineSet
EndChar

StartChar: I
Encoding: 73 73 44
Width: 588
VWidth: 1177
Flags: W
LayerCount: 2
Fore
SplineSet
41 0 m 1,0,-1
 69 120 l 1,1,-1
 230 120 l 1,2,-1
 347 609 l 1,3,-1
 187 609 l 1,4,-1
 216 729 l 1,5,-1
 678 729 l 1,6,-1
 650 609 l 1,7,-1
 492 609 l 1,8,-1
 375 120 l 1,9,-1
 532 120 l 1,10,-1
 504 0 l 1,11,-1
 41 0 l 1,0,-1
EndSplineSet
EndChar

StartChar: J
Encoding: 74 74 45
Width: 588
VWidth: 1177
Flags: W
LayerCount: 2
Fore
SplineSet
541 244 m 2,0,1
 528 189 528 189 508 141 c 128,-1,2
 488 93 488 93 455 58.5 c 128,-1,3
 422 24 422 24 372 4.5 c 128,-1,4
 322 -15 322 -15 250 -15 c 0,5,6
 212 -15 212 -15 179.5 -7.5 c 128,-1,7
 147 0 147 0 122 12 c 128,-1,8
 97 24 97 24 77 38 c 128,-1,9
 57 52 57 52 44 65 c 1,10,-1
 118 170 l 1,11,12
 142 149 142 149 174 130 c 128,-1,13
 206 111 206 111 247 111 c 0,14,15
 304 111 304 111 341 141 c 128,-1,16
 378 171 378 171 398 252 c 2,17,-1
 483 609 l 1,18,-1
 247 609 l 1,19,-1
 276 729 l 1,20,-1
 656 729 l 1,21,-1
 541 244 l 2,0,1
EndSplineSet
EndChar

StartChar: K
Encoding: 75 75 46
Width: 588
VWidth: 1177
Flags: W
LayerCount: 2
Fore
SplineSet
398 379 m 1,0,1
 426 344 426 344 452 300 c 128,-1,2
 478 256 478 256 500 205.5 c 128,-1,3
 522 155 522 155 539 103 c 128,-1,4
 556 51 556 51 567 0 c 1,5,-1
 415 0 l 1,6,7
 407 41 407 41 391 89 c 128,-1,8
 375 137 375 137 354 183 c 128,-1,9
 333 229 333 229 309.5 269.5 c 128,-1,10
 286 310 286 310 263 338 c 1,11,-1
 181 0 l 1,12,-1
 37 0 l 1,13,-1
 211 729 l 1,14,-1
 357 729 l 1,15,-1
 284 426 l 1,16,17
 321 459 321 459 358 498.5 c 128,-1,18
 395 538 395 538 429 579 c 128,-1,19
 463 620 463 620 493 658.5 c 128,-1,20
 523 697 523 697 544 729 c 1,21,-1
 710 729 l 1,22,23
 683 692 683 692 649 648.5 c 128,-1,24
 615 605 615 605 575 558.5 c 128,-1,25
 535 512 535 512 490 466 c 128,-1,26
 445 420 445 420 398 379 c 1,0,1
EndSplineSet
EndChar

StartChar: L
Encoding: 76 76 47
Width: 588
VWidth: 1177
Flags: W
LayerCount: 2
Fore
SplineSet
505 0 m 1,0,-1
 53 0 l 1,1,-1
 227 729 l 1,2,-1
 372 729 l 1,3,-1
 226 120 l 1,4,-1
 534 120 l 1,5,-1
 505 0 l 1,0,-1
EndSplineSet
EndChar

StartChar: M
Encoding: 77 77 48
Width: 588
VWidth: 1177
Flags: W
LayerCount: 2
Fore
SplineSet
343 729 m 1,0,1
 345 704 345 704 349 663.5 c 128,-1,2
 353 623 353 623 356.5 576.5 c 128,-1,3
 360 530 360 530 363 480.5 c 128,-1,4
 366 431 366 431 369 389 c 1,5,-1
 545 729 l 1,6,-1
 678 729 l 1,7,8
 654 551 654 551 618.5 370.5 c 128,-1,9
 583 190 583 190 542 0 c 1,10,-1
 409 0 l 1,11,-1
 555 572 l 1,12,-1
 392 258 l 1,13,-1
 290 258 l 1,14,15
 288 336 288 336 282.5 416 c 128,-1,16
 277 496 277 496 271 567 c 1,17,-1
 140 0 l 1,18,-1
 7 0 l 1,19,20
 32 90 32 90 58.5 186.5 c 128,-1,21
 85 283 85 283 112 379 c 128,-1,22
 139 475 139 475 165.5 564.5 c 128,-1,23
 192 654 192 654 218 729 c 1,24,-1
 343 729 l 1,0,1
EndSplineSet
EndChar

StartChar: N
Encoding: 78 78 49
Width: 588
VWidth: 1177
Flags: W
LayerCount: 2
Fore
SplineSet
397 0 m 1,0,1
 377 121 377 121 349.5 248.5 c 128,-1,2
 322 376 322 376 284 523 c 1,3,-1
 159 0 l 1,4,-1
 31 0 l 1,5,-1
 205 729 l 1,6,-1
 329 729 l 1,7,8
 345 677 345 677 363.5 616 c 128,-1,9
 382 555 382 555 397.5 492.5 c 128,-1,10
 413 430 413 430 427 368.5 c 128,-1,11
 441 307 441 307 449 257 c 1,12,-1
 561 729 l 1,13,-1
 689 729 l 1,14,-1
 515 0 l 1,15,-1
 397 0 l 1,0,1
EndSplineSet
EndChar

StartChar: O
Encoding: 79 79 50
Width: 588
VWidth: 1177
Flags: W
LayerCount: 2
Fore
SplineSet
432 746 m 0,0,1
 527 746 527 746 581.5 684 c 128,-1,2
 636 622 636 622 636 519 c 0,3,4
 636 473 636 473 629 415.5 c 128,-1,5
 622 358 622 358 605.5 298.5 c 128,-1,6
 589 239 589 239 562 182.5 c 128,-1,7
 535 126 535 126 496 82 c 128,-1,8
 457 38 457 38 404.5 11.5 c 128,-1,9
 352 -15 352 -15 284 -15 c 0,10,11
 187 -15 187 -15 133 46.5 c 128,-1,12
 79 108 79 108 79 211 c 0,13,14
 79 257 79 257 86 314.5 c 128,-1,15
 93 372 93 372 110 431.5 c 128,-1,16
 127 491 127 491 153.5 547.5 c 128,-1,17
 180 604 180 604 219.5 648.5 c 128,-1,18
 259 693 259 693 311.5 719.5 c 128,-1,19
 364 746 364 746 432 746 c 0,0,1
300 111 m 0,20,21
 348 111 348 111 384 152 c 128,-1,22
 420 193 420 193 444 253.5 c 128,-1,23
 468 314 468 314 479.5 383 c 128,-1,24
 491 452 491 452 491 509 c 0,25,26
 491 555 491 555 475 587.5 c 128,-1,27
 459 620 459 620 416 620 c 0,28,29
 368 620 368 620 331 578.5 c 128,-1,30
 294 537 294 537 270.5 476.5 c 128,-1,31
 247 416 247 416 235.5 346.5 c 128,-1,32
 224 277 224 277 224 221 c 0,33,34
 224 175 224 175 239.5 143 c 128,-1,35
 255 111 255 111 300 111 c 0,20,21
EndSplineSet
EndChar

StartChar: P
Encoding: 80 80 51
Width: 588
VWidth: 1177
Flags: W
LayerCount: 2
Fore
SplineSet
409 737 m 0,0,1
 474 737 474 737 520.5 722.5 c 128,-1,2
 567 708 567 708 597 681 c 128,-1,3
 627 654 627 654 640.5 617 c 128,-1,4
 654 580 654 580 654 536 c 0,5,6
 654 462 654 462 626 407 c 128,-1,7
 598 352 598 352 548.5 317 c 128,-1,8
 499 282 499 282 431 264.5 c 128,-1,9
 363 247 363 247 280 247 c 2,10,-1
 250 247 l 1,11,-1
 190 0 l 1,12,-1
 45 0 l 1,13,-1
 218 720 l 1,14,15
 273 729 273 729 322 733 c 128,-1,16
 371 737 371 737 409 737 c 0,0,1
390 611 m 0,17,18
 374 611 374 611 363 610.5 c 128,-1,19
 352 610 352 610 336 608 c 1,20,-1
 279 372 l 1,21,-1
 314 372 l 2,22,23
 409 372 409 372 458.5 410 c 128,-1,24
 508 448 508 448 508 515 c 0,25,26
 508 560 508 560 483 585.5 c 128,-1,27
 458 611 458 611 390 611 c 0,17,18
EndSplineSet
EndChar

StartChar: Q
Encoding: 81 81 52
Width: 588
VWidth: 1177
Flags: W
LayerCount: 2
Fore
SplineSet
432 746 m 0,0,1
 527 746 527 746 581 684 c 128,-1,2
 635 622 635 622 635 519 c 0,3,4
 635 475 635 475 628.5 421 c 128,-1,5
 622 367 622 367 608 310.5 c 128,-1,6
 594 254 594 254 569.5 199.5 c 128,-1,7
 545 145 545 145 511 100 c 128,-1,8
 477 55 477 55 430.5 25 c 128,-1,9
 384 -5 384 -5 324 -13 c 1,10,-1
 324 -21 l 2,11,12
 324 -55 324 -55 371.5 -75 c 128,-1,13
 419 -95 419 -95 490 -104 c 1,14,-1
 445 -200 l 1,15,16
 327 -184 327 -184 267.5 -143 c 128,-1,17
 208 -102 208 -102 208 -25 c 0,18,19
 208 -20 208 -20 208 -15.5 c 128,-1,20
 208 -11 208 -11 210 -5 c 1,21,22
 148 17 148 17 114 73.5 c 128,-1,23
 80 130 80 130 80 211 c 0,24,25
 80 257 80 257 87 314.5 c 128,-1,26
 94 372 94 372 110.5 431.5 c 128,-1,27
 127 491 127 491 154 547.5 c 128,-1,28
 181 604 181 604 220 648.5 c 128,-1,29
 259 693 259 693 311.5 719.5 c 128,-1,30
 364 746 364 746 432 746 c 0,0,1
300 111 m 0,31,32
 348 111 348 111 384 152 c 128,-1,33
 420 193 420 193 444 253.5 c 128,-1,34
 468 314 468 314 479.5 383 c 128,-1,35
 491 452 491 452 491 509 c 0,36,37
 491 555 491 555 475 587.5 c 128,-1,38
 459 620 459 620 416 620 c 0,39,40
 368 620 368 620 331 578.5 c 128,-1,41
 294 537 294 537 270.5 476.5 c 128,-1,42
 247 416 247 416 235.5 346.5 c 128,-1,43
 224 277 224 277 224 221 c 0,44,45
 224 175 224 175 239.5 143 c 128,-1,46
 255 111 255 111 300 111 c 0,31,32
EndSplineSet
EndChar

StartChar: R
Encoding: 82 82 53
Width: 588
VWidth: 1177
Flags: W
LayerCount: 2
Fore
SplineSet
449 298 m 1,0,1
 467 269 467 269 482.5 232.5 c 128,-1,2
 498 196 498 196 512.5 156.5 c 128,-1,3
 527 117 527 117 538 77 c 128,-1,4
 549 37 549 37 556 0 c 1,5,-1
 415 0 l 1,6,7
 402 71 402 71 378.5 137 c 128,-1,8
 355 203 355 203 323 269 c 1,9,-1
 247 269 l 1,10,-1
 183 0 l 1,11,-1
 40 0 l 1,12,-1
 211 717 l 1,13,14
 233 722 233 722 258.5 726 c 128,-1,15
 284 730 284 730 308.5 732.5 c 128,-1,16
 333 735 333 735 355.5 736 c 128,-1,17
 378 737 378 737 396 737 c 0,18,19
 513 737 513 737 570.5 686 c 128,-1,20
 628 635 628 635 628 548 c 0,21,22
 628 507 628 507 616.5 467.5 c 128,-1,23
 605 428 605 428 582 394 c 128,-1,24
 559 360 559 360 526 335 c 128,-1,25
 493 310 493 310 449 298 c 1,0,1
330 389 m 2,26,27
 361 389 361 389 388.5 397 c 128,-1,28
 416 405 416 405 437 423 c 128,-1,29
 458 441 458 441 470.5 468 c 128,-1,30
 483 495 483 495 483 531 c 0,31,32
 483 572 483 572 458 594.5 c 128,-1,33
 433 617 433 617 373 617 c 0,34,35
 360 617 360 617 349.5 616 c 128,-1,36
 339 615 339 615 330 612 c 1,37,-1
 276 389 l 1,38,-1
 330 389 l 2,26,27
EndSplineSet
EndChar

StartChar: S
Encoding: 83 83 54
Width: 588
VWidth: 1177
Flags: W
LayerCount: 2
Fore
SplineSet
278 106 m 0,0,1
 305 106 305 106 330 111.5 c 128,-1,2
 355 117 355 117 373 129 c 128,-1,3
 391 141 391 141 402 160 c 128,-1,4
 413 179 413 179 413 207 c 0,5,6
 413 228 413 228 404.5 245.5 c 128,-1,7
 396 263 396 263 380.5 277 c 128,-1,8
 365 291 365 291 344.5 302.5 c 128,-1,9
 324 314 324 314 300 326 c 0,10,11
 271 341 271 341 245.5 356.5 c 128,-1,12
 220 372 220 372 202 393.5 c 128,-1,13
 184 415 184 415 173.5 444 c 128,-1,14
 163 473 163 473 163 516 c 0,15,16
 163 620 163 620 233 683 c 128,-1,17
 303 746 303 746 432 746 c 0,18,19
 474 746 474 746 508 740 c 128,-1,20
 542 734 542 734 568 725.5 c 128,-1,21
 594 717 594 717 612 707.5 c 128,-1,22
 630 698 630 698 642 691 c 1,23,-1
 581 580 l 1,24,25
 554 599 554 599 512.5 611.5 c 128,-1,26
 471 624 471 624 413 624 c 0,27,28
 368 624 368 624 337 604 c 128,-1,29
 306 584 306 584 306 535 c 0,30,31
 306 495 306 495 332.5 474 c 128,-1,32
 359 453 359 453 397 437 c 0,33,34
 432 421 432 421 461.5 403 c 128,-1,35
 491 385 491 385 512.5 361.5 c 128,-1,36
 534 338 534 338 546 306 c 128,-1,37
 558 274 558 274 558 231 c 0,38,39
 558 111 558 111 481 48 c 128,-1,40
 404 -15 404 -15 263 -15 c 0,41,42
 216 -15 216 -15 178.5 -8 c 128,-1,43
 141 -1 141 -1 114 8.5 c 128,-1,44
 87 18 87 18 67.5 29 c 128,-1,45
 48 40 48 40 37 48 c 1,46,-1
 99 159 l 1,47,48
 111 152 111 152 129 142.5 c 128,-1,49
 147 133 147 133 170 125 c 128,-1,50
 193 117 193 117 220 111.5 c 128,-1,51
 247 106 247 106 278 106 c 0,0,1
EndSplineSet
EndChar

StartChar: T
Encoding: 84 84 55
Width: 588
VWidth: 1177
Flags: W
LayerCount: 2
Fore
SplineSet
710 729 m 1,0,-1
 682 609 l 1,1,-1
 489 609 l 1,2,-1
 343 0 l 1,3,-1
 198 0 l 1,4,-1
 344 609 l 1,5,-1
 152 609 l 1,6,-1
 180 729 l 1,7,-1
 710 729 l 1,0,-1
EndSplineSet
EndChar

StartChar: U
Encoding: 85 85 56
Width: 588
VWidth: 1177
Flags: W
LayerCount: 2
Fore
SplineSet
279 -15 m 0,0,1
 175 -15 175 -15 127 34.5 c 128,-1,2
 79 84 79 84 79 172 c 0,3,4
 79 220 79 220 93 280 c 2,5,-1
 201 729 l 1,6,-1
 346 729 l 1,7,-1
 239 282 l 2,8,9
 233 255 233 255 228.5 230.5 c 128,-1,10
 224 206 224 206 224 186 c 0,11,12
 224 151 224 151 240.5 131 c 128,-1,13
 257 111 257 111 300 111 c 0,14,15
 326 111 326 111 345 118.5 c 128,-1,16
 364 126 364 126 378 144.5 c 128,-1,17
 392 163 392 163 403.5 193.5 c 128,-1,18
 415 224 415 224 425 270 c 2,19,-1
 536 729 l 1,20,-1
 681 729 l 1,21,-1
 568 259 l 2,22,23
 553 194 553 194 533.5 143.5 c 128,-1,24
 514 93 514 93 482 57.5 c 128,-1,25
 450 22 450 22 401 3.5 c 128,-1,26
 352 -15 352 -15 279 -15 c 0,0,1
EndSplineSet
EndChar

StartChar: V
Encoding: 86 86 57
Width: 588
VWidth: 1177
Flags: W
LayerCount: 2
Fore
SplineSet
200 0 m 1,0,1
 191 68 191 68 184 150 c 128,-1,2
 177 232 177 232 171.5 318.5 c 128,-1,3
 166 405 166 405 163 493.5 c 128,-1,4
 160 582 160 582 160 663 c 0,5,6
 160 682 160 682 160 698.5 c 128,-1,7
 160 715 160 715 161 729 c 1,8,-1
 310 729 l 1,9,10
 308 674 308 674 306.5 602.5 c 128,-1,11
 305 531 305 531 305 455 c 0,12,13
 305 373 305 373 307 293.5 c 128,-1,14
 309 214 309 214 312 147 c 1,15,16
 344 208 344 208 381 286 c 128,-1,17
 418 364 418 364 454 443.5 c 128,-1,18
 490 523 490 523 522 598 c 128,-1,19
 554 673 554 673 576 729 c 1,20,-1
 727 729 l 1,21,22
 696 658 696 658 655.5 571 c 128,-1,23
 615 484 615 484 567 388 c 128,-1,24
 519 292 519 292 465 192.5 c 128,-1,25
 411 93 411 93 355 0 c 1,26,-1
 200 0 l 1,0,1
EndSplineSet
EndChar

StartChar: W
Encoding: 87 87 58
Width: 588
VWidth: 1177
Flags: W
LayerCount: 2
Fore
SplineSet
382 0 m 1,0,1
 380 25 380 25 375.5 65.5 c 128,-1,2
 371 106 371 106 367.5 152.5 c 128,-1,3
 364 199 364 199 360.5 248 c 128,-1,4
 357 297 357 297 356 339 c 1,5,-1
 180 0 l 1,6,-1
 46 0 l 1,7,8
 70 178 70 178 105.5 358.5 c 128,-1,9
 141 539 141 539 183 729 c 1,10,-1
 316 729 l 1,11,-1
 171 157 l 1,12,-1
 332 471 l 1,13,-1
 435 471 l 1,14,15
 437 393 437 393 443 313 c 128,-1,16
 449 233 449 233 455 163 c 1,17,-1
 585 729 l 1,18,-1
 717 729 l 1,19,20
 692 639 692 639 666.5 542.5 c 128,-1,21
 641 446 641 446 614 350 c 128,-1,22
 587 254 587 254 559.5 164.5 c 128,-1,23
 532 75 532 75 506 0 c 1,24,-1
 382 0 l 1,0,1
EndSplineSet
EndChar

StartChar: X
Encoding: 88 88 59
Width: 588
VWidth: 1177
Flags: W
LayerCount: 2
Fore
SplineSet
405 506 m 1,0,1
 444 557 444 557 486 614 c 128,-1,2
 528 671 528 671 565 729 c 1,3,-1
 718 729 l 1,4,5
 654 638 654 638 588.5 554.5 c 128,-1,6
 523 471 523 471 456 389 c 1,7,8
 475 338 475 338 492.5 282.5 c 128,-1,9
 510 227 510 227 523.5 174.5 c 128,-1,10
 537 122 537 122 546.5 77 c 128,-1,11
 556 32 556 32 559 0 c 1,12,-1
 416 0 l 1,13,14
 408 60 408 60 393 131.5 c 128,-1,15
 378 203 378 203 358 269 c 1,16,-1
 168 0 l 1,17,-1
 2 0 l 1,18,-1
 306 398 l 1,19,-1
 177 729 l 1,20,-1
 325 729 l 1,21,-1
 405 506 l 1,0,1
EndSplineSet
EndChar

StartChar: Y
Encoding: 89 89 60
Width: 588
VWidth: 1177
Flags: W
LayerCount: 2
Fore
SplineSet
366 400 m 1,0,1
 385 427 385 427 412 468 c 128,-1,2
 439 509 439 509 467.5 554.5 c 128,-1,3
 496 600 496 600 523.5 645.5 c 128,-1,4
 551 691 551 691 572 729 c 1,5,-1
 728 729 l 1,6,7
 691 669 691 669 655.5 612.5 c 128,-1,8
 620 556 620 556 582 500.5 c 128,-1,9
 544 445 544 445 502.5 390.5 c 128,-1,10
 461 336 461 336 413 278 c 1,11,-1
 346 0 l 1,12,-1
 201 0 l 1,13,-1
 267 277 l 1,14,15
 230 391 230 391 207 500 c 128,-1,16
 184 609 184 609 167 729 c 1,17,-1
 310 729 l 1,18,19
 317 644 317 644 332.5 558.5 c 128,-1,20
 348 473 348 473 366 400 c 1,0,1
EndSplineSet
EndChar

StartChar: Z
Encoding: 90 90 61
Width: 588
VWidth: 1177
Flags: W
LayerCount: 2
Fore
SplineSet
644 611 m 1,0,1
 576 534 576 534 518.5 468.5 c 128,-1,2
 461 403 461 403 410 343.5 c 128,-1,3
 359 284 359 284 313 228.5 c 128,-1,4
 267 173 267 173 224 119 c 1,5,-1
 541 119 l 1,6,-1
 511 0 l 1,7,-1
 33 0 l 1,8,-1
 57 95 l 1,9,10
 94 144 94 144 135.5 198.5 c 128,-1,11
 177 253 177 253 228 315 c 128,-1,12
 279 377 279 377 342 450 c 128,-1,13
 405 523 405 523 483 610 c 1,14,-1
 188 610 l 1,15,-1
 218 729 l 1,16,-1
 673 729 l 1,17,-1
 644 611 l 1,0,1
EndSplineSet
EndChar

StartChar: bracketleft
Encoding: 91 91 62
Width: 588
VWidth: 1177
Flags: W
LayerCount: 2
Fore
SplineSet
350 823 m 1,0,-1
 677 823 l 1,1,-1
 650 710 l 1,2,-1
 462 710 l 1,3,-1
 271 -81 l 1,4,-1
 459 -81 l 1,5,-1
 432 -194 l 1,6,-1
 105 -194 l 1,7,-1
 350 823 l 1,0,-1
EndSplineSet
Substitution2: "'case' Case-Sensitive Forms lookup 17 subtable" Bracketleft
EndChar

StartChar: backslash
Encoding: 92 92 63
Width: 588
VWidth: 1177
Flags: W
LayerCount: 2
Fore
SplineSet
243 823 m 1,0,-1
 380 823 l 1,1,-1
 476 -194 l 1,2,-1
 336 -194 l 1,3,-1
 243 823 l 1,0,-1
EndSplineSet
Substitution2: "'case' Case-Sensitive Forms lookup 17 subtable" Backslash
EndChar

StartChar: bracketright
Encoding: 93 93 64
Width: 588
VWidth: 1177
Flags: W
LayerCount: 2
Fore
SplineSet
345 -194 m 1,0,-1
 18 -194 l 1,1,-1
 45 -81 l 1,2,-1
 233 -81 l 1,3,-1
 424 710 l 1,4,-1
 236 710 l 1,5,-1
 263 823 l 1,6,-1
 590 823 l 1,7,-1
 345 -194 l 1,0,-1
EndSplineSet
Substitution2: "'case' Case-Sensitive Forms lookup 17 subtable" Bracketright
EndChar

StartChar: asciicircum
Encoding: 94 94 65
Width: 588
VWidth: 1177
Flags: W
LayerCount: 2
Fore
SplineSet
633 360 m 1,0,-1
 501 304 l 1,1,-1
 415 570 l 1,2,-1
 200 309 l 1,3,-1
 91 375 l 1,4,-1
 386 729 l 1,5,-1
 509 729 l 1,6,-1
 633 360 l 1,0,-1
EndSplineSet
EndChar

StartChar: underscore
Encoding: 95 95 66
Width: 588
VWidth: 1177
Flags: W
LayerCount: 2
Fore
SplineSet
-9 -68 m 1,0,-1
 517 -68 l 1,1,-1
 486 -194 l 1,2,-1
 -40 -194 l 1,3,-1
 -9 -68 l 1,0,-1
EndSplineSet
EndChar

StartChar: grave
Encoding: 96 96 67
Width: 588
VWidth: 1177
Flags: W
LayerCount: 2
Fore
SplineSet
352 814 m 1,0,-1
 538 675 l 1,1,-1
 485 596 l 1,2,-1
 280 703 l 1,3,-1
 352 814 l 1,0,-1
EndSplineSet
EndChar

StartChar: a
Encoding: 97 97 68
Width: 588
VWidth: 1177
Flags: W
LayerCount: 2
Fore
SplineSet
296 111 m 0,0,1
 329 111 329 111 351 125.5 c 128,-1,2
 373 140 373 140 390 160 c 1,3,4
 392 176 392 176 394.5 191.5 c 128,-1,5
 397 207 397 207 402 227 c 2,6,-1
 452 437 l 1,7,8
 439 441 439 441 425 442 c 128,-1,9
 411 443 411 443 398 443 c 0,10,11
 357 443 357 443 324 423.5 c 128,-1,12
 291 404 291 404 267.5 372 c 128,-1,13
 244 340 244 340 231.5 299 c 128,-1,14
 219 258 219 258 219 214 c 0,15,16
 219 183 219 183 224.5 163.5 c 128,-1,17
 230 144 230 144 240 132 c 128,-1,18
 250 120 250 120 264 115.5 c 128,-1,19
 278 111 278 111 296 111 c 0,0,1
243 -13 m 0,20,21
 165 -12 165 -12 120 43 c 128,-1,22
 75 98 75 98 75 203 c 0,23,24
 75 283 75 283 102.5 350 c 128,-1,25
 130 417 130 417 177 464.5 c 128,-1,26
 224 512 224 512 287 538.5 c 128,-1,27
 350 565 350 565 420 565 c 0,28,29
 468 565 468 565 518 556 c 128,-1,30
 568 547 568 547 618 527 c 1,31,-1
 545 226 l 2,32,33
 540 205 540 205 538 184.5 c 128,-1,34
 536 164 536 164 536 143 c 0,35,36
 536 109 536 109 542.5 76.5 c 128,-1,37
 549 44 549 44 559 12 c 1,38,-1
 432 -9 l 1,39,40
 430 -4 430 -4 426.5 2.5 c 128,-1,41
 423 9 423 9 419.5 17.5 c 128,-1,42
 416 26 416 26 413.5 32.5 c 128,-1,43
 411 39 411 39 410 42 c 1,44,45
 386 24 386 24 346.5 5.5 c 128,-1,46
 307 -13 307 -13 243 -13 c 0,20,21
EndSplineSet
Substitution2: "'case' Case-Sensitive Forms lookup 18 subtable" A
Substitution2: "'ordn' Ordinals in Latin lookup 7 subtable" ordfeminine
EndChar

StartChar: b
Encoding: 98 98 69
Width: 588
VWidth: 1177
Flags: W
LayerCount: 2
Fore
SplineSet
591 347 m 0,0,1
 591 267 591 267 566.5 200 c 128,-1,2
 542 133 542 133 497 85.5 c 128,-1,3
 452 38 452 38 389.5 11.5 c 128,-1,4
 327 -15 327 -15 252 -15 c 0,5,6
 205 -15 205 -15 148.5 -5.5 c 128,-1,7
 92 4 92 4 47 20 c 1,8,-1
 233 793 l 1,9,-1
 384 817 l 1,10,-1
 317 537 l 1,11,12
 342 550 342 550 369.5 557 c 128,-1,13
 397 564 397 564 423 564 c 0,14,15
 501 564 501 564 546 511.5 c 128,-1,16
 591 459 591 459 591 347 c 0,0,1
214 114 m 1,17,18
 227 112 227 112 241.5 111 c 128,-1,19
 256 110 256 110 269 110 c 0,20,21
 313 110 313 110 345.5 128.5 c 128,-1,22
 378 147 378 147 401 178.5 c 128,-1,23
 424 210 424 210 436 250.5 c 128,-1,24
 448 291 448 291 448 336 c 0,25,26
 448 397 448 397 427 420 c 128,-1,27
 406 443 406 443 372 443 c 0,28,29
 353 443 353 443 329 436 c 128,-1,30
 305 429 305 429 289 416 c 1,31,-1
 214 114 l 1,17,18
EndSplineSet
Substitution2: "'case' Case-Sensitive Forms lookup 18 subtable" B
EndChar

StartChar: c
Encoding: 99 99 70
Width: 588
VWidth: 1177
Flags: W
LayerCount: 2
Fore
SplineSet
91 214 m 0,0,1
 91 291 91 291 118 355.5 c 128,-1,2
 145 420 145 420 194 467 c 128,-1,3
 243 514 243 514 310 540.5 c 128,-1,4
 377 567 377 567 458 567 c 0,5,6
 490 567 490 567 514 564.5 c 128,-1,7
 538 562 538 562 558 558 c 128,-1,8
 578 554 578 554 594 548.5 c 128,-1,9
 610 543 610 543 625 536 c 1,10,-1
 574 420 l 1,11,12
 555 428 555 428 525.5 435 c 128,-1,13
 496 442 496 442 458 442 c 0,14,15
 410 442 410 442 370 427 c 128,-1,16
 330 412 330 412 300 384 c 128,-1,17
 270 356 270 356 253.5 314.5 c 128,-1,18
 237 273 237 273 237 220 c 0,19,20
 237 196 237 196 243 177 c 128,-1,21
 249 158 249 158 264.5 144 c 128,-1,22
 280 130 280 130 308 121.5 c 128,-1,23
 336 113 336 113 378 113 c 0,24,25
 424 113 424 113 463.5 122 c 128,-1,26
 503 131 503 131 523 140 c 1,27,-1
 537 25 l 1,28,29
 523 18 523 18 506.5 11 c 128,-1,30
 490 4 490 4 467.5 -1.5 c 128,-1,31
 445 -7 445 -7 415 -10 c 128,-1,32
 385 -13 385 -13 344 -13 c 0,33,34
 272 -13 272 -13 224 5.5 c 128,-1,35
 176 24 176 24 146.5 54.5 c 128,-1,36
 117 85 117 85 104 126.5 c 128,-1,37
 91 168 91 168 91 214 c 0,0,1
EndSplineSet
Substitution2: "'case' Case-Sensitive Forms lookup 18 subtable" C
EndChar

StartChar: d
Encoding: 100 100 71
Width: 588
VWidth: 1177
Flags: W
LayerCount: 2
Fore
SplineSet
296 111 m 0,0,1
 329 111 329 111 351 125.5 c 128,-1,2
 373 140 373 140 390 160 c 1,3,4
 392 176 392 176 394.5 191.5 c 128,-1,5
 397 207 397 207 402 227 c 2,6,-1
 452 437 l 1,7,8
 439 441 439 441 425 442 c 128,-1,9
 411 443 411 443 398 443 c 0,10,11
 357 443 357 443 324 423.5 c 128,-1,12
 291 404 291 404 267.5 372 c 128,-1,13
 244 340 244 340 231.5 299 c 128,-1,14
 219 258 219 258 219 214 c 0,15,16
 219 183 219 183 224.5 163.5 c 128,-1,17
 230 144 230 144 240 132 c 128,-1,18
 250 120 250 120 264 115.5 c 128,-1,19
 278 111 278 111 296 111 c 0,0,1
545 226 m 2,20,21
 540 205 540 205 538 184.5 c 128,-1,22
 536 164 536 164 536 143 c 0,23,24
 536 109 536 109 542.5 76.5 c 128,-1,25
 549 44 549 44 559 12 c 1,26,-1
 432 -9 l 1,27,28
 430 -4 430 -4 426.5 2.5 c 128,-1,29
 423 9 423 9 419.5 17.5 c 128,-1,30
 416 26 416 26 413.5 32.5 c 128,-1,31
 411 39 411 39 410 42 c 1,32,33
 386 24 386 24 346 5.5 c 128,-1,34
 306 -13 306 -13 243 -13 c 0,35,36
 165 -12 165 -12 120 43 c 128,-1,37
 75 98 75 98 75 203 c 0,38,39
 75 283 75 283 102.5 349.5 c 128,-1,40
 130 416 130 416 176.5 463 c 128,-1,41
 223 510 223 510 286 536 c 128,-1,42
 349 562 349 562 419 562 c 0,43,44
 451 562 451 562 481 554 c 1,45,-1
 537 793 l 1,46,-1
 688 817 l 1,47,-1
 545 226 l 2,20,21
EndSplineSet
Substitution2: "'case' Case-Sensitive Forms lookup 18 subtable" D
EndChar

StartChar: e
Encoding: 101 101 72
Width: 588
VWidth: 1177
Flags: W
LayerCount: 2
Fore
SplineSet
231 197 m 1,0,1
 231 176 231 176 238 158.5 c 128,-1,2
 245 141 245 141 261 129.5 c 128,-1,3
 277 118 277 118 303.5 111.5 c 128,-1,4
 330 105 330 105 370 105 c 0,5,6
 417 105 417 105 459.5 115 c 128,-1,7
 502 125 502 125 522 134 c 1,8,-1
 531 25 l 1,9,10
 503 11 503 11 452.5 -1.5 c 128,-1,11
 402 -14 402 -14 342 -14 c 0,12,13
 275 -14 275 -14 226.5 3 c 128,-1,14
 178 20 178 20 147.5 50.5 c 128,-1,15
 117 81 117 81 102.5 123 c 128,-1,16
 88 165 88 165 88 216 c 0,17,18
 88 284 88 284 111 348 c 128,-1,19
 134 412 134 412 178.5 460.5 c 128,-1,20
 223 509 223 509 286 538.5 c 128,-1,21
 349 568 349 568 430 568 c 256,22,23
 511 568 511 568 563 528 c 128,-1,24
 615 488 615 488 615 416 c 0,25,26
 615 356 615 356 585.5 314 c 128,-1,27
 556 272 556 272 504 246 c 128,-1,28
 452 220 452 220 382 208.5 c 128,-1,29
 312 197 312 197 231 197 c 1,0,1
403 452 m 0,30,31
 349 452 349 452 300 415 c 128,-1,32
 251 378 251 378 232 297 c 1,33,34
 306 297 306 297 354 306.5 c 128,-1,35
 402 316 402 316 429 330.5 c 128,-1,36
 456 345 456 345 466.5 362.5 c 128,-1,37
 477 380 477 380 477 396 c 0,38,39
 477 423 477 423 457.5 437.5 c 128,-1,40
 438 452 438 452 403 452 c 0,30,31
EndSplineSet
Substitution2: "'case' Case-Sensitive Forms lookup 18 subtable" E
EndChar

StartChar: f
Encoding: 102 102 73
Width: 588
VWidth: 1177
Flags: W
LayerCount: 2
Fore
SplineSet
327 31 m 2,0,1
 305 -80 305 -80 242.5 -139 c 128,-1,2
 180 -198 180 -198 77 -198 c 0,3,4
 42 -198 42 -198 12 -191.5 c 128,-1,5
 -18 -185 -18 -185 -41 -174 c 1,6,-1
 -1 -52 l 1,7,8
 14 -58 14 -58 32.5 -62 c 128,-1,9
 51 -66 51 -66 74 -66 c 0,10,11
 100 -66 100 -66 119 -57.5 c 128,-1,12
 138 -49 138 -49 150.5 -35.5 c 128,-1,13
 163 -22 163 -22 170.5 -4 c 128,-1,14
 178 14 178 14 181 35 c 2,15,-1
 261 433 l 1,16,-1
 143 433 l 1,17,-1
 172 554 l 1,18,-1
 286 554 l 1,19,-1
 292 585 l 2,20,21
 306 652 306 652 331.5 696.5 c 128,-1,22
 357 741 357 741 391.5 767.5 c 128,-1,23
 426 794 426 794 468.5 805 c 128,-1,24
 511 816 511 816 558 816 c 0,25,26
 596 816 596 816 630.5 810 c 128,-1,27
 665 804 665 804 696 790 c 1,28,-1
 645 673 l 1,29,30
 621 684 621 684 601 688.5 c 128,-1,31
 581 693 581 693 556 693 c 0,32,33
 535 693 535 693 516.5 690 c 128,-1,34
 498 687 498 687 483 675.5 c 128,-1,35
 468 664 468 664 456 643 c 128,-1,36
 444 622 444 622 437 585 c 2,37,-1
 431 554 l 1,38,-1
 631 554 l 1,39,-1
 602 433 l 1,40,-1
 408 433 l 1,41,-1
 327 31 l 2,0,1
EndSplineSet
Substitution2: "'case' Case-Sensitive Forms lookup 18 subtable" F
EndChar

StartChar: g
Encoding: 103 103 74
Width: 588
VWidth: 1177
Flags: W
LayerCount: 2
Fore
SplineSet
516 65 m 2,0,1
 500 -3 500 -3 475 -52.5 c 128,-1,2
 450 -102 450 -102 411.5 -134.5 c 128,-1,3
 373 -167 373 -167 320 -182.5 c 128,-1,4
 267 -198 267 -198 196 -198 c 0,5,6
 134 -198 134 -198 89.5 -187 c 128,-1,7
 45 -176 45 -176 1 -152 c 1,8,-1
 52 -38 l 1,9,10
 83 -51 83 -51 121 -62.5 c 128,-1,11
 159 -74 159 -74 210 -74 c 0,12,13
 281 -74 281 -74 316.5 -44 c 128,-1,14
 352 -14 352 -14 364 35 c 2,15,-1
 371 66 l 1,16,17
 345 53 345 53 318 45.5 c 128,-1,18
 291 38 291 38 266 38 c 0,19,20
 172 38 172 38 131 91 c 128,-1,21
 90 144 90 144 90 231 c 0,22,23
 90 311 90 311 118.5 373.5 c 128,-1,24
 147 436 147 436 195.5 478.5 c 128,-1,25
 244 521 244 521 305.5 543 c 128,-1,26
 367 565 367 565 433 565 c 0,27,28
 482 565 482 565 532.5 557.5 c 128,-1,29
 583 550 583 550 628 531 c 1,30,-1
 516 65 l 2,0,1
462 441 m 1,31,32
 434 448 434 448 408 448 c 0,33,34
 368 448 368 448 335.5 430.5 c 128,-1,35
 303 413 303 413 280 385 c 128,-1,36
 257 357 257 357 244 319.5 c 128,-1,37
 231 282 231 282 231 241 c 0,38,39
 231 206 231 206 246 180 c 128,-1,40
 261 154 261 154 309 154 c 0,41,42
 325 154 325 154 350.5 160.5 c 128,-1,43
 376 167 376 167 399 183 c 1,44,-1
 462 441 l 1,31,32
EndSplineSet
Substitution2: "'case' Case-Sensitive Forms lookup 18 subtable" G
EndChar

StartChar: h
Encoding: 104 104 75
Width: 588
VWidth: 1177
Flags: W
LayerCount: 2
Fore
SplineSet
329 551 m 1,0,1
 349 557 349 557 370 561 c 128,-1,2
 391 565 391 565 411 565 c 0,3,4
 498 565 498 565 541.5 523.5 c 128,-1,5
 585 482 585 482 585 405 c 0,6,7
 585 385 585 385 582.5 361.5 c 128,-1,8
 580 338 580 338 574 312 c 2,9,-1
 498 0 l 1,10,-1
 353 0 l 1,11,-1
 424 293 l 2,12,13
 428 312 428 312 432.5 332 c 128,-1,14
 437 352 437 352 437 372 c 0,15,16
 437 399 437 399 423 420 c 128,-1,17
 409 441 409 441 369 441 c 0,18,19
 354 441 354 441 335.5 438 c 128,-1,20
 317 435 317 435 300 428 c 1,21,-1
 197 0 l 1,22,-1
 52 0 l 1,23,-1
 241 793 l 1,24,-1
 392 817 l 1,25,-1
 329 551 l 1,0,1
EndSplineSet
Substitution2: "'case' Case-Sensitive Forms lookup 18 subtable" H
EndChar

StartChar: i
Encoding: 105 105 76
Width: 588
VWidth: 1177
Flags: W
LayerCount: 2
Fore
SplineSet
541 15 m 1,0,1
 497 -1 497 -1 458.5 -7 c 128,-1,2
 420 -13 420 -13 388 -13 c 0,3,4
 304 -13 304 -13 264 27.5 c 128,-1,5
 224 68 224 68 224 143 c 0,6,7
 224 182 224 182 237 233 c 2,8,-1
 284 433 l 1,9,-1
 131 433 l 1,10,-1
 160 554 l 1,11,-1
 458 554 l 1,12,-1
 378 216 l 2,13,14
 371 191 371 191 371 172 c 0,15,16
 371 113 371 113 431 113 c 0,17,18
 451 113 451 113 478 117 c 128,-1,19
 505 121 505 121 538 133 c 1,20,-1
 541 15 l 1,0,1
391 621 m 0,21,22
 353 621 353 621 330 641 c 128,-1,23
 307 661 307 661 307 703 c 0,24,25
 307 725 307 725 315.5 744.5 c 128,-1,26
 324 764 324 764 337.5 777 c 128,-1,27
 351 790 351 790 368.5 798 c 128,-1,28
 386 806 386 806 405 806 c 0,29,30
 439 806 439 806 464.5 786 c 128,-1,31
 490 766 490 766 490 721 c 0,32,33
 490 700 490 700 481 681 c 128,-1,34
 472 662 472 662 458 649 c 128,-1,35
 444 636 444 636 426.5 628.5 c 128,-1,36
 409 621 409 621 391 621 c 0,21,22
EndSplineSet
Substitution2: "'case' Case-Sensitive Forms lookup 18 subtable" I
Substitution2: "'locl' Localized Forms in Latin lookup 2 subtable" i.locl
Substitution2: "'locl' Localized Forms in Latin lookup 1 subtable" i.locl
Substitution2: "'locl' Localized Forms in Latin lookup 0 subtable" i.locl
EndChar

StartChar: j
Encoding: 106 106 77
Width: 588
VWidth: 1177
Flags: W
LayerCount: 2
Fore
SplineSet
432 29 m 2,0,1
 416 -38 416 -38 393 -82.5 c 128,-1,2
 370 -127 370 -127 339.5 -153 c 128,-1,3
 309 -179 309 -179 270 -189.5 c 128,-1,4
 231 -200 231 -200 183 -200 c 0,5,6
 123 -200 123 -200 73.5 -185.5 c 128,-1,7
 24 -171 24 -171 -7 -147 c 1,8,-1
 49 -31 l 1,9,10
 75 -47 75 -47 104.5 -60 c 128,-1,11
 134 -73 134 -73 172 -73 c 0,12,13
 217 -73 217 -73 245 -51 c 128,-1,14
 273 -29 273 -29 287 29 c 2,15,-1
 384 433 l 1,16,-1
 160 433 l 1,17,-1
 190 554 l 1,18,-1
 558 554 l 1,19,-1
 432 29 l 2,0,1
466 621 m 0,20,21
 428 621 428 621 405 641 c 128,-1,22
 382 661 382 661 382 703 c 0,23,24
 382 725 382 725 390 744.5 c 128,-1,25
 398 764 398 764 411.5 777 c 128,-1,26
 425 790 425 790 443 798 c 128,-1,27
 461 806 461 806 479 806 c 0,28,29
 514 806 514 806 539.5 786 c 128,-1,30
 565 766 565 766 565 721 c 0,31,32
 565 700 565 700 556.5 681 c 128,-1,33
 548 662 548 662 533.5 649 c 128,-1,34
 519 636 519 636 501.5 628.5 c 128,-1,35
 484 621 484 621 466 621 c 0,20,21
EndSplineSet
Substitution2: "'case' Case-Sensitive Forms lookup 18 subtable" J
EndChar

StartChar: k
Encoding: 107 107 78
Width: 588
VWidth: 1177
Flags: W
LayerCount: 2
Fore
SplineSet
668 554 m 1,0,1
 611 486 611 486 540.5 419 c 128,-1,2
 470 352 470 352 406 299 c 1,3,4
 427 273 427 273 449 236 c 128,-1,5
 471 199 471 199 492.5 158 c 128,-1,6
 514 117 514 117 531.5 75.5 c 128,-1,7
 549 34 549 34 561 0 c 1,8,-1
 404 0 l 1,9,10
 395 29 395 29 379.5 67 c 128,-1,11
 364 105 364 105 346.5 142.5 c 128,-1,12
 329 180 329 180 310 213 c 128,-1,13
 291 246 291 246 273 267 c 1,14,-1
 210 0 l 1,15,-1
 64 0 l 1,16,-1
 254 793 l 1,17,-1
 405 817 l 1,18,-1
 291 342 l 1,19,20
 312 360 312 360 340.5 385.5 c 128,-1,21
 369 411 369 411 398.5 440 c 128,-1,22
 428 469 428 469 455.5 499 c 128,-1,23
 483 529 483 529 503 554 c 1,24,-1
 668 554 l 1,0,1
EndSplineSet
Substitution2: "'case' Case-Sensitive Forms lookup 18 subtable" K
EndChar

StartChar: l
Encoding: 108 108 79
Width: 588
VWidth: 1177
Flags: W
LayerCount: 2
Fore
SplineSet
536 24 m 1,0,1
 531 22 531 22 517.5 15 c 128,-1,2
 504 8 504 8 481.5 2 c 128,-1,3
 459 -4 459 -4 429 -8.5 c 128,-1,4
 399 -13 399 -13 363 -13 c 0,5,6
 283 -13 283 -13 243 28 c 128,-1,7
 203 69 203 69 203 144 c 0,8,9
 203 164 203 164 205.5 185.5 c 128,-1,10
 208 207 208 207 214 231 c 2,11,-1
 324 690 l 1,12,-1
 171 690 l 1,13,-1
 199 810 l 1,14,-1
 497 810 l 1,15,-1
 358 221 l 2,16,17
 356 209 356 209 353 196 c 128,-1,18
 350 183 350 183 350 172 c 0,19,20
 350 148 350 148 363 130.5 c 128,-1,21
 376 113 376 113 416 113 c 0,22,23
 432 113 432 113 449 116 c 128,-1,24
 466 119 466 119 481.5 123.5 c 128,-1,25
 497 128 497 128 509 131.5 c 128,-1,26
 521 135 521 135 527 138 c 1,27,-1
 536 24 l 1,0,1
EndSplineSet
Substitution2: "'case' Case-Sensitive Forms lookup 18 subtable" L
EndChar

StartChar: m
Encoding: 109 109 80
Width: 588
VWidth: 1177
Flags: W
LayerCount: 2
Fore
SplineSet
152 529 m 1,0,1
 196 544 196 544 231.5 551.5 c 128,-1,2
 267 559 267 559 302 559 c 0,3,4
 333 559 333 559 359 550 c 128,-1,5
 385 541 385 541 402 518 c 1,6,7
 429 539 429 539 460 549 c 128,-1,8
 491 559 491 559 516 559 c 0,9,10
 563 559 563 559 593 530.5 c 128,-1,11
 623 502 623 502 623 441 c 0,12,13
 623 427 623 427 621.5 411 c 128,-1,14
 620 395 620 395 615 378 c 2,15,-1
 525 0 l 1,16,-1
 408 0 l 1,17,-1
 499 389 l 2,18,19
 501 397 501 397 502.5 406 c 128,-1,20
 504 415 504 415 504 419 c 0,21,22
 504 454 504 454 472 455 c 0,23,24
 460 455 460 455 449.5 449 c 128,-1,25
 439 443 439 443 430 435 c 1,26,27
 430 408 430 408 423 378 c 2,28,-1
 383 211 l 1,29,-1
 334 0 l 1,30,-1
 220 0 l 1,31,-1
 269 211 l 1,32,-1
 310 386 l 2,33,34
 312 393 312 393 314.5 402.5 c 128,-1,35
 317 412 317 412 317 422 c 0,36,37
 317 434 317 434 311 443.5 c 128,-1,38
 305 453 305 453 287 453 c 0,39,40
 267 453 267 453 250 448 c 1,41,-1
 143 0 l 1,42,-1
 25 0 l 1,43,-1
 152 529 l 1,0,1
EndSplineSet
Substitution2: "'case' Case-Sensitive Forms lookup 18 subtable" M
EndChar

StartChar: n
Encoding: 110 110 81
Width: 588
VWidth: 1177
Flags: W
LayerCount: 2
Fore
SplineSet
179 530 m 1,0,1
 216 542 216 542 274.5 553.5 c 128,-1,2
 333 565 333 565 400 565 c 0,3,4
 499 565 499 565 542 523 c 128,-1,5
 585 481 585 481 585 405 c 0,6,7
 585 385 585 385 582.5 361.5 c 128,-1,8
 580 338 580 338 574 312 c 2,9,-1
 497 0 l 1,10,-1
 352 0 l 1,11,-1
 424 293 l 2,12,13
 428 312 428 312 432.5 332 c 128,-1,14
 437 352 437 352 437 372 c 0,15,16
 437 399 437 399 422.5 420 c 128,-1,17
 408 441 408 441 369 441 c 0,18,19
 353 441 353 441 335 438 c 128,-1,20
 317 435 317 435 300 428 c 1,21,-1
 197 0 l 1,22,-1
 52 0 l 1,23,-1
 179 530 l 1,0,1
EndSplineSet
Substitution2: "'case' Case-Sensitive Forms lookup 18 subtable" N
EndChar

StartChar: o
Encoding: 111 111 82
Width: 588
VWidth: 1177
Flags: W
LayerCount: 2
Fore
SplineSet
302 111 m 0,0,1
 337 111 337 111 364 132 c 128,-1,2
 391 153 391 153 410.5 185 c 128,-1,3
 430 217 430 217 440 254 c 128,-1,4
 450 291 450 291 450 324 c 0,5,6
 450 379 450 379 434 411 c 128,-1,7
 418 443 418 443 369 443 c 0,8,9
 335 443 335 443 307 421.5 c 128,-1,10
 279 400 279 400 260 368.5 c 128,-1,11
 241 337 241 337 231 300 c 128,-1,12
 221 263 221 263 221 230 c 0,13,14
 221 175 221 175 237.5 143 c 128,-1,15
 254 111 254 111 302 111 c 0,0,1
272 -15 m 0,16,17
 173 -15 173 -15 125 41.5 c 128,-1,18
 77 98 77 98 77 192 c 0,19,20
 77 263 77 263 98 330 c 128,-1,21
 119 397 119 397 160 450 c 128,-1,22
 201 503 201 503 262.5 535.5 c 128,-1,23
 324 568 324 568 404 568 c 0,24,25
 490 568 490 568 542.5 515.5 c 128,-1,26
 595 463 595 463 595 359 c 0,27,28
 595 290 595 290 575 222.5 c 128,-1,29
 555 155 555 155 514 102 c 128,-1,30
 473 49 473 49 412.5 17 c 128,-1,31
 352 -15 352 -15 272 -15 c 0,16,17
EndSplineSet
Substitution2: "'case' Case-Sensitive Forms lookup 18 subtable" O
Substitution2: "'ordn' Ordinals in Latin lookup 7 subtable" ordmasculine
EndChar

StartChar: p
Encoding: 112 112 83
Width: 588
VWidth: 1177
Flags: W
LayerCount: 2
Fore
SplineSet
385 565 m 0,0,1
 495 565 495 565 545.5 509 c 128,-1,2
 596 453 596 453 596 365 c 0,3,4
 596 292 596 292 575 223.5 c 128,-1,5
 554 155 554 155 511 103 c 128,-1,6
 468 51 468 51 402 19.5 c 128,-1,7
 336 -12 336 -12 247 -12 c 0,8,9
 223 -12 223 -12 210.5 -10.5 c 128,-1,10
 198 -9 198 -9 188 -7 c 1,11,-1
 143 -194 l 1,12,-1
 -2 -194 l 1,13,-1
 172 528 l 1,14,15
 197 539 197 539 225 545.5 c 128,-1,16
 253 552 253 552 282 557 c 128,-1,17
 311 562 311 562 337.5 563.5 c 128,-1,18
 364 565 364 565 385 565 c 0,0,1
218 115 m 1,19,20
 224 113 224 113 231 113 c 128,-1,21
 238 113 238 113 246 113 c 0,22,23
 294 113 294 113 333 132.5 c 128,-1,24
 372 152 372 152 398.5 185 c 128,-1,25
 425 218 425 218 439 262 c 128,-1,26
 453 306 453 306 453 355 c 0,27,28
 453 373 453 373 449.5 389 c 128,-1,29
 446 405 446 405 437 418 c 128,-1,30
 428 431 428 431 410 438.5 c 128,-1,31
 392 446 392 446 364 446 c 0,32,33
 340 446 340 446 324.5 444 c 128,-1,34
 309 442 309 442 296 438 c 1,35,-1
 218 115 l 1,19,20
EndSplineSet
Substitution2: "'case' Case-Sensitive Forms lookup 18 subtable" P
EndChar

StartChar: q
Encoding: 113 113 84
Width: 588
VWidth: 1177
Flags: W
LayerCount: 2
Fore
SplineSet
85 203 m 0,0,1
 85 284 85 284 112 350.5 c 128,-1,2
 139 417 139 417 186 464.5 c 128,-1,3
 233 512 233 512 296 538.5 c 128,-1,4
 359 565 359 565 430 565 c 0,5,6
 478 565 478 565 527.5 556 c 128,-1,7
 577 547 577 547 628 527 c 1,8,-1
 455 -194 l 1,9,-1
 310 -194 l 1,10,-1
 359 15 l 1,11,12
 307 -11 307 -11 252 -11 c 0,13,14
 175 -11 175 -11 130 43.5 c 128,-1,15
 85 98 85 98 85 203 c 0,0,1
462 437 m 1,16,17
 449 441 449 441 434.5 442 c 128,-1,18
 420 443 420 443 408 443 c 0,19,20
 367 443 367 443 333.5 423.5 c 128,-1,21
 300 404 300 404 276.5 372 c 128,-1,22
 253 340 253 340 241 299 c 128,-1,23
 229 258 229 258 229 214 c 0,24,25
 229 183 229 183 234 163.5 c 128,-1,26
 239 144 239 144 249 132 c 128,-1,27
 259 120 259 120 273 115.5 c 128,-1,28
 287 111 287 111 305 111 c 0,29,30
 324 111 324 111 348 118.5 c 128,-1,31
 372 126 372 126 389 139 c 1,32,-1
 462 437 l 1,16,17
EndSplineSet
Substitution2: "'case' Case-Sensitive Forms lookup 18 subtable" Q
EndChar

StartChar: r
Encoding: 114 114 85
Width: 588
VWidth: 1177
Flags: W
LayerCount: 2
Fore
SplineSet
575 410 m 1,0,1
 553 418 553 418 522 423 c 128,-1,2
 491 428 491 428 446 428 c 0,3,4
 415 428 415 428 383 423.5 c 128,-1,5
 351 419 351 419 324 410 c 1,6,-1
 226 0 l 1,7,-1
 81 0 l 1,8,-1
 205 517 l 1,9,10
 260 539 260 539 324.5 551.5 c 128,-1,11
 389 564 389 564 445 564 c 0,12,13
 511 564 511 564 553 558 c 128,-1,14
 595 552 595 552 630 543 c 1,15,-1
 575 410 l 1,0,1
EndSplineSet
Substitution2: "'case' Case-Sensitive Forms lookup 18 subtable" R
EndChar

StartChar: s
Encoding: 115 115 86
Width: 588
VWidth: 1177
Flags: W
LayerCount: 2
Fore
SplineSet
276 107 m 0,0,1
 338 107 338 107 361.5 123.5 c 128,-1,2
 385 140 385 140 385 163 c 0,3,4
 385 174 385 174 381 182 c 128,-1,5
 377 190 377 190 367 197.5 c 128,-1,6
 357 205 357 205 339.5 212.5 c 128,-1,7
 322 220 322 220 294 231 c 0,8,9
 261 243 261 243 236.5 256 c 128,-1,10
 212 269 212 269 195.5 286 c 128,-1,11
 179 303 179 303 171 325 c 128,-1,12
 163 347 163 347 163 378 c 0,13,14
 163 464 163 464 223.5 516 c 128,-1,15
 284 568 284 568 405 568 c 0,16,17
 465 568 465 568 515 557.5 c 128,-1,18
 565 547 565 547 595 532 c 1,19,-1
 542 418 l 1,20,21
 515 431 515 431 480 439.5 c 128,-1,22
 445 448 445 448 392 448 c 0,23,24
 380 448 380 448 365.5 446 c 128,-1,25
 351 444 351 444 338 438 c 128,-1,26
 325 432 325 432 316 422 c 128,-1,27
 307 412 307 412 307 397 c 0,28,29
 307 386 307 386 310 378.5 c 128,-1,30
 313 371 313 371 322.5 363.5 c 128,-1,31
 332 356 332 356 349.5 347.5 c 128,-1,32
 367 339 367 339 397 329 c 0,33,34
 432 315 432 315 457.5 300.5 c 128,-1,35
 483 286 483 286 500 268.5 c 128,-1,36
 517 251 517 251 524.5 227.5 c 128,-1,37
 532 204 532 204 532 171 c 0,38,39
 532 137 532 137 518 104 c 128,-1,40
 504 71 504 71 474 44.5 c 128,-1,41
 444 18 444 18 395.5 1.5 c 128,-1,42
 347 -15 347 -15 280 -15 c 0,43,44
 232 -15 232 -15 195.5 -9.5 c 128,-1,45
 159 -4 159 -4 132 4.5 c 128,-1,46
 105 13 105 13 86.5 22 c 128,-1,47
 68 31 68 31 58 37 c 1,48,-1
 112 151 l 1,49,50
 136 138 136 138 177 122.5 c 128,-1,51
 218 107 218 107 276 107 c 0,0,1
EndSplineSet
Substitution2: "'case' Case-Sensitive Forms lookup 18 subtable" S
EndChar

StartChar: t
Encoding: 116 116 87
Width: 588
VWidth: 1177
Flags: W
LayerCount: 2
Fore
SplineSet
240 433 m 1,0,-1
 130 433 l 1,1,-1
 159 554 l 1,2,-1
 269 554 l 1,3,-1
 302 693 l 1,4,-1
 453 716 l 1,5,-1
 413 554 l 1,6,-1
 624 554 l 1,7,-1
 595 433 l 1,8,-1
 385 433 l 1,9,-1
 333 218 l 2,10,11
 327 189 327 189 327 172 c 0,12,13
 327 137 327 137 351.5 125 c 128,-1,14
 376 113 376 113 406 113 c 0,15,16
 438 113 438 113 471.5 120.5 c 128,-1,17
 505 128 505 128 537 141 c 1,18,-1
 536 20 l 1,19,20
 499 4 499 4 455 -4.5 c 128,-1,21
 411 -13 411 -13 367 -13 c 0,22,23
 273 -13 273 -13 226.5 27.5 c 128,-1,24
 180 68 180 68 180 146 c 0,25,26
 180 165 180 165 182.5 184.5 c 128,-1,27
 185 204 185 204 191 226 c 2,28,-1
 240 433 l 1,0,-1
EndSplineSet
Substitution2: "'case' Case-Sensitive Forms lookup 18 subtable" T
EndChar

StartChar: u
Encoding: 117 117 88
Width: 588
VWidth: 1177
Flags: W
LayerCount: 2
Fore
SplineSet
260 -13 m 0,0,1
 165 -13 165 -13 127.5 32 c 128,-1,2
 90 77 90 77 90 154 c 0,3,4
 90 208 90 208 106 280 c 2,5,-1
 172 554 l 1,6,-1
 317 554 l 1,7,-1
 254 290 l 2,8,9
 245 255 245 255 240.5 226 c 128,-1,10
 236 197 236 197 236 174 c 0,11,12
 236 113 236 113 294 113 c 0,13,14
 327 113 327 113 346.5 126.5 c 128,-1,15
 366 140 366 140 384 160 c 1,16,17
 386 176 386 176 388 191.5 c 128,-1,18
 390 207 390 207 396 227 c 2,19,-1
 473 554 l 1,20,-1
 618 554 l 1,21,-1
 539 226 l 2,22,23
 534 205 534 205 531.5 184.5 c 128,-1,24
 529 164 529 164 529 143 c 0,25,26
 529 109 529 109 536 76.5 c 128,-1,27
 543 44 543 44 554 12 c 1,28,-1
 426 -9 l 1,29,30
 424 -4 424 -4 420.5 2.5 c 128,-1,31
 417 9 417 9 413.5 17.5 c 128,-1,32
 410 26 410 26 407.5 32.5 c 128,-1,33
 405 39 405 39 404 42 c 1,34,35
 380 24 380 24 342.5 5.5 c 128,-1,36
 305 -13 305 -13 260 -13 c 0,0,1
EndSplineSet
Substitution2: "'case' Case-Sensitive Forms lookup 18 subtable" U
EndChar

StartChar: v
Encoding: 118 118 89
Width: 588
VWidth: 1177
Flags: W
LayerCount: 2
Fore
SplineSet
205 0 m 1,0,1
 178 107 178 107 156 246.5 c 128,-1,2
 134 386 134 386 125 554 c 1,3,-1
 276 554 l 1,4,5
 277 512 277 512 279.5 461 c 128,-1,6
 282 410 282 410 286 358.5 c 128,-1,7
 290 307 290 307 295 256.5 c 128,-1,8
 300 206 300 206 306 164 c 1,9,10
 331 199 331 199 359.5 248 c 128,-1,11
 388 297 388 297 414.5 350.5 c 128,-1,12
 441 404 441 404 463 457 c 128,-1,13
 485 510 485 510 498 554 c 1,14,-1
 654 554 l 1,15,16
 626 479 626 479 587 399 c 128,-1,17
 548 319 548 319 505 245.5 c 128,-1,18
 462 172 462 172 417.5 108.5 c 128,-1,19
 373 45 373 45 336 0 c 1,20,-1
 205 0 l 1,0,1
EndSplineSet
Substitution2: "'case' Case-Sensitive Forms lookup 18 subtable" V
EndChar

StartChar: w
Encoding: 119 119 90
Width: 588
VWidth: 1177
Flags: W
LayerCount: 2
Fore
SplineSet
362 0 m 1,0,1
 356 62 356 62 351.5 126.5 c 128,-1,2
 347 191 347 191 343 273 c 1,3,4
 322 229 322 229 304 194.5 c 128,-1,5
 286 160 286 160 268 129.5 c 128,-1,6
 250 99 250 99 230.5 68 c 128,-1,7
 211 37 211 37 187 0 c 1,8,-1
 75 0 l 1,9,10
 75 52 75 52 77.5 115 c 128,-1,11
 80 178 80 178 85.5 249 c 128,-1,12
 91 320 91 320 99 396.5 c 128,-1,13
 107 473 107 473 120 554 c 1,14,-1
 246 554 l 1,15,16
 226 452 226 452 208.5 353 c 128,-1,17
 191 254 191 254 178 145 c 1,18,19
 205 192 205 192 226 232 c 128,-1,20
 247 272 247 272 265 307.5 c 128,-1,21
 283 343 283 343 298 375.5 c 128,-1,22
 313 408 313 408 329 442 c 1,23,-1
 424 442 l 1,24,25
 426 376 426 376 429 307.5 c 128,-1,26
 432 239 432 239 437 145 c 1,27,28
 456 202 456 202 472 252.5 c 128,-1,29
 488 303 488 303 501.5 352.5 c 128,-1,30
 515 402 515 402 528 451.5 c 128,-1,31
 541 501 541 501 554 554 c 1,32,-1
 681 554 l 1,33,34
 629 393 629 393 578 250 c 128,-1,35
 527 107 527 107 470 0 c 1,36,-1
 362 0 l 1,0,1
EndSplineSet
Substitution2: "'case' Case-Sensitive Forms lookup 18 subtable" W
EndChar

StartChar: x
Encoding: 120 120 91
Width: 588
VWidth: 1177
Flags: W
LayerCount: 2
Fore
SplineSet
280 554 m 1,0,-1
 362 377 l 1,1,2
 397 419 397 419 431 464.5 c 128,-1,3
 465 510 465 510 495 554 c 1,4,-1
 648 554 l 1,5,6
 603 490 603 490 550 422.5 c 128,-1,7
 497 355 497 355 428 280 c 1,8,9
 469 202 469 202 499 136.5 c 128,-1,10
 529 71 529 71 552 0 c 1,11,-1
 404 0 l 1,12,13
 385 49 385 49 364.5 96 c 128,-1,14
 344 143 344 143 326 179 c 1,15,-1
 171 0 l 1,16,-1
 12 0 l 1,17,-1
 263 282 l 1,18,-1
 128 554 l 1,19,-1
 280 554 l 1,0,-1
EndSplineSet
Substitution2: "'case' Case-Sensitive Forms lookup 18 subtable" X
EndChar

StartChar: y
Encoding: 121 121 92
Width: 588
VWidth: 1177
Flags: W
LayerCount: 2
Fore
SplineSet
647 554 m 1,0,1
 616 473 616 473 586.5 403 c 128,-1,2
 557 333 557 333 526 270.5 c 128,-1,3
 495 208 495 208 460.5 151 c 128,-1,4
 426 94 426 94 388 39 c 0,5,6
 359 -3 359 -3 325 -45 c 128,-1,7
 291 -87 291 -87 251.5 -121 c 128,-1,8
 212 -155 212 -155 165 -176.5 c 128,-1,9
 118 -198 118 -198 62 -198 c 0,10,11
 -11 -198 -11 -198 -51 -173 c 1,12,-1
 -5 -58 l 1,13,14
 14 -66 14 -66 30.5 -70 c 128,-1,15
 47 -74 47 -74 73 -74 c 0,16,17
 159 -74 159 -74 216 11 c 1,18,19
 188 124 188 124 164.5 256.5 c 128,-1,20
 141 389 141 389 133 554 c 1,21,-1
 284 554 l 1,22,23
 285 512 285 512 288 461 c 128,-1,24
 291 410 291 410 295.5 358 c 128,-1,25
 300 306 300 306 306.5 255.5 c 128,-1,26
 313 205 313 205 322 164 c 1,27,28
 376 246 376 246 417 342 c 128,-1,29
 458 438 458 438 492 554 c 1,30,-1
 647 554 l 1,0,1
EndSplineSet
Substitution2: "'case' Case-Sensitive Forms lookup 18 subtable" Y
EndChar

StartChar: z
Encoding: 122 122 93
Width: 588
VWidth: 1177
Flags: W
LayerCount: 2
Fore
SplineSet
600 448 m 1,0,1
 576 428 576 428 537.5 392 c 128,-1,2
 499 356 499 356 453.5 311.5 c 128,-1,3
 408 267 408 267 358.5 217.5 c 128,-1,4
 309 168 309 168 264 120 c 1,5,-1
 529 120 l 1,6,-1
 499 0 l 1,7,-1
 58 0 l 1,8,-1
 82 95 l 1,9,10
 114 133 114 133 155 177 c 128,-1,11
 196 221 196 221 240 266.5 c 128,-1,12
 284 312 284 312 327.5 355 c 128,-1,13
 371 398 371 398 409 433 c 1,14,-1
 170 433 l 1,15,-1
 199 554 l 1,16,-1
 624 554 l 1,17,-1
 600 448 l 1,0,1
EndSplineSet
Substitution2: "'case' Case-Sensitive Forms lookup 18 subtable" Z
EndChar

StartChar: braceleft
Encoding: 123 123 94
Width: 588
VWidth: 1177
Flags: W
LayerCount: 2
Fore
SplineSet
291 314 m 1,0,1
 331 296 331 296 345 266 c 128,-1,2
 359 236 359 236 359 200 c 0,3,4
 359 184 359 184 357.5 167 c 128,-1,5
 356 150 356 150 351 133 c 2,6,-1
 325 16 l 2,7,8
 323 4 323 4 320 -10 c 128,-1,9
 317 -24 317 -24 317 -35 c 0,10,11
 317 -55 317 -55 328.5 -68 c 128,-1,12
 340 -81 340 -81 371 -81 c 2,13,-1
 477 -81 l 1,14,-1
 450 -194 l 1,15,-1
 340 -194 l 2,16,17
 306 -194 306 -194 277.5 -187 c 128,-1,18
 249 -180 249 -180 227.5 -164 c 128,-1,19
 206 -148 206 -148 193.5 -121.5 c 128,-1,20
 181 -95 181 -95 181 -58 c 0,21,22
 181 -27 181 -27 192 15 c 2,23,-1
 221 144 l 2,24,25
 225 158 225 158 228 172 c 128,-1,26
 231 186 231 186 231 200 c 0,27,28
 231 224 231 224 218.5 241 c 128,-1,29
 206 258 206 258 172 258 c 2,30,-1
 117 258 l 1,31,-1
 144 371 l 1,32,-1
 201 371 l 2,33,34
 238 371 238 371 264 396.5 c 128,-1,35
 290 422 290 422 300 470 c 2,36,-1
 342 644 l 2,37,38
 353 688 353 688 367.5 721.5 c 128,-1,39
 382 755 382 755 406 777.5 c 128,-1,40
 430 800 430 800 466.5 811.5 c 128,-1,41
 503 823 503 823 556 823 c 2,42,-1
 682 823 l 1,43,-1
 654 710 l 1,44,-1
 565 710 l 2,45,46
 540 710 540 710 524.5 705 c 128,-1,47
 509 700 509 700 498.5 688.5 c 128,-1,48
 488 677 488 677 480.5 659 c 128,-1,49
 473 641 473 641 468 616 c 2,50,-1
 432 466 l 2,51,52
 416 400 416 400 384.5 363 c 128,-1,53
 353 326 353 326 291 314 c 1,0,1
EndSplineSet
Substitution2: "'case' Case-Sensitive Forms lookup 17 subtable" Braceleft
EndChar

StartChar: bar
Encoding: 124 124 95
Width: 588
VWidth: 1177
Flags: W
LayerCount: 2
Fore
SplineSet
392 823 m 1,0,-1
 537 823 l 1,1,-1
 293 -194 l 1,2,-1
 147 -194 l 1,3,-1
 392 823 l 1,0,-1
EndSplineSet
EndChar

StartChar: braceright
Encoding: 125 125 96
Width: 588
VWidth: 1177
Flags: W
LayerCount: 2
Fore
SplineSet
395 314 m 1,0,1
 355 332 355 332 340.5 362.5 c 128,-1,2
 326 393 326 393 326 429 c 0,3,4
 326 445 326 445 328.5 462 c 128,-1,5
 331 479 331 479 335 496 c 2,6,-1
 360 612 l 2,7,8
 362 624 362 624 365.5 638.5 c 128,-1,9
 369 653 369 653 369 664 c 0,10,11
 369 684 369 684 357.5 697 c 128,-1,12
 346 710 346 710 314 710 c 2,13,-1
 208 710 l 1,14,-1
 236 823 l 1,15,-1
 345 823 l 2,16,17
 379 823 379 823 408.5 816 c 128,-1,18
 438 809 438 809 459.5 793 c 128,-1,19
 481 777 481 777 492.5 750.5 c 128,-1,20
 504 724 504 724 504 687 c 0,21,22
 504 671 504 671 501.5 653 c 128,-1,23
 499 635 499 635 495 615 c 2,24,-1
 464 485 l 2,25,26
 460 471 460 471 458 457 c 128,-1,27
 456 443 456 443 456 429 c 0,28,29
 456 405 456 405 467.5 388 c 128,-1,30
 479 371 479 371 514 371 c 2,31,-1
 569 371 l 1,32,-1
 542 258 l 1,33,-1
 485 258 l 2,34,35
 448 258 448 258 422 232.5 c 128,-1,36
 396 207 396 207 385 159 c 2,37,-1
 344 -15 l 2,38,39
 333 -59 333 -59 318.5 -92.5 c 128,-1,40
 304 -126 304 -126 280 -148.5 c 128,-1,41
 256 -171 256 -171 219.5 -182.5 c 128,-1,42
 183 -194 183 -194 130 -194 c 2,43,-1
 5 -194 l 1,44,-1
 32 -81 l 1,45,-1
 121 -81 l 2,46,47
 146 -81 146 -81 161.5 -76 c 128,-1,48
 177 -71 177 -71 187.5 -59.5 c 128,-1,49
 198 -48 198 -48 205 -30 c 128,-1,50
 212 -12 212 -12 218 13 c 2,51,-1
 253 163 l 2,52,53
 269 229 269 229 301 265.5 c 128,-1,54
 333 302 333 302 395 314 c 1,0,1
EndSplineSet
Substitution2: "'case' Case-Sensitive Forms lookup 17 subtable" Braceright
EndChar

StartChar: asciitilde
Encoding: 126 126 97
Width: 588
VWidth: 1177
Flags: W
LayerCount: 2
Fore
SplineSet
624 386 m 1,0,1
 610 348 610 348 591 315 c 128,-1,2
 572 282 572 282 548 257 c 128,-1,3
 524 232 524 232 493.5 217.5 c 128,-1,4
 463 203 463 203 425 203 c 256,5,6
 387 203 387 203 361 218 c 128,-1,7
 335 233 335 233 312 250 c 0,8,9
 294 262 294 262 275.5 272.5 c 128,-1,10
 257 283 257 283 237 283 c 0,11,12
 225 283 225 283 215.5 280.5 c 128,-1,13
 206 278 206 278 197 270.5 c 128,-1,14
 188 263 188 263 178 247.5 c 128,-1,15
 168 232 168 232 157 206 c 1,16,-1
 59 236 l 1,17,18
 71 271 71 271 89 304.5 c 128,-1,19
 107 338 107 338 132 363.5 c 128,-1,20
 157 389 157 389 188 404 c 128,-1,21
 219 419 219 419 257 419 c 256,22,23
 295 419 295 419 321 404.5 c 128,-1,24
 347 390 347 390 371 373 c 0,25,26
 387 361 387 361 406.5 350 c 128,-1,27
 426 339 426 339 445 339 c 0,28,29
 457 339 457 339 466.5 341.5 c 128,-1,30
 476 344 476 344 485 352 c 128,-1,31
 494 360 494 360 503 375.5 c 128,-1,32
 512 391 512 391 525 417 c 1,33,-1
 624 386 l 1,0,1
EndSplineSet
EndChar

StartChar: Euro
Encoding: 8364 8364 98
Width: 588
VWidth: 1177
Flags: W
LayerCount: 2
Fore
SplineSet
304 233 m 1,0,1
 310 160 310 160 344.5 133.5 c 128,-1,2
 379 107 379 107 433 107 c 0,3,4
 464 107 464 107 501 113.5 c 128,-1,5
 538 120 538 120 570 132 c 1,6,-1
 576 16 l 1,7,8
 538 1 538 1 492 -7 c 128,-1,9
 446 -15 446 -15 405 -15 c 0,10,11
 357 -15 357 -15 313.5 -1.5 c 128,-1,12
 270 12 270 12 237 41.5 c 128,-1,13
 204 71 204 71 184 118.5 c 128,-1,14
 164 166 164 166 163 233 c 1,15,-1
 74 233 l 1,16,-1
 98 330 l 1,17,-1
 166 330 l 1,18,19
 168 352 168 352 172.5 371 c 128,-1,20
 177 390 177 390 181 409 c 1,21,-1
 114 409 l 1,22,-1
 138 505 l 1,23,-1
 211 505 l 1,24,25
 235 559 235 559 266.5 604 c 128,-1,26
 298 649 298 649 341.5 680 c 128,-1,27
 385 711 385 711 442 728.5 c 128,-1,28
 499 746 499 746 575 746 c 0,29,30
 642 746 642 746 713 722 c 1,31,-1
 661 608 l 1,32,33
 637 617 637 617 608.5 621 c 128,-1,34
 580 625 580 625 556 625 c 0,35,36
 479 625 479 625 432.5 593.5 c 128,-1,37
 386 562 386 562 355 505 c 1,38,-1
 604 505 l 1,39,-1
 565 409 l 1,40,-1
 323 409 l 1,41,42
 317 393 317 393 313.5 372 c 128,-1,43
 310 351 310 351 307 330 c 1,44,-1
 531 330 l 1,45,-1
 491 233 l 1,46,-1
 304 233 l 1,0,1
EndSplineSet
EndChar

StartChar: quotesinglbase
Encoding: 8218 8218 99
Width: 588
VWidth: 1177
Flags: W
LayerCount: 2
Fore
SplineSet
113 -85 m 1,0,1
 138 -84 138 -84 162.5 -78.5 c 128,-1,2
 187 -73 187 -73 209 -63 c 128,-1,3
 231 -53 231 -53 247 -40 c 128,-1,4
 263 -27 263 -27 269 -9 c 1,5,6
 234 -4 234 -4 213 18.5 c 128,-1,7
 192 41 192 41 192 79 c 0,8,9
 192 130 192 130 225 163.5 c 128,-1,10
 258 197 258 197 307 197 c 0,11,12
 353 197 353 197 376 169 c 128,-1,13
 399 141 399 141 399 104 c 0,14,15
 399 52 399 52 382.5 3.5 c 128,-1,16
 366 -45 366 -45 332 -83.5 c 128,-1,17
 298 -122 298 -122 245.5 -147.5 c 128,-1,18
 193 -173 193 -173 122 -178 c 1,19,-1
 113 -85 l 1,0,1
EndSplineSet
EndChar

StartChar: quotedblbase
Encoding: 8222 8222 101
Width: 588
VWidth: 1177
Flags: W
LayerCount: 2
Fore
SplineSet
283 -91 m 1,0,1
 304 -90 304 -90 325.5 -84.5 c 128,-1,2
 347 -79 347 -79 365.5 -71.5 c 128,-1,3
 384 -64 384 -64 397 -52 c 128,-1,4
 410 -40 410 -40 416 -26 c 1,5,6
 385 -22 385 -22 367 -1 c 128,-1,7
 349 20 349 20 349 52 c 0,8,9
 349 96 349 96 377.5 125 c 128,-1,10
 406 154 406 154 449 154 c 0,11,12
 490 154 490 154 509.5 125.5 c 128,-1,13
 529 97 529 97 529 54 c 0,14,15
 529 14 529 14 515 -23.5 c 128,-1,16
 501 -61 501 -61 472 -92.5 c 128,-1,17
 443 -124 443 -124 397.5 -144 c 128,-1,18
 352 -164 352 -164 291 -168 c 1,19,-1
 283 -91 l 1,0,1
8 -91 m 1,20,21
 29 -90 29 -90 50.5 -84.5 c 128,-1,22
 72 -79 72 -79 90 -71.5 c 128,-1,23
 108 -64 108 -64 121.5 -52 c 128,-1,24
 135 -40 135 -40 140 -26 c 1,25,26
 109 -22 109 -22 91.5 -1 c 128,-1,27
 74 20 74 20 74 52 c 0,28,29
 74 96 74 96 103 125 c 128,-1,30
 132 154 132 154 174 154 c 0,31,32
 215 154 215 154 234 125.5 c 128,-1,33
 253 97 253 97 253 54 c 0,34,35
 253 14 253 14 239.5 -23.5 c 128,-1,36
 226 -61 226 -61 196.5 -92.5 c 128,-1,37
 167 -124 167 -124 122.5 -144 c 128,-1,38
 78 -164 78 -164 16 -168 c 1,39,-1
 8 -91 l 1,20,21
EndSplineSet
EndChar

StartChar: ellipsis
Encoding: 8230 8230 102
Width: 588
VWidth: 1177
Flags: W
LayerCount: 2
Fore
SplineSet
105 139 m 0,0,1
 133 139 133 139 150.5 122.5 c 128,-1,2
 168 106 168 106 168 74 c 0,3,4
 168 33 168 33 146 9.5 c 128,-1,5
 124 -14 124 -14 93 -14 c 0,6,7
 64 -14 64 -14 46.5 2.5 c 128,-1,8
 29 19 29 19 29 52 c 0,9,10
 29 92 29 92 51.5 115.5 c 128,-1,11
 74 139 74 139 105 139 c 0,0,1
300 139 m 0,12,13
 329 139 329 139 346.5 122.5 c 128,-1,14
 364 106 364 106 364 74 c 0,15,16
 364 33 364 33 341.5 9.5 c 128,-1,17
 319 -14 319 -14 289 -14 c 0,18,19
 261 -14 261 -14 243 2.5 c 128,-1,20
 225 19 225 19 225 52 c 0,21,22
 225 92 225 92 247 115.5 c 128,-1,23
 269 139 269 139 300 139 c 0,12,13
496 139 m 0,24,25
 524 139 524 139 541 122.5 c 128,-1,26
 558 106 558 106 558 74 c 0,27,28
 558 33 558 33 536 9.5 c 128,-1,29
 514 -14 514 -14 483 -14 c 0,30,31
 455 -14 455 -14 437 2.5 c 128,-1,32
 419 19 419 19 419 52 c 0,33,34
 419 92 419 92 442 115.5 c 128,-1,35
 465 139 465 139 496 139 c 0,24,25
EndSplineSet
EndChar

StartChar: dagger
Encoding: 8224 8224 103
Width: 588
VWidth: 1177
Flags: W
LayerCount: 2
Fore
SplineSet
180 516 m 1,0,-1
 330 516 l 1,1,-1
 380 729 l 1,2,-1
 510 729 l 1,3,-1
 459 516 l 1,4,-1
 609 516 l 1,5,-1
 580 396 l 1,6,-1
 430 396 l 1,7,-1
 372 155 l 2,8,9
 352 70 352 70 329.5 -2.5 c 128,-1,10
 307 -75 307 -75 278 -152 c 1,11,-1
 191 -152 l 1,12,13
 199 -75 199 -75 211 -2 c 128,-1,14
 223 71 223 71 243 155 c 2,15,-1
 300 396 l 1,16,-1
 151 396 l 1,17,-1
 180 516 l 1,0,-1
EndSplineSet
EndChar

StartChar: daggerdbl
Encoding: 8225 8225 104
Width: 588
VWidth: 1177
Flags: W
LayerCount: 2
Fore
SplineSet
363 115 m 1,0,1
 344 42 344 42 324 -20 c 128,-1,2
 304 -82 304 -82 278 -152 c 1,3,-1
 191 -152 l 1,4,5
 197 -85 197 -85 207 -21.5 c 128,-1,6
 217 42 217 42 233 115 c 1,7,-1
 85 115 l 1,8,-1
 114 237 l 1,9,-1
 263 237 l 1,10,-1
 300 396 l 1,11,-1
 152 396 l 1,12,-1
 181 516 l 1,13,-1
 330 516 l 1,14,-1
 380 729 l 1,15,-1
 510 729 l 1,16,-1
 459 516 l 1,17,-1
 608 516 l 1,18,-1
 578 396 l 1,19,-1
 430 396 l 1,20,-1
 392 237 l 1,21,-1
 541 237 l 1,22,-1
 511 115 l 1,23,-1
 363 115 l 1,0,1
EndSplineSet
EndChar

StartChar: circumflex
Encoding: 710 710 105
Width: 588
VWidth: 1177
Flags: W
LayerCount: 2
Fore
SplineSet
590 655 m 1,0,-1
 527 601 l 1,1,-1
 439 682 l 1,2,-1
 320 601 l 1,3,-1
 272 665 l 1,4,-1
 461 814 l 1,5,-1
 590 655 l 1,0,-1
EndSplineSet
EndChar

StartChar: perthousand
Encoding: 8240 8240 106
Width: 588
VWidth: 1177
Flags: W
LayerCount: 2
Fore
SplineSet
79 270 m 1,0,-1
 64 320 l 1,1,-1
 671 590 l 1,2,-1
 687 537 l 1,3,-1
 79 270 l 1,0,-1
218 502 m 0,4,5
 233 502 233 502 245 517 c 128,-1,6
 257 532 257 532 264.5 552 c 128,-1,7
 272 572 272 572 275.5 593.5 c 128,-1,8
 279 615 279 615 279 628 c 0,9,10
 279 652 279 652 271 658.5 c 128,-1,11
 263 665 263 665 253 665 c 0,12,13
 238 665 238 665 226 650.5 c 128,-1,14
 214 636 214 636 206.5 615.5 c 128,-1,15
 199 595 199 595 195.5 573.5 c 128,-1,16
 192 552 192 552 192 539 c 0,17,18
 192 515 192 515 200.5 508.5 c 128,-1,19
 209 502 209 502 218 502 c 0,4,5
203 422 m 0,20,21
 163 422 163 422 138 450.5 c 128,-1,22
 113 479 113 479 113 527 c 0,23,24
 113 559 113 559 121.5 597 c 128,-1,25
 130 635 130 635 148 668 c 128,-1,26
 166 701 166 701 195.5 723.5 c 128,-1,27
 225 746 225 746 269 746 c 0,28,29
 308 746 308 746 333.5 717 c 128,-1,30
 359 688 359 688 359 642 c 0,31,32
 359 610 359 610 351 571 c 128,-1,33
 343 532 343 532 324 499 c 128,-1,34
 305 466 305 466 276 444 c 128,-1,35
 247 422 247 422 203 422 c 0,20,21
206 64 m 0,36,37
 221 64 221 64 233 79 c 128,-1,38
 245 94 245 94 252.5 114.5 c 128,-1,39
 260 135 260 135 263.5 156.5 c 128,-1,40
 267 178 267 178 267 191 c 0,41,42
 267 215 267 215 259 222 c 128,-1,43
 251 229 251 229 241 229 c 0,44,45
 226 229 226 229 215 213.5 c 128,-1,46
 204 198 204 198 196 178 c 128,-1,47
 188 158 188 158 184.5 136 c 128,-1,48
 181 114 181 114 181 102 c 0,49,50
 181 78 181 78 189 71 c 128,-1,51
 197 64 197 64 206 64 c 0,36,37
192 -15 m 0,52,53
 151 -15 151 -15 126 13 c 128,-1,54
 101 41 101 41 101 88 c 0,55,56
 101 120 101 120 109.5 159 c 128,-1,57
 118 198 118 198 136 231 c 128,-1,58
 154 264 154 264 184 286.5 c 128,-1,59
 214 309 214 309 257 309 c 0,60,61
 297 309 297 309 322 280 c 128,-1,62
 347 251 347 251 347 204 c 0,63,64
 347 172 347 172 339 133.5 c 128,-1,65
 331 95 331 95 312.5 62 c 128,-1,66
 294 29 294 29 264 7 c 128,-1,67
 234 -15 234 -15 192 -15 c 0,52,53
472 64 m 0,68,69
 487 64 487 64 499 79 c 128,-1,70
 511 94 511 94 519 114.5 c 128,-1,71
 527 135 527 135 530.5 156.5 c 128,-1,72
 534 178 534 178 534 191 c 0,73,74
 534 215 534 215 525.5 222 c 128,-1,75
 517 229 517 229 508 229 c 0,76,77
 493 229 493 229 481.5 213.5 c 128,-1,78
 470 198 470 198 462.5 178 c 128,-1,79
 455 158 455 158 451.5 136 c 128,-1,80
 448 114 448 114 448 102 c 0,81,82
 448 78 448 78 455.5 71 c 128,-1,83
 463 64 463 64 472 64 c 0,68,69
457 -15 m 0,84,85
 417 -15 417 -15 392 13 c 128,-1,86
 367 41 367 41 367 88 c 0,87,88
 367 120 367 120 375.5 159 c 128,-1,89
 384 198 384 198 402 231 c 128,-1,90
 420 264 420 264 449.5 286.5 c 128,-1,91
 479 309 479 309 523 309 c 0,92,93
 562 309 562 309 588 280 c 128,-1,94
 614 251 614 251 614 204 c 0,95,96
 614 172 614 172 605.5 133.5 c 128,-1,97
 597 95 597 95 578 62 c 128,-1,98
 559 29 559 29 530 7 c 128,-1,99
 501 -15 501 -15 457 -15 c 0,84,85
EndSplineSet
EndChar

StartChar: guilsinglleft
Encoding: 8249 8249 108
Width: 588
VWidth: 1177
Flags: W
LayerCount: 2
Fore
SplineSet
359 285 m 1,0,-1
 435 94 l 1,1,-1
 330 46 l 1,2,-1
 194 305 l 1,3,-1
 425 551 l 1,4,-1
 524 492 l 1,5,-1
 359 285 l 1,0,-1
EndSplineSet
Substitution2: "'case' Case-Sensitive Forms lookup 17 subtable" Guilsinglleft
EndChar

StartChar: OE
Encoding: 338 338 109
Width: 588
VWidth: 1177
Flags: W
LayerCount: 2
Fore
SplineSet
270 117 m 0,0,1
 288 117 288 117 309 122 c 1,2,-1
 425 608 l 1,3,4
 407 614 407 614 389 614 c 0,5,6
 345 614 345 614 310.5 571.5 c 128,-1,7
 276 529 276 529 251 467 c 128,-1,8
 226 405 226 405 212.5 336 c 128,-1,9
 199 267 199 267 199 214 c 0,10,11
 199 167 199 167 214.5 142 c 128,-1,12
 230 117 230 117 270 117 c 0,0,1
309 0 m 2,13,14
 294 -4 294 -4 278.5 -5 c 128,-1,15
 263 -6 263 -6 246 -6 c 0,16,17
 158 -6 158 -6 111 49 c 128,-1,18
 64 104 64 104 64 205 c 0,19,20
 64 253 64 253 71.5 312 c 128,-1,21
 79 371 79 371 95.5 430 c 128,-1,22
 112 489 112 489 139 544.5 c 128,-1,23
 166 600 166 600 204.5 642 c 128,-1,24
 243 684 243 684 294 710 c 128,-1,25
 345 736 345 736 411 736 c 0,26,27
 429 736 429 736 448.5 733.5 c 128,-1,28
 468 731 468 731 483 729 c 2,29,-1
 717 729 l 1,30,-1
 689 609 l 1,31,-1
 556 609 l 1,32,-1
 516 445 l 1,33,-1
 622 445 l 1,34,-1
 594 325 l 1,35,-1
 488 325 l 1,36,-1
 438 120 l 1,37,-1
 587 120 l 1,38,-1
 558 0 l 1,39,-1
 309 0 l 2,13,14
EndSplineSet
EndChar

StartChar: quoteleft
Encoding: 8216 8216 110
Width: 588
VWidth: 1177
Flags: W
LayerCount: 2
Fore
SplineSet
594 773 m 1,0,1
 569 772 569 772 543.5 766.5 c 128,-1,2
 518 761 518 761 496.5 751 c 128,-1,3
 475 741 475 741 459 728 c 128,-1,4
 443 715 443 715 437 697 c 1,5,6
 472 692 472 692 493.5 669.5 c 128,-1,7
 515 647 515 647 515 609 c 0,8,9
 515 584 515 584 506 562.5 c 128,-1,10
 497 541 497 541 481 525 c 128,-1,11
 465 509 465 509 444 500 c 128,-1,12
 423 491 423 491 398 491 c 0,13,14
 352 491 352 491 329.5 523.5 c 128,-1,15
 307 556 307 556 307 604 c 0,16,17
 307 648 307 648 323.5 692.5 c 128,-1,18
 340 737 340 737 374.5 773.5 c 128,-1,19
 409 810 409 810 460.5 835.5 c 128,-1,20
 512 861 512 861 584 866 c 1,21,-1
 594 773 l 1,0,1
EndSplineSet
EndChar

StartChar: quoteright
Encoding: 8217 8217 111
Width: 588
VWidth: 1177
Flags: W
LayerCount: 2
Fore
SplineSet
279 584 m 1,0,1
 304 585 304 585 328.5 590.5 c 128,-1,2
 353 596 353 596 375 606 c 128,-1,3
 397 616 397 616 413 629 c 128,-1,4
 429 642 429 642 435 660 c 1,5,6
 401 665 401 665 379.5 687.5 c 128,-1,7
 358 710 358 710 358 748 c 0,8,9
 358 799 358 799 391 832.5 c 128,-1,10
 424 866 424 866 473 866 c 0,11,12
 520 866 520 866 542.5 833.5 c 128,-1,13
 565 801 565 801 565 751 c 0,14,15
 565 707 565 707 548.5 663.5 c 128,-1,16
 532 620 532 620 498 583.5 c 128,-1,17
 464 547 464 547 411.5 521.5 c 128,-1,18
 359 496 359 496 289 491 c 1,19,-1
 279 584 l 1,0,1
EndSplineSet
EndChar

StartChar: quotedblleft
Encoding: 8220 8220 112
Width: 588
VWidth: 1177
Flags: W
LayerCount: 2
Fore
SplineSet
436 739 m 1,0,1
 415 737 415 737 393 732 c 128,-1,2
 371 727 371 727 353 719 c 128,-1,3
 335 711 335 711 321 699.5 c 128,-1,4
 307 688 307 688 303 674 c 1,5,6
 334 670 334 670 352 649 c 128,-1,7
 370 628 370 628 370 596 c 0,8,9
 370 552 370 552 341 523 c 128,-1,10
 312 494 312 494 270 494 c 0,11,12
 229 494 229 494 209.5 522.5 c 128,-1,13
 190 551 190 551 190 595 c 0,14,15
 190 634 190 634 204 672 c 128,-1,16
 218 710 218 710 247 740.5 c 128,-1,17
 276 771 276 771 320.5 791.5 c 128,-1,18
 365 812 365 812 428 816 c 1,19,-1
 436 739 l 1,0,1
710 739 m 1,20,21
 689 737 689 737 668 732 c 128,-1,22
 647 727 647 727 628.5 719 c 128,-1,23
 610 711 610 711 596.5 699.5 c 128,-1,24
 583 688 583 688 578 674 c 1,25,26
 609 670 609 670 626.5 649 c 128,-1,27
 644 628 644 628 644 596 c 0,28,29
 644 552 644 552 615.5 523 c 128,-1,30
 587 494 587 494 544 494 c 0,31,32
 503 494 503 494 484 522.5 c 128,-1,33
 465 551 465 551 465 595 c 0,34,35
 465 634 465 634 478.5 672 c 128,-1,36
 492 710 492 710 521.5 740.5 c 128,-1,37
 551 771 551 771 595.5 791.5 c 128,-1,38
 640 812 640 812 702 816 c 1,39,-1
 710 739 l 1,20,21
EndSplineSet
EndChar

StartChar: quotedblright
Encoding: 8221 8221 113
Width: 588
VWidth: 1177
Flags: W
LayerCount: 2
Fore
SplineSet
431 571 m 1,0,1
 452 572 452 572 474 577 c 128,-1,2
 496 582 496 582 514 589.5 c 128,-1,3
 532 597 532 597 545 609 c 128,-1,4
 558 621 558 621 564 635 c 1,5,6
 533 640 533 640 514.5 661 c 128,-1,7
 496 682 496 682 496 713 c 0,8,9
 496 758 496 758 525.5 787 c 128,-1,10
 555 816 555 816 597 816 c 0,11,12
 638 816 638 816 657.5 786.5 c 128,-1,13
 677 757 677 757 677 715 c 0,14,15
 677 676 677 676 663 638 c 128,-1,16
 649 600 649 600 620 569 c 128,-1,17
 591 538 591 538 546 518 c 128,-1,18
 501 498 501 498 439 494 c 1,19,-1
 431 571 l 1,0,1
157 571 m 1,20,21
 178 572 178 572 199 577 c 128,-1,22
 220 582 220 582 238.5 589.5 c 128,-1,23
 257 597 257 597 270.5 609 c 128,-1,24
 284 621 284 621 289 635 c 1,25,26
 258 640 258 640 239.5 661 c 128,-1,27
 221 682 221 682 221 713 c 0,28,29
 221 758 221 758 250.5 787 c 128,-1,30
 280 816 280 816 323 816 c 0,31,32
 364 816 364 816 383 786.5 c 128,-1,33
 402 757 402 757 402 715 c 0,34,35
 402 676 402 676 388.5 638 c 128,-1,36
 375 600 375 600 345.5 569 c 128,-1,37
 316 538 316 538 271 518 c 128,-1,38
 226 498 226 498 165 494 c 1,39,-1
 157 571 l 1,20,21
EndSplineSet
EndChar

StartChar: bullet
Encoding: 8226 8226 114
Width: 588
VWidth: 1177
Flags: W
LayerCount: 2
Fore
SplineSet
525 370 m 0,0,1
 525 336 525 336 514 306 c 128,-1,2
 503 276 503 276 482.5 252.5 c 128,-1,3
 462 229 462 229 432 215 c 128,-1,4
 402 201 402 201 365 201 c 0,5,6
 327 201 327 201 298 215 c 128,-1,7
 269 229 269 229 248 252.5 c 128,-1,8
 227 276 227 276 216 306 c 128,-1,9
 205 336 205 336 205 370 c 0,10,11
 205 403 205 403 216 433.5 c 128,-1,12
 227 464 227 464 248 487.5 c 128,-1,13
 269 511 269 511 298 524.5 c 128,-1,14
 327 538 327 538 365 538 c 0,15,16
 402 538 402 538 432 524.5 c 128,-1,17
 462 511 462 511 482.5 487.5 c 128,-1,18
 503 464 503 464 514 433.5 c 128,-1,19
 525 403 525 403 525 370 c 0,0,1
EndSplineSet
Substitution2: "'case' Case-Sensitive Forms lookup 17 subtable" Bullet
EndChar

StartChar: endash
Encoding: 8211 8211 115
Width: 588
VWidth: 1177
Flags: W
LayerCount: 2
Fore
SplineSet
131 369 m 1,0,-1
 594 369 l 1,1,-1
 567 260 l 1,2,-1
 104 260 l 1,3,-1
 131 369 l 1,0,-1
EndSplineSet
Substitution2: "'case' Case-Sensitive Forms lookup 17 subtable" Endash
EndChar

StartChar: emdash
Encoding: 8212 8212 116
Width: 588
VWidth: 1177
Flags: W
LayerCount: 2
Fore
SplineSet
66 369 m 1,0,-1
 655 369 l 1,1,-1
 629 260 l 1,2,-1
 40 260 l 1,3,-1
 66 369 l 1,0,-1
EndSplineSet
Substitution2: "'case' Case-Sensitive Forms lookup 17 subtable" Emdash
EndChar

StartChar: tilde
Encoding: 732 732 117
Width: 588
VWidth: 1177
Flags: W
LayerCount: 2
Fore
SplineSet
481 638 m 0,0,1
 461 638 461 638 445 644 c 128,-1,2
 429 650 429 650 415.5 656.5 c 128,-1,3
 402 663 402 663 389.5 669 c 128,-1,4
 377 675 377 675 364 675 c 0,5,6
 349 675 349 675 337 666.5 c 128,-1,7
 325 658 325 658 307 633 c 1,8,-1
 237 675 l 1,9,10
 262 733 262 733 294.5 760.5 c 128,-1,11
 327 788 327 788 377 788 c 0,12,13
 396 788 396 788 412 782 c 128,-1,14
 428 776 428 776 441.5 769.5 c 128,-1,15
 455 763 455 763 468 757 c 128,-1,16
 481 751 481 751 494 751 c 0,17,18
 509 751 509 751 520.5 759.5 c 128,-1,19
 532 768 532 768 550 794 c 1,20,-1
 621 751 l 1,21,22
 596 693 596 693 563 665.5 c 128,-1,23
 530 638 530 638 481 638 c 0,0,1
EndSplineSet
EndChar

StartChar: trademark
Encoding: 8482 8482 118
Width: 588
VWidth: 1177
Flags: W
LayerCount: 2
Fore
SplineSet
356 729 m 1,0,-1
 356 670 l 1,1,-1
 280 670 l 1,2,-1
 280 420 l 1,3,-1
 212 420 l 1,4,-1
 212 670 l 1,5,-1
 137 670 l 1,6,-1
 137 729 l 1,7,-1
 356 729 l 1,0,-1
499 502 m 1,8,-1
 452 638 l 1,9,10
 451 614 451 614 450 579 c 128,-1,11
 449 544 449 544 448.5 510.5 c 128,-1,12
 448 477 448 477 447 451 c 128,-1,13
 446 425 446 425 446 420 c 1,14,-1
 378 420 l 1,15,16
 382 479 382 479 385.5 523 c 128,-1,17
 389 567 389 567 392.5 602 c 128,-1,18
 396 637 396 637 400.5 667 c 128,-1,19
 405 697 405 697 411 729 c 1,20,-1
 473 729 l 1,21,-1
 527 569 l 1,22,-1
 582 729 l 1,23,-1
 645 729 l 1,24,25
 650 697 650 697 654 666.5 c 128,-1,26
 658 636 658 636 661.5 600.5 c 128,-1,27
 665 565 665 565 669 521.5 c 128,-1,28
 673 478 673 478 676 420 c 1,29,-1
 608 420 l 1,30,31
 608 425 608 425 607.5 451 c 128,-1,32
 607 477 607 477 606 510.5 c 128,-1,33
 605 544 605 544 604 579.5 c 128,-1,34
 603 615 603 615 602 638 c 1,35,-1
 551 502 l 1,36,-1
 499 502 l 1,8,-1
EndSplineSet
EndChar

StartChar: guilsinglright
Encoding: 8250 8250 120
Width: 588
VWidth: 1177
Flags: W
LayerCount: 2
Fore
SplineSet
319 312 m 1,0,-1
 244 503 l 1,1,-1
 349 551 l 1,2,-1
 484 292 l 1,3,-1
 253 46 l 1,4,-1
 154 105 l 1,5,-1
 319 312 l 1,0,-1
EndSplineSet
Substitution2: "'case' Case-Sensitive Forms lookup 17 subtable" Guilsinglright
EndChar

StartChar: oe
Encoding: 339 339 121
Width: 588
VWidth: 1177
Flags: W
LayerCount: 2
Fore
SplineSet
319 388 m 0,0,1
 319 420 319 420 307.5 434 c 128,-1,2
 296 448 296 448 279 448 c 0,3,4
 259 448 259 448 237.5 427 c 128,-1,5
 216 406 216 406 197 370.5 c 128,-1,6
 178 335 178 335 166 285.5 c 128,-1,7
 154 236 154 236 154 179 c 0,8,9
 154 146 154 146 165.5 126 c 128,-1,10
 177 106 177 106 200 106 c 0,11,12
 219 106 219 106 240 128.5 c 128,-1,13
 261 151 261 151 279 189 c 128,-1,14
 297 227 297 227 308 278.5 c 128,-1,15
 319 330 319 330 319 388 c 0,0,1
552 423 m 0,16,17
 552 439 552 439 545 451 c 128,-1,18
 538 463 538 463 516 463 c 0,19,20
 504 463 504 463 490 453.5 c 128,-1,21
 476 444 476 444 460.5 424 c 128,-1,22
 445 404 445 404 431.5 372 c 128,-1,23
 418 340 418 340 409 294 c 1,24,25
 441 294 441 294 466.5 304 c 128,-1,26
 492 314 492 314 511.5 331.5 c 128,-1,27
 531 349 531 349 541.5 372.5 c 128,-1,28
 552 396 552 396 552 423 c 0,16,17
459 -15 m 0,29,30
 402 -15 402 -15 369.5 9.5 c 128,-1,31
 337 34 337 34 320 74 c 1,32,33
 296 29 296 29 256.5 7 c 128,-1,34
 217 -15 217 -15 176 -15 c 0,35,36
 143 -15 143 -15 118 -1.5 c 128,-1,37
 93 12 93 12 76 35 c 128,-1,38
 59 58 59 58 50.5 89.5 c 128,-1,39
 42 121 42 121 42 158 c 0,40,41
 42 248 42 248 63.5 323 c 128,-1,42
 85 398 85 398 120 453 c 128,-1,43
 155 508 155 508 202 538 c 128,-1,44
 249 568 249 568 298 568 c 0,45,46
 388 568 388 568 411 494 c 1,47,48
 436 526 436 526 472 547 c 128,-1,49
 508 568 508 568 542 568 c 0,50,51
 563 568 563 568 583.5 561.5 c 128,-1,52
 604 555 604 555 619.5 540 c 128,-1,53
 635 525 635 525 644.5 501.5 c 128,-1,54
 654 478 654 478 654 444 c 0,55,56
 654 385 654 385 634 341 c 128,-1,57
 614 297 614 297 579 267 c 128,-1,58
 544 237 544 237 498 220.5 c 128,-1,59
 452 204 452 204 402 199 c 1,60,61
 401 193 401 193 400.5 189.5 c 128,-1,62
 400 186 400 186 400 181 c 0,63,64
 400 140 400 140 418.5 116.5 c 128,-1,65
 437 93 437 93 483 93 c 0,66,67
 523 93 523 93 565 122 c 1,68,-1
 580 20 l 1,69,70
 554 4 554 4 523 -5.5 c 128,-1,71
 492 -15 492 -15 459 -15 c 0,29,30
EndSplineSet
Substitution2: "'case' Case-Sensitive Forms lookup 18 subtable" OE
EndChar

StartChar: exclamdown
Encoding: 161 161 124
Width: 588
VWidth: 1177
Flags: W
LayerCount: 2
Fore
SplineSet
375 357 m 0,0,1
 337 357 337 357 312 378.5 c 128,-1,2
 287 400 287 400 287 444 c 0,3,4
 287 468 287 468 296 488 c 128,-1,5
 305 508 305 508 320 522.5 c 128,-1,6
 335 537 335 537 353.5 545.5 c 128,-1,7
 372 554 372 554 393 554 c 0,8,9
 430 554 430 554 455.5 531.5 c 128,-1,10
 481 509 481 509 481 465 c 0,11,12
 481 440 481 440 472 420 c 128,-1,13
 463 400 463 400 448 386 c 128,-1,14
 433 372 433 372 414 364.5 c 128,-1,15
 395 357 395 357 375 357 c 0,0,1
197 7 m 2,16,17
 208 49 208 49 217 83.5 c 128,-1,18
 226 118 226 118 236.5 148.5 c 128,-1,19
 247 179 247 179 259 209 c 128,-1,20
 271 239 271 239 285 274 c 1,21,-1
 405 274 l 1,22,23
 401 233 401 233 397 199 c 128,-1,24
 393 165 393 165 388.5 132 c 128,-1,25
 384 99 384 99 377 66.5 c 128,-1,26
 370 34 370 34 362 -1 c 2,27,-1
 317 -190 l 1,28,-1
 150 -190 l 1,29,-1
 197 7 l 2,16,17
EndSplineSet
Substitution2: "'case' Case-Sensitive Forms lookup 17 subtable" Exclamdown
EndChar

StartChar: cent
Encoding: 162 162 125
Width: 588
VWidth: 1177
Flags: W
LayerCount: 2
Fore
SplineSet
369 -114 m 1,0,-1
 223 -114 l 1,1,-1
 260 44 l 1,2,3
 216 53 216 53 186.5 73.5 c 128,-1,4
 157 94 157 94 138.5 122.5 c 128,-1,5
 120 151 120 151 112 184.5 c 128,-1,6
 104 218 104 218 104 254 c 0,7,8
 104 320 104 320 124.5 375.5 c 128,-1,9
 145 431 145 431 182.5 473 c 128,-1,10
 220 515 220 515 272.5 542 c 128,-1,11
 325 569 325 569 389 577 c 1,12,-1
 425 729 l 1,13,-1
 570 729 l 1,14,-1
 534 575 l 1,15,16
 565 570 565 570 588.5 562 c 128,-1,17
 612 554 612 554 633 545 c 1,18,-1
 580 430 l 1,19,20
 562 438 562 438 530 447 c 128,-1,21
 498 456 498 456 461 456 c 0,22,23
 416 456 416 456 377 444 c 128,-1,24
 338 432 338 432 310 409 c 128,-1,25
 282 386 282 386 266 351.5 c 128,-1,26
 250 317 250 317 250 271 c 0,27,28
 250 218 250 218 283.5 188 c 128,-1,29
 317 158 317 158 398 158 c 0,30,31
 444 158 444 158 478 168 c 128,-1,32
 512 178 512 178 532 187 c 1,33,-1
 547 72 l 1,34,35
 523 59 523 59 486.5 48.5 c 128,-1,36
 450 38 450 38 403 34 c 1,37,-1
 369 -114 l 1,0,-1
EndSplineSet
EndChar

StartChar: sterling
Encoding: 163 163 126
Width: 588
VWidth: 1177
Flags: W
LayerCount: 2
Fore
SplineSet
365 411 m 1,0,-1
 551 411 l 1,1,-1
 523 291 l 1,2,-1
 337 291 l 1,3,4
 328 253 328 253 312 207 c 128,-1,5
 296 161 296 161 280 121 c 1,6,-1
 570 121 l 1,7,-1
 542 0 l 1,8,-1
 90 0 l 1,9,10
 130 88 130 88 153 159.5 c 128,-1,11
 176 231 176 231 192 291 c 1,12,-1
 99 291 l 1,13,-1
 127 412 l 1,14,-1
 221 412 l 1,15,-1
 249 521 l 2,16,17
 264 582 264 582 292 625 c 128,-1,18
 320 668 320 668 357.5 694.5 c 128,-1,19
 395 721 395 721 438.5 732.5 c 128,-1,20
 482 744 482 744 527 744 c 256,21,22
 572 744 572 744 613 735.5 c 128,-1,23
 654 727 654 727 684 707 c 1,24,-1
 625 597 l 1,25,26
 601 610 601 610 576 616 c 128,-1,27
 551 622 551 622 527 622 c 256,28,29
 502 622 502 622 480.5 616.5 c 128,-1,30
 459 611 459 611 441 596.5 c 128,-1,31
 423 582 423 582 409 556 c 128,-1,32
 395 530 395 530 384 488 c 2,33,-1
 365 411 l 1,0,-1
EndSplineSet
EndChar

StartChar: currency
Encoding: 164 164 127
Width: 588
VWidth: 1177
Flags: W
LayerCount: 2
Fore
SplineSet
359 158 m 0,0,1
 306 158 306 158 260 179 c 1,2,-1
 181 104 l 1,3,-1
 86 198 l 1,4,-1
 163 271 l 1,5,6
 141 312 141 312 140 366 c 0,7,8
 140 421 140 421 163 462 c 1,9,-1
 86 536 l 1,10,-1
 183 630 l 1,11,-1
 261 555 l 1,12,13
 283 564 283 564 306.5 569.5 c 128,-1,14
 330 575 330 575 359 575 c 0,15,16
 410 575 410 575 457 555 c 1,17,-1
 536 630 l 1,18,-1
 631 536 l 1,19,-1
 556 462 l 1,20,21
 577 421 577 421 577 367 c 0,22,23
 577 313 577 313 556 271 c 1,24,-1
 631 198 l 1,25,-1
 535 104 l 1,26,-1
 456 179 l 1,27,28
 434 168 434 168 410.5 163 c 128,-1,29
 387 158 387 158 359 158 c 0,0,1
359 272 m 0,30,31
 396 272 396 272 422 296 c 128,-1,32
 448 320 448 320 448 367 c 0,33,34
 448 412 448 412 422 436.5 c 128,-1,35
 396 461 396 461 359 461 c 0,36,37
 321 461 321 461 295.5 436.5 c 128,-1,38
 270 412 270 412 270 366 c 256,39,40
 270 320 270 320 295.5 296 c 128,-1,41
 321 272 321 272 359 272 c 0,30,31
EndSplineSet
EndChar

StartChar: yen
Encoding: 165 165 128
Width: 588
VWidth: 1177
Flags: W
LayerCount: 2
Fore
SplineSet
379 443 m 1,0,1
 484 569 484 569 575 729 c 1,2,-1
 731 729 l 1,3,4
 702 682 702 682 673.5 640 c 128,-1,5
 645 598 645 598 615 557.5 c 128,-1,6
 585 517 585 517 553 475 c 128,-1,7
 521 433 521 433 482 386 c 1,8,-1
 597 386 l 1,9,-1
 575 294 l 1,10,-1
 420 294 l 1,11,-1
 402 211 l 1,12,-1
 556 211 l 1,13,-1
 534 119 l 1,14,-1
 378 119 l 1,15,-1
 350 0 l 1,16,-1
 197 0 l 1,17,-1
 226 119 l 1,18,-1
 73 119 l 1,19,-1
 94 211 l 1,20,-1
 249 211 l 1,21,-1
 267 294 l 1,22,-1
 114 294 l 1,23,-1
 137 386 l 1,24,-1
 261 386 l 1,25,26
 227 477 227 477 197.5 567.5 c 128,-1,27
 168 658 168 658 152 729 c 1,28,-1
 303 729 l 1,29,30
 310 694 310 694 317 662 c 128,-1,31
 324 630 324 630 333 596.5 c 128,-1,32
 342 563 342 563 353 526 c 128,-1,33
 364 489 364 489 379 443 c 1,0,1
EndSplineSet
EndChar

StartChar: brokenbar
Encoding: 166 166 129
Width: 588
VWidth: 1177
Flags: W
LayerCount: 2
Fore
SplineSet
298 406 m 1,0,-1
 398 823 l 1,1,-1
 543 823 l 1,2,-1
 443 406 l 1,3,-1
 298 406 l 1,0,-1
398 223 m 1,4,-1
 299 -194 l 1,5,-1
 153 -194 l 1,6,-1
 253 223 l 1,7,-1
 398 223 l 1,4,-1
EndSplineSet
EndChar

StartChar: section
Encoding: 167 167 130
Width: 588
VWidth: 1177
Flags: W
LayerCount: 2
Fore
SplineSet
355 577 m 0,0,1
 355 552 355 552 376 537.5 c 128,-1,2
 397 523 397 523 446 498 c 2,3,-1
 466 488 l 2,4,5
 486 479 486 479 505.5 467 c 128,-1,6
 525 455 525 455 540.5 439 c 128,-1,7
 556 423 556 423 565.5 400.5 c 128,-1,8
 575 378 575 378 575 346 c 0,9,10
 575 297 575 297 541.5 247.5 c 128,-1,11
 508 198 508 198 444 161 c 1,12,13
 464 140 464 140 470.5 117 c 128,-1,14
 477 94 477 94 477 71 c 0,15,16
 477 37 477 37 461.5 3 c 128,-1,17
 446 -31 446 -31 415 -56.5 c 128,-1,18
 384 -82 384 -82 335.5 -98 c 128,-1,19
 287 -114 287 -114 221 -114 c 0,20,21
 172 -114 172 -114 123 -103.5 c 128,-1,22
 74 -93 74 -93 40 -72 c 1,23,-1
 90 34 l 1,24,25
 123 15 123 15 154 7.5 c 128,-1,26
 185 0 185 0 219 0 c 0,27,28
 284 0 284 0 311.5 19 c 128,-1,29
 339 38 339 38 339 65 c 256,30,31
 339 92 339 92 318 106.5 c 128,-1,32
 297 121 297 121 249 146 c 2,33,-1
 227 157 l 2,34,35
 207 166 207 166 187.5 178 c 128,-1,36
 168 190 168 190 153 207 c 128,-1,37
 138 224 138 224 128.5 246.5 c 128,-1,38
 119 269 119 269 119 300 c 0,39,40
 119 352 119 352 153 401 c 128,-1,41
 187 450 187 450 247 486 c 1,42,43
 231 505 231 505 224 529.5 c 128,-1,44
 217 554 217 554 217 577 c 0,45,46
 217 609 217 609 232 639.5 c 128,-1,47
 247 670 247 670 278 693.5 c 128,-1,48
 309 717 309 717 354.5 731.5 c 128,-1,49
 400 746 400 746 461 746 c 0,50,51
 507 746 507 746 551.5 736 c 128,-1,52
 596 726 596 726 630 707 c 1,53,-1
 581 602 l 1,54,55
 548 618 548 618 517 625.5 c 128,-1,56
 486 633 486 633 458 633 c 0,57,58
 405 633 405 633 380 617 c 128,-1,59
 355 601 355 601 355 577 c 0,0,1
249 326 m 0,60,61
 249 304 249 304 266 280.5 c 128,-1,62
 283 257 283 257 319 240 c 2,63,-1
 366 218 l 1,64,65
 401 239 401 239 423.5 266 c 128,-1,66
 446 293 446 293 446 322 c 0,67,68
 446 349 446 349 428 371 c 128,-1,69
 410 393 410 393 365 413 c 2,70,-1
 325 431 l 1,71,72
 291 409 291 409 270 383.5 c 128,-1,73
 249 358 249 358 249 326 c 0,60,61
EndSplineSet
EndChar

StartChar: dieresis
Encoding: 168 168 131
Width: 588
VWidth: 1177
Flags: W
LayerCount: 2
Fore
SplineSet
316 634 m 0,0,1
 285 634 285 634 265 652.5 c 128,-1,2
 245 671 245 671 245 703 c 0,3,4
 245 723 245 723 252.5 739.5 c 128,-1,5
 260 756 260 756 272 768 c 128,-1,6
 284 780 284 780 299 786.5 c 128,-1,7
 314 793 314 793 330 793 c 0,8,9
 359 793 359 793 380.5 773.5 c 128,-1,10
 402 754 402 754 402 722 c 0,11,12
 402 702 402 702 393.5 686 c 128,-1,13
 385 670 385 670 372.5 658.5 c 128,-1,14
 360 647 360 647 345 640.5 c 128,-1,15
 330 634 330 634 316 634 c 0,0,1
549 634 m 0,16,17
 518 634 518 634 498 652.5 c 128,-1,18
 478 671 478 671 478 703 c 0,19,20
 478 743 478 743 505 768 c 128,-1,21
 532 793 532 793 564 793 c 0,22,23
 593 793 593 793 614 773.5 c 128,-1,24
 635 754 635 754 635 722 c 0,25,26
 635 702 635 702 626.5 686 c 128,-1,27
 618 670 618 670 606 658.5 c 128,-1,28
 594 647 594 647 578.5 640.5 c 128,-1,29
 563 634 563 634 549 634 c 0,16,17
EndSplineSet
EndChar

StartChar: copyright
Encoding: 169 169 132
Width: 588
VWidth: 1177
Flags: W
LayerCount: 2
Fore
SplineSet
429 141 m 1,0,1
 409 132 409 132 387 127 c 128,-1,2
 365 122 365 122 346 122 c 0,3,4
 312 122 312 122 286.5 134.5 c 128,-1,5
 261 147 261 147 244 167.5 c 128,-1,6
 227 188 227 188 219 214.5 c 128,-1,7
 211 241 211 241 211 270 c 256,8,9
 211 298 211 298 219 325 c 128,-1,10
 227 352 227 352 243.5 373.5 c 128,-1,11
 260 395 260 395 286 407.5 c 128,-1,12
 312 420 312 420 347 420 c 0,13,14
 365 420 365 420 385.5 417.5 c 128,-1,15
 406 415 406 415 428 405 c 1,16,-1
 403 342 l 1,17,18
 390 348 390 348 377.5 349.5 c 128,-1,19
 365 351 365 351 353 351 c 0,20,21
 316 351 316 351 300.5 327.5 c 128,-1,22
 285 304 285 304 285 274 c 0,23,24
 285 236 285 236 304 214.5 c 128,-1,25
 323 193 323 193 359 193 c 0,26,27
 368 193 368 193 382.5 195.5 c 128,-1,28
 397 198 397 198 409 204 c 1,29,-1
 429 141 l 1,0,1
74 272 m 256,30,31
 74 344 74 344 96.5 398 c 128,-1,32
 119 452 119 452 155.5 488 c 128,-1,33
 192 524 192 524 239.5 541.5 c 128,-1,34
 287 559 287 559 339 559 c 256,35,36
 391 559 391 559 438.5 541.5 c 128,-1,37
 486 524 486 524 523.5 488 c 128,-1,38
 561 452 561 452 583 398 c 128,-1,39
 605 344 605 344 605 272 c 256,40,41
 605 200 605 200 583 146.5 c 128,-1,42
 561 93 561 93 523.5 57 c 128,-1,43
 486 21 486 21 438.5 3 c 128,-1,44
 391 -15 391 -15 339 -15 c 256,45,46
 287 -15 287 -15 239.5 3 c 128,-1,47
 192 21 192 21 155.5 57 c 128,-1,48
 119 93 119 93 96.5 146.5 c 128,-1,49
 74 200 74 200 74 272 c 256,30,31
339 60 m 0,50,51
 373 60 373 60 407 73.5 c 128,-1,52
 441 87 441 87 467.5 114 c 128,-1,53
 494 141 494 141 509.5 181 c 128,-1,54
 525 221 525 221 525 273 c 0,55,56
 525 324 525 324 509.5 363.5 c 128,-1,57
 494 403 494 403 467.5 430 c 128,-1,58
 441 457 441 457 408 471 c 128,-1,59
 375 485 375 485 339 485 c 256,60,61
 304 485 304 485 270.5 471 c 128,-1,62
 237 457 237 457 210.5 430 c 128,-1,63
 184 403 184 403 168 363.5 c 128,-1,64
 152 324 152 324 152 273 c 0,65,66
 152 221 152 221 168 181 c 128,-1,67
 184 141 184 141 210.5 114 c 128,-1,68
 237 87 237 87 270.5 73.5 c 128,-1,69
 304 60 304 60 339 60 c 0,50,51
EndSplineSet
EndChar

StartChar: ordfeminine
Encoding: 170 170 133
Width: 588
VWidth: 1177
Flags: W
LayerCount: 2
Fore
SplineSet
469 638 m 1,0,1
 462 639 462 639 455 640 c 128,-1,2
 448 641 448 641 442 641 c 0,3,4
 414 641 414 641 388.5 631 c 128,-1,5
 363 621 363 621 343.5 603 c 128,-1,6
 324 585 324 585 313 560 c 128,-1,7
 302 535 302 535 302 503 c 256,8,9
 302 471 302 471 318.5 448.5 c 128,-1,10
 335 426 335 426 369 426 c 0,11,12
 384 426 384 426 399.5 431 c 128,-1,13
 415 436 415 436 431 449 c 0,14,15
 430 453 430 453 430 464 c 0,16,17
 430 480 430 480 433.5 496 c 128,-1,18
 437 512 437 512 441 529 c 2,19,-1
 469 638 l 1,0,1
556 530 m 2,20,21
 552 512 552 512 548 491 c 128,-1,22
 544 470 544 470 543.5 446 c 128,-1,23
 543 422 543 422 547 395.5 c 128,-1,24
 551 369 551 369 563 339 c 1,25,-1
 464 325 l 1,26,-1
 450 358 l 1,27,28
 395 320 395 320 339 320 c 0,29,30
 302 320 302 320 274.5 334.5 c 128,-1,31
 247 349 247 349 228.5 372.5 c 128,-1,32
 210 396 210 396 200.5 426.5 c 128,-1,33
 191 457 191 457 191 491 c 0,34,35
 191 535 191 535 207.5 580 c 128,-1,36
 224 625 224 625 258.5 661.5 c 128,-1,37
 293 698 293 698 345 721 c 128,-1,38
 397 744 397 744 468 744 c 0,39,40
 499 744 499 744 532 740 c 128,-1,41
 565 736 565 736 603 726 c 1,42,-1
 556 530 l 2,20,21
EndSplineSet
EndChar

StartChar: guillemotleft
Encoding: 171 171 134
Width: 588
VWidth: 1177
Flags: W
LayerCount: 2
Fore
SplineSet
233 296 m 1,0,-1
 302 97 l 1,1,-1
 220 54 l 1,2,-1
 105 305 l 1,3,-1
 310 545 l 1,4,-1
 383 492 l 1,5,-1
 233 296 l 1,0,-1
469 296 m 1,6,-1
 537 97 l 1,7,-1
 456 54 l 1,8,-1
 340 305 l 1,9,-1
 545 545 l 1,10,-1
 618 492 l 1,11,-1
 469 296 l 1,6,-1
EndSplineSet
Substitution2: "'case' Case-Sensitive Forms lookup 17 subtable" Guillemotleft
EndChar

StartChar: logicalnot
Encoding: 172 172 135
Width: 588
VWidth: 1177
Flags: W
LayerCount: 2
Fore
SplineSet
517 49 m 1,0,-1
 393 49 l 1,1,-1
 456 307 l 1,2,-1
 104 307 l 1,3,-1
 133 428 l 1,4,-1
 608 428 l 1,5,-1
 517 49 l 1,0,-1
EndSplineSet
EndChar

StartChar: registered
Encoding: 174 174 137
Width: 588
VWidth: 1177
Flags: W
LayerCount: 2
Fore
SplineSet
303 220 m 1,0,-1
 303 130 l 1,1,-1
 240 130 l 1,2,-1
 240 410 l 1,3,4
 255 415 255 415 276 417.5 c 128,-1,5
 297 420 297 420 319 420 c 0,6,7
 386 420 386 420 418 394.5 c 128,-1,8
 450 369 450 369 450 319 c 0,9,10
 450 261 450 261 404 236 c 1,11,12
 417 216 417 216 433 188 c 128,-1,13
 449 160 449 160 464 130 c 1,14,-1
 397 130 l 1,15,16
 382 158 382 158 369.5 179.5 c 128,-1,17
 357 201 357 201 346 220 c 1,18,-1
 303 220 l 1,0,-1
303 279 m 1,19,-1
 325 279 l 2,20,21
 357 279 357 279 372.5 287.5 c 128,-1,22
 388 296 388 296 388 323 c 0,23,24
 388 347 388 347 369 354.5 c 128,-1,25
 350 362 350 362 330 362 c 0,26,27
 322 362 322 362 315.5 361 c 128,-1,28
 309 360 309 360 303 359 c 1,29,-1
 303 279 l 1,19,-1
74 272 m 256,30,31
 74 344 74 344 96.5 398 c 128,-1,32
 119 452 119 452 155.5 488 c 128,-1,33
 192 524 192 524 239.5 541.5 c 128,-1,34
 287 559 287 559 339 559 c 256,35,36
 391 559 391 559 438.5 541.5 c 128,-1,37
 486 524 486 524 523.5 488 c 128,-1,38
 561 452 561 452 583 398 c 128,-1,39
 605 344 605 344 605 272 c 256,40,41
 605 200 605 200 583 146.5 c 128,-1,42
 561 93 561 93 523.5 57 c 128,-1,43
 486 21 486 21 438.5 3 c 128,-1,44
 391 -15 391 -15 339 -15 c 256,45,46
 287 -15 287 -15 239.5 3 c 128,-1,47
 192 21 192 21 155.5 57 c 128,-1,48
 119 93 119 93 96.5 146.5 c 128,-1,49
 74 200 74 200 74 272 c 256,30,31
339 60 m 0,50,51
 373 60 373 60 407 73.5 c 128,-1,52
 441 87 441 87 467.5 114 c 128,-1,53
 494 141 494 141 509.5 181 c 128,-1,54
 525 221 525 221 525 273 c 0,55,56
 525 324 525 324 509.5 363.5 c 128,-1,57
 494 403 494 403 467.5 430 c 128,-1,58
 441 457 441 457 408 471 c 128,-1,59
 375 485 375 485 339 485 c 256,60,61
 304 485 304 485 270.5 471 c 128,-1,62
 237 457 237 457 210.5 430 c 128,-1,63
 184 403 184 403 168 363.5 c 128,-1,64
 152 324 152 324 152 273 c 0,65,66
 152 221 152 221 168 181 c 128,-1,67
 184 141 184 141 210.5 114 c 128,-1,68
 237 87 237 87 270.5 73.5 c 128,-1,69
 304 60 304 60 339 60 c 0,50,51
EndSplineSet
EndChar

StartChar: macron
Encoding: 175 175 138
Width: 588
VWidth: 1177
Flags: W
LayerCount: 2
Fore
SplineSet
278 762 m 1,0,-1
 616 762 l 1,1,-1
 591 660 l 1,2,-1
 252 660 l 1,3,-1
 278 762 l 1,0,-1
EndSplineSet
EndChar

StartChar: degree
Encoding: 176 176 139
Width: 588
VWidth: 1177
Flags: W
LayerCount: 2
Fore
SplineSet
410 822 m 0,0,1
 447 822 447 822 478 811 c 128,-1,2
 509 800 509 800 531.5 778.5 c 128,-1,3
 554 757 554 757 567 726.5 c 128,-1,4
 580 696 580 696 580 658 c 256,5,6
 580 620 580 620 567 590.5 c 128,-1,7
 554 561 554 561 531.5 539.5 c 128,-1,8
 509 518 509 518 477.5 507 c 128,-1,9
 446 496 446 496 410 496 c 0,10,11
 333 496 333 496 286.5 539 c 128,-1,12
 240 582 240 582 240 658 c 256,13,14
 240 735 240 735 287.5 778.5 c 128,-1,15
 335 822 335 822 410 822 c 0,0,1
410 595 m 0,16,17
 438 595 438 595 456.5 611 c 128,-1,18
 475 627 475 627 475 660 c 256,19,20
 475 693 475 693 456.5 708 c 128,-1,21
 438 723 438 723 410 723 c 0,22,23
 384 723 384 723 365 708 c 128,-1,24
 346 693 346 693 346 660 c 256,25,26
 346 627 346 627 364.5 611 c 128,-1,27
 383 595 383 595 410 595 c 0,16,17
EndSplineSet
EndChar

StartChar: plusminus
Encoding: 177 177 140
Width: 588
VWidth: 1177
Flags: W
LayerCount: 2
Fore
SplineSet
55 120 m 1,0,-1
 549 120 l 1,1,-1
 521 0 l 1,2,-1
 27 0 l 1,3,-1
 55 120 l 1,0,-1
139 473 m 1,4,-1
 324 473 l 1,5,-1
 367 657 l 1,6,-1
 492 657 l 1,7,-1
 449 473 l 1,8,-1
 634 473 l 1,9,-1
 605 353 l 1,10,-1
 420 353 l 1,11,-1
 376 168 l 1,12,-1
 251 168 l 1,13,-1
 296 353 l 1,14,-1
 111 353 l 1,15,-1
 139 473 l 1,4,-1
EndSplineSet
EndChar

StartChar: twosuperior
Encoding: 178 178 141
Width: 588
VWidth: 1177
Flags: W
LayerCount: 2
Fore
SplineSet
535 413 m 1,0,-1
 511 318 l 1,1,-1
 210 318 l 1,2,3
 210 350 210 350 215.5 378 c 128,-1,4
 221 406 221 406 237 431.5 c 128,-1,5
 253 457 253 457 281.5 480.5 c 128,-1,6
 310 504 310 504 353 528 c 0,7,8
 384 546 384 546 401.5 557.5 c 128,-1,9
 419 569 419 569 428.5 579 c 128,-1,10
 438 589 438 589 441 598 c 128,-1,11
 444 607 444 607 444 617 c 0,12,13
 444 630 444 630 433.5 639 c 128,-1,14
 423 648 423 648 405 648 c 0,15,16
 385 648 385 648 358.5 636 c 128,-1,17
 332 624 332 624 298 597 c 1,18,-1
 259 681 l 1,19,20
 293 712 293 712 336 729 c 128,-1,21
 379 746 379 746 426 746 c 0,22,23
 452 746 452 746 475.5 739.5 c 128,-1,24
 499 733 499 733 517 720 c 128,-1,25
 535 707 535 707 545.5 685.5 c 128,-1,26
 556 664 556 664 556 636 c 0,27,28
 556 588 556 588 531 551.5 c 128,-1,29
 506 515 506 515 449 479 c 0,30,31
 435 470 435 470 420 461 c 128,-1,32
 405 452 405 452 392 443.5 c 128,-1,33
 379 435 379 435 369.5 427 c 128,-1,34
 360 419 360 419 357 413 c 1,35,-1
 535 413 l 1,0,-1
EndSplineSet
Substitution2: "Single Substitution lookup 22 subtable" twoinferior
Substitution2: "'sinf' Scientific Inferiors lookup 11 subtable" two.sinf
Substitution2: "'subs' Subscript lookup 10 subtable" two.sinf
Substitution2: "'sups' Superscript lookup 9 subtable" two.sups
Substitution2: "'dnom' Denominators lookup 8 subtable" twoinferior
EndChar

StartChar: threesuperior
Encoding: 179 179 142
Width: 588
VWidth: 1177
Flags: W
LayerCount: 2
Fore
SplineSet
240 431 m 1,0,1
 260 418 260 418 290 410.5 c 128,-1,2
 320 403 320 403 351 403 c 0,3,4
 385 403 385 403 410.5 414.5 c 128,-1,5
 436 426 436 426 436 453 c 0,6,7
 436 471 436 471 420 481 c 128,-1,8
 404 491 404 491 369 491 c 2,9,-1
 316 491 l 1,10,-1
 337 572 l 1,11,-1
 384 572 l 2,12,13
 418 572 418 572 436.5 587.5 c 128,-1,14
 455 603 455 603 455 622 c 0,15,16
 455 635 455 635 443 644.5 c 128,-1,17
 431 654 431 654 406 654 c 0,18,19
 379 654 379 654 352 645 c 128,-1,20
 325 636 325 636 304 625 c 1,21,-1
 282 710 l 1,22,23
 309 723 309 723 350.5 734.5 c 128,-1,24
 392 746 392 746 433 746 c 0,25,26
 458 746 458 746 481 741 c 128,-1,27
 504 736 504 736 521 724.5 c 128,-1,28
 538 713 538 713 548 693.5 c 128,-1,29
 558 674 558 674 558 644 c 0,30,31
 558 613 558 613 540.5 584.5 c 128,-1,32
 523 556 523 556 489 541 c 1,33,34
 513 529 513 529 526 505.5 c 128,-1,35
 539 482 539 482 539 453 c 0,36,37
 539 414 539 414 522 386.5 c 128,-1,38
 505 359 505 359 478 341.5 c 128,-1,39
 451 324 451 324 416.5 316.5 c 128,-1,40
 382 309 382 309 345 309 c 0,41,42
 304 309 304 309 264.5 317.5 c 128,-1,43
 225 326 225 326 198 343 c 1,44,-1
 240 431 l 1,0,1
EndSplineSet
Substitution2: "Single Substitution lookup 22 subtable" threeinferior
Substitution2: "'sinf' Scientific Inferiors lookup 11 subtable" three.sinf
Substitution2: "'subs' Subscript lookup 10 subtable" three.sinf
Substitution2: "'sups' Superscript lookup 9 subtable" three.sups
Substitution2: "'dnom' Denominators lookup 8 subtable" threeinferior
EndChar

StartChar: acute
Encoding: 180 180 143
Width: 588
VWidth: 1177
Flags: W
LayerCount: 2
Fore
SplineSet
583 703 m 1,0,-1
 378 596 l 1,1,-1
 325 675 l 1,2,-1
 511 814 l 1,3,-1
 583 703 l 1,0,-1
EndSplineSet
EndChar

StartChar: mu
Encoding: 181 181 144
Width: 588
VWidth: 1177
Flags: W
LayerCount: 2
Fore
SplineSet
544 234 m 2,0,1
 531 188 531 188 531 158 c 0,2,3
 531 116 531 116 577 107 c 1,4,-1
 536 -12 l 1,5,6
 483 -11 483 -11 456.5 3.5 c 128,-1,7
 430 18 430 18 413 42 c 1,8,9
 389 22 389 22 355.5 4.5 c 128,-1,10
 322 -13 322 -13 278 -13 c 0,11,12
 247 -13 247 -13 222.5 -4.5 c 128,-1,13
 198 4 198 4 183 16 c 1,14,15
 182 -15 182 -15 177.5 -40.5 c 128,-1,16
 173 -66 173 -66 166 -97 c 2,17,-1
 143 -194 l 1,18,-1
 1 -194 l 1,19,-1
 180 554 l 1,20,-1
 324 554 l 1,21,-1
 260 289 l 2,22,23
 253 262 253 262 246.5 233 c 128,-1,24
 240 204 240 204 240 180 c 0,25,26
 240 151 240 151 253.5 132 c 128,-1,27
 267 113 267 113 302 113 c 0,28,29
 335 113 335 113 356 125 c 128,-1,30
 377 137 377 137 393 148 c 1,31,32
 389 167 389 167 391 187 c 128,-1,33
 393 207 393 207 398 227 c 2,34,-1
 477 554 l 1,35,-1
 621 554 l 1,36,-1
 544 234 l 2,0,1
EndSplineSet
EndChar

StartChar: paragraph
Encoding: 182 182 145
Width: 588
VWidth: 1177
Flags: W
LayerCount: 2
Fore
SplineSet
247 273 m 1,0,1
 178 287 178 287 144 330 c 128,-1,2
 110 373 110 373 110 437 c 0,3,4
 110 509 110 509 139 565.5 c 128,-1,5
 168 622 168 622 219 659.5 c 128,-1,6
 270 697 270 697 335 717 c 128,-1,7
 400 737 400 737 473 737 c 0,8,9
 530 737 530 737 587 730.5 c 128,-1,10
 644 724 644 724 686 713 c 1,11,-1
 468 -194 l 1,12,-1
 349 -194 l 1,13,-1
 543 615 l 1,14,15
 535 616 535 616 517 617 c 128,-1,16
 499 618 499 618 479 618 c 0,17,18
 471 618 471 618 463.5 618 c 128,-1,19
 456 618 456 618 449 617 c 1,20,-1
 254 -194 l 1,21,-1
 134 -194 l 1,22,-1
 247 273 l 1,0,1
EndSplineSet
EndChar

StartChar: cedilla
Encoding: 184 184 147
Width: 588
VWidth: 1177
Flags: W
LayerCount: 2
Fore
SplineSet
347 -29 m 1,0,1
 373 -42 373 -42 384 -60 c 128,-1,2
 395 -78 395 -78 395 -99 c 0,3,4
 395 -147 395 -147 354 -173.5 c 128,-1,5
 313 -200 313 -200 250 -200 c 0,6,7
 193 -200 193 -200 148 -177 c 1,8,-1
 179 -108 l 1,9,10
 192 -115 192 -115 209 -119.5 c 128,-1,11
 226 -124 226 -124 243 -124 c 0,12,13
 270 -124 270 -124 278.5 -113 c 128,-1,14
 287 -102 287 -102 287 -94 c 0,15,16
 287 -81 287 -81 280.5 -72.5 c 128,-1,17
 274 -64 274 -64 257 -58 c 2,18,-1
 236 -51 l 1,19,20
 250 -29 250 -29 261.5 -12.5 c 128,-1,21
 273 4 273 4 286 21 c 1,22,-1
 383 21 l 1,23,24
 374 9 374 9 365 -3.5 c 128,-1,25
 356 -16 356 -16 347 -29 c 1,0,1
EndSplineSet
EndChar

StartChar: onesuperior
Encoding: 185 185 148
Width: 588
VWidth: 1177
Flags: W
LayerCount: 2
Fore
SplineSet
207 413 m 1,0,-1
 319 413 l 1,1,-1
 364 602 l 1,2,3
 340 589 340 589 316 580 c 128,-1,4
 292 571 292 571 258 558 c 1,5,-1
 246 650 l 1,6,7
 295 668 295 668 341.5 690.5 c 128,-1,8
 388 713 388 713 425 737 c 1,9,-1
 516 737 l 1,10,-1
 438 413 l 1,11,-1
 534 413 l 1,12,-1
 510 318 l 1,13,-1
 184 318 l 1,14,-1
 207 413 l 1,0,-1
EndSplineSet
Substitution2: "Single Substitution lookup 22 subtable" oneinferior
Substitution2: "'sinf' Scientific Inferiors lookup 11 subtable" one.sinf
Substitution2: "'subs' Subscript lookup 10 subtable" one.sinf
Substitution2: "'sups' Superscript lookup 9 subtable" one.sups
Substitution2: "'dnom' Denominators lookup 8 subtable" oneinferior
EndChar

StartChar: ordmasculine
Encoding: 186 186 149
Width: 588
VWidth: 1177
Flags: W
LayerCount: 2
Fore
SplineSet
313 479 m 0,0,1
 313 440 313 440 332 428.5 c 128,-1,2
 351 417 351 417 375 417 c 256,3,4
 399 417 399 417 420 430 c 128,-1,5
 441 443 441 443 457 466 c 128,-1,6
 473 489 473 489 483.5 520 c 128,-1,7
 494 551 494 551 494 588 c 0,8,9
 494 627 494 627 475 639 c 128,-1,10
 456 651 456 651 432 651 c 256,11,12
 408 651 408 651 387 637.5 c 128,-1,13
 366 624 366 624 349.5 601 c 128,-1,14
 333 578 333 578 323 547 c 128,-1,15
 313 516 313 516 313 479 c 0,0,1
204 471 m 0,16,17
 204 524 204 524 219 573.5 c 128,-1,18
 234 623 234 623 264 661.5 c 128,-1,19
 294 700 294 700 339.5 723 c 128,-1,20
 385 746 385 746 444 746 c 0,21,22
 526 746 526 746 564.5 705.5 c 128,-1,23
 603 665 603 665 603 596 c 0,24,25
 603 544 603 544 587.5 494.5 c 128,-1,26
 572 445 572 445 542 407 c 128,-1,27
 512 369 512 369 467 345.5 c 128,-1,28
 422 322 422 322 363 322 c 0,29,30
 281 322 281 322 242.5 362 c 128,-1,31
 204 402 204 402 204 471 c 0,16,17
EndSplineSet
EndChar

StartChar: guillemotright
Encoding: 187 187 150
Width: 588
VWidth: 1177
Flags: W
LayerCount: 2
Fore
SplineSet
461 304 m 1,0,-1
 392 503 l 1,1,-1
 475 545 l 1,2,-1
 589 294 l 1,3,-1
 385 54 l 1,4,-1
 311 107 l 1,5,-1
 461 304 l 1,0,-1
225 304 m 1,6,-1
 157 503 l 1,7,-1
 239 545 l 1,8,-1
 353 294 l 1,9,-1
 150 54 l 1,10,-1
 75 107 l 1,11,-1
 225 304 l 1,6,-1
EndSplineSet
Substitution2: "'case' Case-Sensitive Forms lookup 17 subtable" Guillemotright
EndChar

StartChar: onequarter
Encoding: 188 188 151
Width: 588
VWidth: 1177
Flags: W
LayerCount: 2
Fore
SplineSet
588 294 m 1,0,-1
 545 117 l 1,1,-1
 588 117 l 1,2,-1
 571 46 l 1,3,-1
 529 46 l 1,4,-1
 517 0 l 1,5,-1
 432 0 l 1,6,-1
 444 46 l 1,7,-1
 293 46 l 1,8,-1
 307 104 l 1,9,10
 328 131 328 131 346.5 154 c 128,-1,11
 365 177 365 177 383.5 199 c 128,-1,12
 402 221 402 221 423 244 c 128,-1,13
 444 267 444 267 470 294 c 1,14,-1
 588 294 l 1,0,-1
133 656 m 1,15,16
 178 674 178 674 211 692 c 128,-1,17
 244 710 244 710 280 737 c 1,18,-1
 355 737 l 1,19,-1
 283 443 l 1,20,-1
 181 443 l 1,21,-1
 225 620 l 1,22,23
 199 607 199 607 181 599.5 c 128,-1,24
 163 592 163 592 139 587 c 1,25,-1
 133 656 l 1,15,16
486 221 m 1,26,27
 462 197 462 197 439.5 168.5 c 128,-1,28
 417 140 417 140 398 117 c 1,29,-1
 461 117 l 1,30,-1
 486 221 l 1,26,27
676 729 m 1,31,-1
 128 0 l 1,32,-1
 15 0 l 1,33,-1
 562 729 l 1,34,-1
 676 729 l 1,31,-1
EndSplineSet
Ligature2: "'frac' Diagonal Fractions lookup 13 subtable" one.sinf fraction four.sinf
Ligature2: "'frac' Diagonal Fractions lookup 13 subtable" one.sinf fraction four.sups
Ligature2: "'frac' Diagonal Fractions lookup 13 subtable" one.sinf fraction fourinferior
Ligature2: "'frac' Diagonal Fractions lookup 13 subtable" one.sinf fraction foursuperior
Ligature2: "'frac' Diagonal Fractions lookup 13 subtable" one.sinf fraction four
Ligature2: "'frac' Diagonal Fractions lookup 13 subtable" one.sups fraction four.sinf
Ligature2: "'frac' Diagonal Fractions lookup 13 subtable" one.sups fraction four.sups
Ligature2: "'frac' Diagonal Fractions lookup 13 subtable" one.sups fraction fourinferior
Ligature2: "'frac' Diagonal Fractions lookup 13 subtable" one.sups fraction foursuperior
Ligature2: "'frac' Diagonal Fractions lookup 13 subtable" one.sups fraction four
Ligature2: "'frac' Diagonal Fractions lookup 13 subtable" oneinferior fraction four.sinf
Ligature2: "'frac' Diagonal Fractions lookup 13 subtable" oneinferior fraction four.sups
Ligature2: "'frac' Diagonal Fractions lookup 13 subtable" oneinferior fraction fourinferior
Ligature2: "'frac' Diagonal Fractions lookup 13 subtable" oneinferior fraction foursuperior
Ligature2: "'frac' Diagonal Fractions lookup 13 subtable" oneinferior fraction four
Ligature2: "'frac' Diagonal Fractions lookup 13 subtable" onesuperior fraction four.sinf
Ligature2: "'frac' Diagonal Fractions lookup 13 subtable" onesuperior fraction four.sups
Ligature2: "'frac' Diagonal Fractions lookup 13 subtable" onesuperior fraction fourinferior
Ligature2: "'frac' Diagonal Fractions lookup 13 subtable" onesuperior fraction foursuperior
Ligature2: "'frac' Diagonal Fractions lookup 13 subtable" onesuperior fraction four
Ligature2: "'frac' Diagonal Fractions lookup 13 subtable" one fraction four.sinf
Ligature2: "'frac' Diagonal Fractions lookup 13 subtable" one fraction four.sups
Ligature2: "'frac' Diagonal Fractions lookup 13 subtable" one fraction fourinferior
Ligature2: "'frac' Diagonal Fractions lookup 13 subtable" one fraction foursuperior
Ligature2: "'frac' Diagonal Fractions lookup 13 subtable" one fraction four
EndChar

StartChar: onehalf
Encoding: 189 189 152
Width: 588
VWidth: 1177
Flags: W
LayerCount: 2
Fore
SplineSet
674 729 m 1,0,-1
 126 0 l 1,1,-1
 14 0 l 1,2,-1
 561 729 l 1,3,-1
 674 729 l 1,0,-1
133 656 m 1,4,5
 178 674 178 674 211 692 c 128,-1,6
 244 710 244 710 280 737 c 1,7,-1
 355 737 l 1,8,-1
 283 443 l 1,9,-1
 181 443 l 1,10,-1
 225 620 l 1,11,12
 199 607 199 607 181 599.5 c 128,-1,13
 163 592 163 592 139 587 c 1,14,-1
 133 656 l 1,4,5
570 73 m 1,15,-1
 552 0 l 1,16,-1
 316 0 l 1,17,18
 318 55 318 55 343.5 84 c 128,-1,19
 369 113 369 113 416 137 c 0,20,21
 460 159 460 159 479 172 c 128,-1,22
 498 185 498 185 498 201 c 0,23,24
 498 212 498 212 490.5 217.5 c 128,-1,25
 483 223 483 223 470 223 c 0,26,27
 451 223 451 223 431.5 213.5 c 128,-1,28
 412 204 412 204 393 188 c 1,29,-1
 360 250 l 1,30,31
 384 275 384 275 420 290 c 128,-1,32
 456 305 456 305 494 305 c 0,33,34
 543 305 543 305 566.5 282 c 128,-1,35
 590 259 590 259 590 221 c 0,36,37
 590 196 590 196 582.5 178.5 c 128,-1,38
 575 161 575 161 562 147.5 c 128,-1,39
 549 134 549 134 532.5 124 c 128,-1,40
 516 114 516 114 497 105 c 0,41,42
 483 98 483 98 466.5 89.5 c 128,-1,43
 450 81 450 81 441 73 c 1,44,-1
 570 73 l 1,15,-1
EndSplineSet
Ligature2: "'frac' Diagonal Fractions lookup 13 subtable" one.sinf fraction two.sinf
Ligature2: "'frac' Diagonal Fractions lookup 13 subtable" one.sinf fraction two.sups
Ligature2: "'frac' Diagonal Fractions lookup 13 subtable" one.sinf fraction twoinferior
Ligature2: "'frac' Diagonal Fractions lookup 13 subtable" one.sinf fraction twosuperior
Ligature2: "'frac' Diagonal Fractions lookup 13 subtable" one.sinf fraction two
Ligature2: "'frac' Diagonal Fractions lookup 13 subtable" one.sups fraction two.sinf
Ligature2: "'frac' Diagonal Fractions lookup 13 subtable" one.sups fraction two.sups
Ligature2: "'frac' Diagonal Fractions lookup 13 subtable" one.sups fraction twoinferior
Ligature2: "'frac' Diagonal Fractions lookup 13 subtable" one.sups fraction twosuperior
Ligature2: "'frac' Diagonal Fractions lookup 13 subtable" one.sups fraction two
Ligature2: "'frac' Diagonal Fractions lookup 13 subtable" oneinferior fraction two.sinf
Ligature2: "'frac' Diagonal Fractions lookup 13 subtable" oneinferior fraction two.sups
Ligature2: "'frac' Diagonal Fractions lookup 13 subtable" oneinferior fraction twoinferior
Ligature2: "'frac' Diagonal Fractions lookup 13 subtable" oneinferior fraction twosuperior
Ligature2: "'frac' Diagonal Fractions lookup 13 subtable" oneinferior fraction two
Ligature2: "'frac' Diagonal Fractions lookup 13 subtable" onesuperior fraction two.sinf
Ligature2: "'frac' Diagonal Fractions lookup 13 subtable" onesuperior fraction two.sups
Ligature2: "'frac' Diagonal Fractions lookup 13 subtable" onesuperior fraction twoinferior
Ligature2: "'frac' Diagonal Fractions lookup 13 subtable" onesuperior fraction twosuperior
Ligature2: "'frac' Diagonal Fractions lookup 13 subtable" onesuperior fraction two
Ligature2: "'frac' Diagonal Fractions lookup 13 subtable" one fraction two.sinf
Ligature2: "'frac' Diagonal Fractions lookup 13 subtable" one fraction two.sups
Ligature2: "'frac' Diagonal Fractions lookup 13 subtable" one fraction twoinferior
Ligature2: "'frac' Diagonal Fractions lookup 13 subtable" one fraction twosuperior
Ligature2: "'frac' Diagonal Fractions lookup 13 subtable" one fraction two
EndChar

StartChar: threequarters
Encoding: 190 190 153
Width: 588
VWidth: 1177
Flags: W
LayerCount: 2
Fore
SplineSet
698 729 m 1,0,-1
 151 0 l 1,1,-1
 38 0 l 1,2,-1
 584 729 l 1,3,-1
 698 729 l 1,0,-1
132 524 m 1,4,5
 144 518 144 518 165 512 c 128,-1,6
 186 506 186 506 210 506 c 0,7,8
 218 506 218 506 228.5 507 c 128,-1,9
 239 508 239 508 248.5 511 c 128,-1,10
 258 514 258 514 264.5 519.5 c 128,-1,11
 271 525 271 525 271 537 c 0,12,13
 271 563 271 563 207 563 c 2,14,-1
 184 563 l 1,15,-1
 199 624 l 1,16,-1
 226 624 l 2,17,18
 235 624 235 624 246.5 625.5 c 128,-1,19
 258 627 258 627 267.5 630 c 128,-1,20
 277 633 277 633 283 638.5 c 128,-1,21
 289 644 289 644 289 654 c 0,22,23
 289 665 289 665 279.5 669.5 c 128,-1,24
 270 674 270 674 254 674 c 0,25,26
 230 674 230 674 207.5 666 c 128,-1,27
 185 658 185 658 172 653 c 1,28,-1
 158 716 l 1,29,30
 178 729 178 729 212 737.5 c 128,-1,31
 246 746 246 746 280 746 c 0,32,33
 335 746 335 746 358.5 726.5 c 128,-1,34
 382 707 382 707 382 681 c 256,35,36
 382 655 382 655 370 636.5 c 128,-1,37
 358 618 358 618 326 601 c 1,38,39
 352 592 352 592 361.5 577 c 128,-1,40
 371 562 371 562 371 544 c 0,41,42
 371 513 371 513 357 492 c 128,-1,43
 343 471 343 471 321 457.5 c 128,-1,44
 299 444 299 444 271.5 438 c 128,-1,45
 244 432 244 432 218 432 c 0,46,47
 173 432 173 432 145 438.5 c 128,-1,48
 117 445 117 445 100 455 c 1,49,-1
 132 524 l 1,4,5
588 294 m 1,50,-1
 545 117 l 1,51,-1
 588 117 l 1,52,-1
 571 46 l 1,53,-1
 529 46 l 1,54,-1
 517 0 l 1,55,-1
 432 0 l 1,56,-1
 444 46 l 1,57,-1
 293 46 l 1,58,-1
 307 104 l 1,59,60
 328 131 328 131 346.5 154 c 128,-1,61
 365 177 365 177 383.5 199 c 128,-1,62
 402 221 402 221 423 244 c 128,-1,63
 444 267 444 267 470 294 c 1,64,-1
 588 294 l 1,50,-1
486 221 m 1,65,66
 462 197 462 197 439.5 168.5 c 128,-1,67
 417 140 417 140 398 117 c 1,68,-1
 461 117 l 1,69,-1
 486 221 l 1,65,66
EndSplineSet
Ligature2: "'frac' Diagonal Fractions lookup 13 subtable" three.sinf fraction four.sinf
Ligature2: "'frac' Diagonal Fractions lookup 13 subtable" three.sinf fraction four.sups
Ligature2: "'frac' Diagonal Fractions lookup 13 subtable" three.sinf fraction fourinferior
Ligature2: "'frac' Diagonal Fractions lookup 13 subtable" three.sinf fraction foursuperior
Ligature2: "'frac' Diagonal Fractions lookup 13 subtable" three.sinf fraction four
Ligature2: "'frac' Diagonal Fractions lookup 13 subtable" three.sups fraction four.sinf
Ligature2: "'frac' Diagonal Fractions lookup 13 subtable" three.sups fraction four.sups
Ligature2: "'frac' Diagonal Fractions lookup 13 subtable" three.sups fraction fourinferior
Ligature2: "'frac' Diagonal Fractions lookup 13 subtable" three.sups fraction foursuperior
Ligature2: "'frac' Diagonal Fractions lookup 13 subtable" three.sups fraction four
Ligature2: "'frac' Diagonal Fractions lookup 13 subtable" threeinferior fraction four.sinf
Ligature2: "'frac' Diagonal Fractions lookup 13 subtable" threeinferior fraction four.sups
Ligature2: "'frac' Diagonal Fractions lookup 13 subtable" threeinferior fraction fourinferior
Ligature2: "'frac' Diagonal Fractions lookup 13 subtable" threeinferior fraction foursuperior
Ligature2: "'frac' Diagonal Fractions lookup 13 subtable" threeinferior fraction four
Ligature2: "'frac' Diagonal Fractions lookup 13 subtable" threesuperior fraction four.sinf
Ligature2: "'frac' Diagonal Fractions lookup 13 subtable" threesuperior fraction four.sups
Ligature2: "'frac' Diagonal Fractions lookup 13 subtable" threesuperior fraction fourinferior
Ligature2: "'frac' Diagonal Fractions lookup 13 subtable" threesuperior fraction foursuperior
Ligature2: "'frac' Diagonal Fractions lookup 13 subtable" threesuperior fraction four
Ligature2: "'frac' Diagonal Fractions lookup 13 subtable" three fraction four.sinf
Ligature2: "'frac' Diagonal Fractions lookup 13 subtable" three fraction four.sups
Ligature2: "'frac' Diagonal Fractions lookup 13 subtable" three fraction fourinferior
Ligature2: "'frac' Diagonal Fractions lookup 13 subtable" three fraction foursuperior
Ligature2: "'frac' Diagonal Fractions lookup 13 subtable" three fraction four
EndChar

StartChar: questiondown
Encoding: 191 191 154
Width: 588
VWidth: 1177
Flags: W
LayerCount: 2
Fore
SplineSet
402 357 m 0,0,1
 364 357 364 357 339 378.5 c 128,-1,2
 314 400 314 400 314 444 c 0,3,4
 314 468 314 468 323 488 c 128,-1,5
 332 508 332 508 347 522.5 c 128,-1,6
 362 537 362 537 380.5 545.5 c 128,-1,7
 399 554 399 554 420 554 c 0,8,9
 457 554 457 554 482.5 531.5 c 128,-1,10
 508 509 508 509 508 465 c 0,11,12
 508 440 508 440 499 420 c 128,-1,13
 490 400 490 400 475.5 386 c 128,-1,14
 461 372 461 372 441.5 364.5 c 128,-1,15
 422 357 422 357 402 357 c 0,0,1
291 -79 m 0,16,17
 330 -79 330 -79 363 -66.5 c 128,-1,18
 396 -54 396 -54 442 -34 c 1,19,-1
 459 -146 l 1,20,21
 411 -172 411 -172 359 -186 c 128,-1,22
 307 -200 307 -200 251 -200 c 0,23,24
 199 -200 199 -200 163 -188.5 c 128,-1,25
 127 -177 127 -177 104 -156 c 128,-1,26
 81 -135 81 -135 70.5 -108 c 128,-1,27
 60 -81 60 -81 60 -49 c 0,28,29
 60 -14 60 -14 70.5 13.5 c 128,-1,30
 81 41 81 41 99.5 64.5 c 128,-1,31
 118 88 118 88 142.5 109 c 128,-1,32
 167 130 167 130 197 150 c 0,33,34
 224 169 224 169 242.5 183.5 c 128,-1,35
 261 198 261 198 275 212 c 128,-1,36
 289 226 289 226 298 242 c 128,-1,37
 307 258 307 258 314 280 c 1,38,-1
 449 280 l 1,39,40
 444 253 444 253 435 230 c 128,-1,41
 426 207 426 207 411 185 c 128,-1,42
 396 163 396 163 373 141.5 c 128,-1,43
 350 120 350 120 317 97 c 0,44,45
 289 76 289 76 269.5 61 c 128,-1,46
 250 46 250 46 238.5 33 c 128,-1,47
 227 20 227 20 222 6.5 c 128,-1,48
 217 -7 217 -7 217 -25 c 0,49,50
 217 -79 217 -79 291 -79 c 0,16,17
EndSplineSet
Substitution2: "'case' Case-Sensitive Forms lookup 17 subtable" Questiondown
EndChar

StartChar: Aring
Encoding: 197 197 160
Width: 588
VWidth: 1177
Flags: W
LayerCount: 2
Fore
SplineSet
419 170 m 1,0,-1
 212 170 l 1,1,2
 194 130 194 130 175.5 87.5 c 128,-1,3
 157 45 157 45 140 0 c 1,4,-1
 -7 0 l 1,5,6
 92 216 92 216 184 397 c 128,-1,7
 276 578 276 578 363 721 c 1,8,9
 348 736 348 736 339 758 c 128,-1,10
 330 780 330 780 330 807 c 0,11,12
 330 836 330 836 340 859 c 128,-1,13
 350 882 350 882 367 897.5 c 128,-1,14
 384 913 384 913 406.5 920.5 c 128,-1,15
 429 928 429 928 452 928 c 0,16,17
 503 928 503 928 540 897.5 c 128,-1,18
 577 867 577 867 577 807 c 0,19,20
 577 770 577 770 562.5 745 c 128,-1,21
 548 720 548 720 524 706 c 1,22,23
 540 551 540 551 551.5 376 c 128,-1,24
 563 201 563 201 561 0 c 1,25,-1
 415 0 l 1,26,-1
 419 170 l 1,0,-1
415 591 m 1,27,28
 400 562 400 562 385 533.5 c 128,-1,29
 370 505 370 505 353 470.5 c 128,-1,30
 336 436 336 436 314.5 391 c 128,-1,31
 293 346 293 346 266 286 c 1,32,-1
 422 286 l 1,33,34
 423 346 423 346 422.5 391 c 128,-1,35
 422 436 422 436 420.5 470.5 c 128,-1,36
 419 505 419 505 417.5 534 c 128,-1,37
 416 563 416 563 415 591 c 1,27,28
501 807 m 0,38,39
 501 832 501 832 486.5 844 c 128,-1,40
 472 856 472 856 452 856 c 0,41,42
 434 856 434 856 419.5 844 c 128,-1,43
 405 832 405 832 405 807 c 0,44,45
 405 783 405 783 420 770 c 128,-1,46
 435 757 435 757 452 757 c 0,47,48
 472 757 472 757 486.5 770 c 128,-1,49
 501 783 501 783 501 807 c 0,38,39
EndSplineSet
EndChar

StartChar: AE
Encoding: 198 198 161
Width: 588
VWidth: 1177
Flags: W
LayerCount: 2
Fore
SplineSet
319 170 m 1,0,-1
 203 170 l 1,1,-1
 130 0 l 1,2,-1
 -15 0 l 1,3,4
 45 125 45 125 92.5 221.5 c 128,-1,5
 140 318 140 318 184.5 401 c 128,-1,6
 229 484 229 484 274 562.5 c 128,-1,7
 319 641 319 641 376 729 c 1,8,-1
 713 729 l 1,9,-1
 684 609 l 1,10,-1
 552 609 l 1,11,-1
 512 445 l 1,12,-1
 617 445 l 1,13,-1
 589 325 l 1,14,-1
 484 325 l 1,15,-1
 435 120 l 1,16,-1
 583 120 l 1,17,-1
 555 0 l 1,18,-1
 279 0 l 1,19,-1
 319 170 l 1,0,-1
430 631 m 1,20,21
 385 552 385 552 342.5 468.5 c 128,-1,22
 300 385 300 385 256 286 c 1,23,-1
 347 286 l 1,24,-1
 430 631 l 1,20,21
EndSplineSet
EndChar

StartChar: Ccedilla
Encoding: 199 199 162
Width: 588
VWidth: 1177
Flags: W
LayerCount: 2
Fore
SplineSet
353 -29 m 1,0,1
 379 -42 379 -42 389.5 -60 c 128,-1,2
 400 -78 400 -78 400 -99 c 0,3,4
 400 -147 400 -147 359.5 -173.5 c 128,-1,5
 319 -200 319 -200 256 -200 c 0,6,7
 199 -200 199 -200 154 -177 c 1,8,-1
 185 -108 l 1,9,10
 198 -115 198 -115 215 -119.5 c 128,-1,11
 232 -124 232 -124 249 -124 c 0,12,13
 276 -124 276 -124 284.5 -113 c 128,-1,14
 293 -102 293 -102 293 -94 c 0,15,16
 293 -81 293 -81 286.5 -72.5 c 128,-1,17
 280 -64 280 -64 263 -58 c 2,18,-1
 241 -51 l 1,19,-1
 270 -8 l 1,20,21
 185 12 185 12 144.5 77.5 c 128,-1,22
 104 143 104 143 104 241 c 0,23,24
 104 329 104 329 128 419.5 c 128,-1,25
 152 510 152 510 200.5 582.5 c 128,-1,26
 249 655 249 655 322.5 700.5 c 128,-1,27
 396 746 396 746 495 746 c 0,28,29
 533 746 533 746 562 738.5 c 128,-1,30
 591 731 591 731 613.5 722.5 c 128,-1,31
 636 714 636 714 650 704 c 128,-1,32
 664 694 664 694 670 689 c 1,33,-1
 616 577 l 1,34,35
 592 595 592 595 560.5 607.5 c 128,-1,36
 529 620 529 620 479 620 c 0,37,38
 421 620 421 620 378.5 585.5 c 128,-1,39
 336 551 336 551 307 498 c 128,-1,40
 278 445 278 445 264 381 c 128,-1,41
 250 317 250 317 250 256 c 0,42,43
 250 224 250 224 256.5 198 c 128,-1,44
 263 172 263 172 277.5 152.5 c 128,-1,45
 292 133 292 133 316 122.5 c 128,-1,46
 340 112 340 112 376 112 c 0,47,48
 430 112 430 112 466.5 125 c 128,-1,49
 503 138 503 138 527 152 c 1,50,-1
 543 35 l 1,51,52
 516 19 516 19 469.5 3.5 c 128,-1,53
 423 -12 423 -12 363 -14 c 1,54,-1
 353 -29 l 1,0,1
EndSplineSet
EndChar

StartChar: Eth
Encoding: 208 208 171
Width: 588
VWidth: 1177
Flags: W
LayerCount: 2
Fore
SplineSet
623 482 m 0,0,1
 623 388 623 388 600.5 299 c 128,-1,2
 578 210 578 210 530 141.5 c 128,-1,3
 482 73 482 73 406.5 32 c 128,-1,4
 331 -9 331 -9 224 -9 c 0,5,6
 185 -9 185 -9 142.5 -5 c 128,-1,7
 100 -1 100 -1 59 8 c 1,8,-1
 133 318 l 1,9,-1
 65 318 l 1,10,-1
 94 438 l 1,11,-1
 161 438 l 1,12,-1
 230 720 l 1,13,14
 275 731 275 731 310.5 734 c 128,-1,15
 346 737 346 737 382 737 c 0,16,17
 436 737 436 737 480 720 c 128,-1,18
 524 703 524 703 556 670 c 128,-1,19
 588 637 588 637 605.5 590 c 128,-1,20
 623 543 623 543 623 482 c 0,0,1
276 318 m 1,21,-1
 227 118 l 1,22,23
 233 117 233 117 240 117 c 128,-1,24
 247 117 247 117 250 117 c 0,25,26
 314 117 314 117 357 151.5 c 128,-1,27
 400 186 400 186 427.5 239.5 c 128,-1,28
 455 293 455 293 466.5 356.5 c 128,-1,29
 478 420 478 420 478 477 c 0,30,31
 478 535 478 535 457.5 573 c 128,-1,32
 437 611 437 611 379 611 c 0,33,34
 370 611 370 611 361 611 c 128,-1,35
 352 611 352 611 345 610 c 1,36,-1
 305 438 l 1,37,-1
 377 438 l 1,38,-1
 347 318 l 1,39,-1
 276 318 l 1,21,-1
EndSplineSet
EndChar

StartChar: multiply
Encoding: 215 215 178
Width: 588
VWidth: 1177
Flags: W
LayerCount: 2
Fore
SplineSet
88 170 m 1,0,-1
 269 314 l 1,1,-1
 153 466 l 1,2,-1
 254 548 l 1,3,-1
 370 397 l 1,4,-1
 556 548 l 1,5,-1
 625 456 l 1,6,-1
 441 305 l 1,7,-1
 554 159 l 1,8,-1
 450 78 l 1,9,-1
 339 224 l 1,10,-1
 159 78 l 1,11,-1
 88 170 l 1,0,-1
EndSplineSet
EndChar

StartChar: Oslash
Encoding: 216 216 179
Width: 588
VWidth: 1177
Flags: W
LayerCount: 2
Fore
SplineSet
432 746 m 0,0,1
 490 746 490 746 534 722 c 1,2,-1
 569 776 l 1,3,-1
 654 729 l 1,4,-1
 604 654 l 1,5,6
 619 626 619 626 627.5 592 c 128,-1,7
 636 558 636 558 636 519 c 0,8,9
 636 473 636 473 629 415.5 c 128,-1,10
 622 358 622 358 605.5 298.5 c 128,-1,11
 589 239 589 239 562 182.5 c 128,-1,12
 535 126 535 126 496 82 c 128,-1,13
 457 38 457 38 404.5 11.5 c 128,-1,14
 352 -15 352 -15 284 -15 c 0,15,16
 253 -15 253 -15 226.5 -8.5 c 128,-1,17
 200 -2 200 -2 178 9 c 1,18,-1
 140 -47 l 1,19,-1
 57 0 l 1,20,-1
 110 80 l 1,21,22
 79 134 79 134 79 211 c 0,23,24
 79 257 79 257 86 314.5 c 128,-1,25
 93 372 93 372 110 431.5 c 128,-1,26
 127 491 127 491 153.5 547.5 c 128,-1,27
 180 604 180 604 219.5 648.5 c 128,-1,28
 259 693 259 693 311.5 719.5 c 128,-1,29
 364 746 364 746 432 746 c 0,0,1
300 104 m 0,30,31
 346 104 346 104 382 141.5 c 128,-1,32
 418 179 418 179 444 236.5 c 128,-1,33
 470 294 470 294 483.5 362 c 128,-1,34
 497 430 497 430 497 490 c 1,35,-1
 251 121 l 1,36,37
 259 114 259 114 272 109 c 128,-1,38
 285 104 285 104 300 104 c 0,30,31
415 624 m 0,39,40
 370 624 370 624 333.5 587.5 c 128,-1,41
 297 551 297 551 271 496 c 128,-1,42
 245 441 245 441 231.5 373 c 128,-1,43
 218 305 218 305 218 244 c 1,44,-1
 461 612 l 1,45,46
 453 618 453 618 440.5 621 c 128,-1,47
 428 624 428 624 415 624 c 0,39,40
EndSplineSet
EndChar

StartChar: Thorn
Encoding: 222 222 185
Width: 588
VWidth: 1177
Flags: W
LayerCount: 2
Fore
SplineSet
339 623 m 1,0,1
 348 624 348 624 360 624 c 128,-1,2
 372 624 372 624 382 624 c 0,3,4
 449 624 449 624 495.5 609.5 c 128,-1,5
 542 595 542 595 571 569 c 128,-1,6
 600 543 600 543 612.5 506 c 128,-1,7
 625 469 625 469 625 425 c 0,8,9
 625 350 625 350 598 295 c 128,-1,10
 571 240 571 240 522 205 c 128,-1,11
 473 170 473 170 405.5 152.5 c 128,-1,12
 338 135 338 135 256 135 c 2,13,-1
 221 135 l 1,14,-1
 190 0 l 1,15,-1
 45 0 l 1,16,-1
 220 729 l 1,17,-1
 365 729 l 1,18,-1
 339 623 l 1,0,1
364 501 m 0,19,20
 338 501 338 501 310 497 c 1,21,-1
 251 260 l 1,22,-1
 290 260 l 2,23,24
 384 260 384 260 432.5 298.5 c 128,-1,25
 481 337 481 337 481 404 c 0,26,27
 481 449 481 449 456.5 475 c 128,-1,28
 432 501 432 501 364 501 c 0,19,20
EndSplineSet
EndChar

StartChar: germandbls
Encoding: 223 223 186
Width: 588
VWidth: 1177
Flags: W
LayerCount: 2
Fore
SplineSet
165 561 m 2,0,1
 177 618 177 618 197.5 664 c 128,-1,2
 218 710 218 710 252 744.5 c 128,-1,3
 286 779 286 779 335.5 797.5 c 128,-1,4
 385 816 385 816 456 816 c 0,5,6
 504 816 504 816 538 804.5 c 128,-1,7
 572 793 572 793 593.5 773.5 c 128,-1,8
 615 754 615 754 624.5 728 c 128,-1,9
 634 702 634 702 634 675 c 0,10,11
 634 618 634 618 609 577.5 c 128,-1,12
 584 537 584 537 555 506 c 256,13,14
 526 475 526 475 502 450 c 128,-1,15
 478 425 478 425 478 399 c 0,16,17
 478 372 478 372 497 352 c 128,-1,18
 516 332 516 332 538.5 309.5 c 128,-1,19
 561 287 561 287 579.5 256.5 c 128,-1,20
 598 226 598 226 598 179 c 0,21,22
 598 92 598 92 541 39.5 c 128,-1,23
 484 -13 484 -13 382 -13 c 0,24,25
 327 -13 327 -13 299 -2.5 c 128,-1,26
 271 8 271 8 252 19 c 1,27,-1
 300 132 l 1,28,29
 314 123 314 123 332.5 115.5 c 128,-1,30
 351 108 351 108 377 108 c 0,31,32
 408 108 408 108 432 124 c 128,-1,33
 456 140 456 140 456 172 c 0,34,35
 456 201 456 201 438 223 c 128,-1,36
 420 245 420 245 399.5 266 c 128,-1,37
 379 287 379 287 361.5 312 c 128,-1,38
 344 337 344 337 344 372 c 0,39,40
 344 420 344 420 370 456 c 128,-1,41
 396 492 396 492 428 527 c 0,42,43
 452 553 452 553 472 580 c 128,-1,44
 492 607 492 607 492 644 c 0,45,46
 492 668 492 668 475 680.5 c 128,-1,47
 458 693 458 693 429 693 c 0,48,49
 384 693 384 693 353.5 658.5 c 128,-1,50
 323 624 323 624 310 564 c 2,51,-1
 201 31 l 2,52,53
 179 -80 179 -80 120 -139 c 128,-1,54
 61 -198 61 -198 -38 -198 c 0,55,56
 -69 -198 -69 -198 -94.5 -191.5 c 128,-1,57
 -120 -185 -120 -185 -144 -174 c 1,58,-1
 -104 -52 l 1,59,60
 -89 -58 -89 -58 -73 -62 c 128,-1,61
 -57 -66 -57 -66 -40 -66 c 0,62,63
 -18 -66 -18 -66 -2 -57.5 c 128,-1,64
 14 -49 14 -49 25.5 -35.5 c 128,-1,65
 37 -22 37 -22 44 -4 c 128,-1,66
 51 14 51 14 55 35 c 2,67,-1
 165 561 l 2,0,1
EndSplineSet
EndChar

StartChar: ae
Encoding: 230 230 193
Width: 588
VWidth: 1177
Flags: W
LayerCount: 2
Fore
SplineSet
538 423 m 0,0,1
 538 439 538 439 531 451 c 128,-1,2
 524 463 524 463 503 463 c 0,3,4
 491 463 491 463 476.5 453.5 c 128,-1,5
 462 444 462 444 447 424 c 128,-1,6
 432 404 432 404 418.5 372 c 128,-1,7
 405 340 405 340 396 294 c 1,8,9
 427 294 427 294 453 304 c 128,-1,10
 479 314 479 314 498 331.5 c 128,-1,11
 517 349 517 349 527.5 372.5 c 128,-1,12
 538 396 538 396 538 423 c 0,0,1
173 91 m 0,13,14
 185 91 185 91 199.5 100.5 c 128,-1,15
 214 110 214 110 229 130 c 128,-1,16
 244 150 244 150 257.5 181.5 c 128,-1,17
 271 213 271 213 280 259 c 1,18,19
 249 259 249 259 223 249 c 128,-1,20
 197 239 197 239 178 221.5 c 128,-1,21
 159 204 159 204 148.5 180.5 c 128,-1,22
 138 157 138 157 138 131 c 0,23,24
 138 115 138 115 145 103 c 128,-1,25
 152 91 152 91 173 91 c 0,13,14
35 110 m 0,26,27
 35 169 35 169 56 213 c 128,-1,28
 77 257 77 257 111 287 c 128,-1,29
 145 317 145 317 191 333.5 c 128,-1,30
 237 350 237 350 289 355 c 0,31,32
 290 360 290 360 290 363.5 c 128,-1,33
 290 367 290 367 290 371 c 0,34,35
 290 413 290 413 271.5 437 c 128,-1,36
 253 461 253 461 207 461 c 0,37,38
 187 461 187 461 166 452.5 c 128,-1,39
 145 444 145 444 125 430 c 1,40,-1
 111 534 l 1,41,42
 136 550 136 550 167 559 c 128,-1,43
 198 568 198 568 231 568 c 0,44,45
 284 568 284 568 323 541 c 128,-1,46
 362 514 362 514 375 457 c 1,47,48
 403 512 403 512 443 540 c 128,-1,49
 483 568 483 568 528 568 c 0,50,51
 549 568 549 568 569.5 561.5 c 128,-1,52
 590 555 590 555 606 540 c 128,-1,53
 622 525 622 525 631.5 501.5 c 128,-1,54
 641 478 641 478 641 444 c 0,55,56
 641 385 641 385 621 341 c 128,-1,57
 601 297 601 297 566 267 c 128,-1,58
 531 237 531 237 485 220.5 c 128,-1,59
 439 204 439 204 389 199 c 1,60,61
 388 193 388 193 388 189.5 c 128,-1,62
 388 186 388 186 388 181 c 0,63,64
 388 140 388 140 405.5 116.5 c 128,-1,65
 423 93 423 93 469 93 c 0,66,67
 511 93 511 93 551 122 c 1,68,-1
 565 20 l 1,69,70
 540 4 540 4 509 -5.5 c 128,-1,71
 478 -15 478 -15 446 -15 c 0,72,73
 392 -15 392 -15 353 12.5 c 128,-1,74
 314 40 314 40 302 97 c 1,75,76
 274 42 274 42 233.5 13.5 c 128,-1,77
 193 -15 193 -15 148 -15 c 0,78,79
 127 -15 127 -15 106.5 -8.5 c 128,-1,80
 86 -2 86 -2 70 12.5 c 128,-1,81
 54 27 54 27 44.5 51 c 128,-1,82
 35 75 35 75 35 110 c 0,26,27
EndSplineSet
Substitution2: "'case' Case-Sensitive Forms lookup 18 subtable" AE
EndChar

StartChar: ccedilla
Encoding: 231 231 194
Width: 588
VWidth: 1177
Flags: W
LayerCount: 2
Fore
SplineSet
366 -29 m 1,0,1
 392 -42 392 -42 402.5 -60 c 128,-1,2
 413 -78 413 -78 413 -99 c 0,3,4
 413 -147 413 -147 372.5 -173.5 c 128,-1,5
 332 -200 332 -200 269 -200 c 0,6,7
 212 -200 212 -200 167 -177 c 1,8,-1
 198 -108 l 1,9,10
 211 -115 211 -115 228 -119.5 c 128,-1,11
 245 -124 245 -124 261 -124 c 0,12,13
 288 -124 288 -124 297 -113 c 128,-1,14
 306 -102 306 -102 306 -94 c 0,15,16
 306 -81 306 -81 299.5 -72.5 c 128,-1,17
 293 -64 293 -64 276 -58 c 2,18,-1
 254 -51 l 1,19,20
 262 -38 262 -38 269 -28 c 128,-1,21
 276 -18 276 -18 283 -8 c 1,22,23
 229 -1 229 -1 192 19 c 128,-1,24
 155 39 155 39 133 69 c 128,-1,25
 111 99 111 99 101 136 c 128,-1,26
 91 173 91 173 91 214 c 0,27,28
 91 291 91 291 118 355.5 c 128,-1,29
 145 420 145 420 194 467 c 128,-1,30
 243 514 243 514 310 540.5 c 128,-1,31
 377 567 377 567 458 567 c 0,32,33
 490 567 490 567 514 564.5 c 128,-1,34
 538 562 538 562 558 558 c 128,-1,35
 578 554 578 554 594 548.5 c 128,-1,36
 610 543 610 543 625 536 c 1,37,-1
 574 420 l 1,38,39
 555 428 555 428 525.5 435 c 128,-1,40
 496 442 496 442 458 442 c 0,41,42
 410 442 410 442 370 427 c 128,-1,43
 330 412 330 412 300 384 c 128,-1,44
 270 356 270 356 253.5 314.5 c 128,-1,45
 237 273 237 273 237 220 c 0,46,47
 237 196 237 196 243 177 c 128,-1,48
 249 158 249 158 264.5 144 c 128,-1,49
 280 130 280 130 308 121.5 c 128,-1,50
 336 113 336 113 378 113 c 0,51,52
 424 113 424 113 463.5 122 c 128,-1,53
 503 131 503 131 523 140 c 1,54,-1
 537 25 l 1,55,56
 524 18 524 18 510 12 c 128,-1,57
 496 6 496 6 477 1 c 128,-1,58
 458 -4 458 -4 434 -7.5 c 128,-1,59
 410 -11 410 -11 377 -12 c 1,60,-1
 366 -29 l 1,0,1
EndSplineSet
Substitution2: "'case' Case-Sensitive Forms lookup 18 subtable" Ccedilla
EndChar

StartChar: eth
Encoding: 240 240 203
Width: 588
VWidth: 1177
Flags: W
LayerCount: 2
Fore
SplineSet
575 629 m 1,0,1
 595 545 595 545 595 461 c 0,2,3
 595 414 595 414 589 363 c 128,-1,4
 583 312 583 312 569.5 262.5 c 128,-1,5
 556 213 556 213 534 167 c 128,-1,6
 512 121 512 121 479 82 c 0,7,8
 441 37 441 37 388 11 c 128,-1,9
 335 -15 335 -15 264 -15 c 0,10,11
 215 -15 215 -15 179.5 1.5 c 128,-1,12
 144 18 144 18 120.5 45 c 128,-1,13
 97 72 97 72 85.5 108.5 c 128,-1,14
 74 145 74 145 74 184 c 0,15,16
 74 244 74 244 92.5 300.5 c 128,-1,17
 111 357 111 357 147 400.5 c 128,-1,18
 183 444 183 444 236 470 c 128,-1,19
 289 496 289 496 358 496 c 0,20,21
 390 496 390 496 417.5 487.5 c 128,-1,22
 445 479 445 479 464 465 c 1,23,24
 464 492 464 492 461 527.5 c 128,-1,25
 458 563 458 563 449 590 c 1,26,-1
 330 554 l 1,27,-1
 319 641 l 1,28,-1
 412 670 l 1,29,30
 401 689 401 689 380.5 711.5 c 128,-1,31
 360 734 360 734 340 748 c 1,32,-1
 437 816 l 1,33,34
 468 795 468 795 496 768 c 128,-1,35
 524 741 524 741 543 710 c 1,36,-1
 674 751 l 1,37,-1
 690 664 l 1,38,-1
 575 629 l 1,0,1
439 346 m 1,39,40
 423 366 423 366 399 373 c 128,-1,41
 375 380 375 380 351 380 c 0,42,43
 317 380 317 380 291.5 363 c 128,-1,44
 266 346 266 346 249.5 319 c 128,-1,45
 233 292 233 292 224.5 259 c 128,-1,46
 216 226 216 226 216 196 c 0,47,48
 216 161 216 161 230.5 136 c 128,-1,49
 245 111 245 111 278 111 c 0,50,51
 318 111 318 111 346.5 135.5 c 128,-1,52
 375 160 375 160 393 196 c 128,-1,53
 411 232 411 232 422 272.5 c 128,-1,54
 433 313 433 313 439 346 c 1,39,40
EndSplineSet
Substitution2: "'case' Case-Sensitive Forms lookup 18 subtable" Eth
EndChar

StartChar: divide
Encoding: 247 247 210
Width: 588
VWidth: 1177
Flags: W
LayerCount: 2
Fore
SplineSet
416 610 m 0,0,1
 449 610 449 610 470.5 592.5 c 128,-1,2
 492 575 492 575 492 535 c 0,3,4
 492 489 492 489 463.5 463 c 128,-1,5
 435 437 435 437 397 437 c 0,6,7
 363 437 363 437 341.5 454.5 c 128,-1,8
 320 472 320 472 320 512 c 0,9,10
 320 558 320 558 349 584 c 128,-1,11
 378 610 378 610 416 610 c 0,0,1
124 369 m 1,12,-1
 618 369 l 1,13,-1
 590 250 l 1,14,-1
 95 250 l 1,15,-1
 124 369 l 1,12,-1
310 181 m 0,16,17
 343 181 343 181 364.5 163.5 c 128,-1,18
 386 146 386 146 386 106 c 0,19,20
 386 60 386 60 357.5 34 c 128,-1,21
 329 8 329 8 291 8 c 0,22,23
 257 8 257 8 235.5 26 c 128,-1,24
 214 44 214 44 214 84 c 0,25,26
 214 130 214 130 243 155.5 c 128,-1,27
 272 181 272 181 310 181 c 0,16,17
EndSplineSet
EndChar

StartChar: oslash
Encoding: 248 248 211
Width: 588
VWidth: 1177
Flags: W
LayerCount: 2
Fore
SplineSet
280 118 m 1,0,1
 292 111 292 111 304.5 108.5 c 128,-1,2
 317 106 317 106 330 106 c 0,3,4
 370 106 370 106 399.5 127 c 128,-1,5
 429 148 429 148 447.5 182 c 128,-1,6
 466 216 466 216 475 259 c 128,-1,7
 484 302 484 302 484 345 c 1,8,-1
 280 118 l 1,0,1
311 -15 m 0,9,10
 291 -15 291 -15 277 -14.5 c 128,-1,11
 263 -14 263 -14 251 -11.5 c 128,-1,12
 239 -9 239 -9 227.5 -5 c 128,-1,13
 216 -1 216 -1 201 6 c 1,14,-1
 151 -53 l 1,15,-1
 82 4 l 1,16,-1
 137 65 l 1,17,18
 115 103 115 103 110 137.5 c 128,-1,19
 105 172 105 172 105 206 c 0,20,21
 105 278 105 278 129 343.5 c 128,-1,22
 153 409 153 409 195.5 459 c 128,-1,23
 238 509 238 509 295.5 538.5 c 128,-1,24
 353 568 353 568 420 568 c 0,25,26
 447 568 447 568 474 564.5 c 128,-1,27
 501 561 501 561 530 547 c 1,28,-1
 578 603 l 1,29,-1
 647 547 l 1,30,-1
 594 486 l 1,31,32
 610 457 610 457 616.5 423.5 c 128,-1,33
 623 390 623 390 623 349 c 0,34,35
 623 287 623 287 603 222 c 128,-1,36
 583 157 583 157 543.5 104.5 c 128,-1,37
 504 52 504 52 446 18.5 c 128,-1,38
 388 -15 388 -15 311 -15 c 0,9,10
448 437 m 1,39,40
 429 449 429 449 402 449 c 0,41,42
 361 449 361 449 330.5 427 c 128,-1,43
 300 405 300 405 280.5 371 c 128,-1,44
 261 337 261 337 252 294.5 c 128,-1,45
 243 252 243 252 243 211 c 1,46,-1
 448 437 l 1,39,40
EndSplineSet
Substitution2: "'case' Case-Sensitive Forms lookup 18 subtable" Oslash
EndChar

StartChar: thorn
Encoding: 254 254 217
Width: 588
VWidth: 1177
Flags: W
LayerCount: 2
Fore
SplineSet
218 115 m 1,0,1
 224 113 224 113 231 113 c 128,-1,2
 238 113 238 113 246 113 c 0,3,4
 294 113 294 113 333 132.5 c 128,-1,5
 372 152 372 152 398.5 185 c 128,-1,6
 425 218 425 218 439 262 c 128,-1,7
 453 306 453 306 453 355 c 0,8,9
 453 373 453 373 449.5 388.5 c 128,-1,10
 446 404 446 404 437 416.5 c 128,-1,11
 428 429 428 429 410 436.5 c 128,-1,12
 392 444 392 444 364 444 c 0,13,14
 340 444 340 444 323.5 440.5 c 128,-1,15
 307 437 307 437 294 435 c 1,16,-1
 218 115 l 1,0,1
405 565 m 0,17,18
 500 565 500 565 548 509 c 128,-1,19
 596 453 596 453 596 365 c 0,20,21
 596 292 596 292 575 223.5 c 128,-1,22
 554 155 554 155 511 103 c 128,-1,23
 468 51 468 51 402 19.5 c 128,-1,24
 336 -12 336 -12 247 -12 c 0,25,26
 223 -12 223 -12 210.5 -10.5 c 128,-1,27
 198 -9 198 -9 188 -7 c 1,28,-1
 143 -194 l 1,29,-1
 -2 -194 l 1,30,-1
 236 793 l 1,31,-1
 386 817 l 1,32,-1
 322 551 l 1,33,34
 342 557 342 557 363.5 561 c 128,-1,35
 385 565 385 565 405 565 c 0,17,18
EndSplineSet
Substitution2: "'case' Case-Sensitive Forms lookup 18 subtable" Thorn
EndChar

StartChar: Aogonek
Encoding: 260 260 223
Width: 588
VWidth: 1177
Flags: W
LayerCount: 2
Fore
SplineSet
433 170 m 1,0,-1
 226 170 l 1,1,2
 208 130 208 130 189.5 87.5 c 128,-1,3
 171 45 171 45 154 0 c 1,4,-1
 7 0 l 1,5,6
 107 219 107 219 200 402 c 128,-1,7
 293 585 293 585 382 729 c 1,8,-1
 536 729 l 1,9,10
 554 578 554 578 564.5 412 c 128,-1,11
 575 246 575 246 575 53 c 2,12,-1
 575 0 l 1,13,-1
 570 -4 l 2,14,15
 517 -43 517 -43 496 -65.5 c 128,-1,16
 475 -88 475 -88 475 -102 c 0,17,18
 475 -118 475 -118 501 -119 c 0,19,20
 516 -119 516 -119 533 -115 c 128,-1,21
 550 -111 550 -111 557 -108 c 1,22,-1
 548 -184 l 1,23,24
 528 -191 528 -191 501.5 -195.5 c 128,-1,25
 475 -200 475 -200 448 -200 c 0,26,27
 383 -200 383 -200 357 -181.5 c 128,-1,28
 331 -163 331 -163 331 -138 c 0,29,30
 331 -104 331 -104 357 -71.5 c 128,-1,31
 383 -39 383 -39 449 0 c 1,32,-1
 429 0 l 1,33,-1
 433 170 l 1,0,-1
429 591 m 1,34,35
 414 562 414 562 399 533.5 c 128,-1,36
 384 505 384 505 367 470.5 c 128,-1,37
 350 436 350 436 328.5 391 c 128,-1,38
 307 346 307 346 280 286 c 1,39,-1
 436 286 l 1,40,41
 436 310 436 310 436.5 330 c 128,-1,42
 437 350 437 350 437 369 c 0,43,44
 437 408 437 408 436 439 c 128,-1,45
 435 470 435 470 433.5 496 c 128,-1,46
 432 522 432 522 431 544.5 c 128,-1,47
 430 567 430 567 429 591 c 1,34,35
EndSplineSet
EndChar

StartChar: aogonek
Encoding: 261 261 224
Width: 588
VWidth: 1177
Flags: W
LayerCount: 2
Fore
SplineSet
515 -184 m 1,0,1
 495 -191 495 -191 468.5 -195.5 c 128,-1,2
 442 -200 442 -200 415 -200 c 0,3,4
 350 -200 350 -200 324 -181.5 c 128,-1,5
 298 -163 298 -163 298 -138 c 0,6,7
 298 -104 298 -104 325 -69.5 c 128,-1,8
 352 -35 352 -35 424 6 c 1,9,10
 419 17 419 17 415 27.5 c 128,-1,11
 411 38 411 38 410 42 c 1,12,13
 386 24 386 24 346 5.5 c 128,-1,14
 306 -13 306 -13 243 -13 c 0,15,16
 165 -12 165 -12 120 43 c 128,-1,17
 75 98 75 98 75 203 c 0,18,19
 75 283 75 283 102.5 350 c 128,-1,20
 130 417 130 417 177 464.5 c 128,-1,21
 224 512 224 512 287 538.5 c 128,-1,22
 350 565 350 565 420 565 c 0,23,24
 468 565 468 565 518 556 c 128,-1,25
 568 547 568 547 618 527 c 1,26,-1
 545 226 l 2,27,28
 540 205 540 205 538 184.5 c 128,-1,29
 536 164 536 164 536 143 c 0,30,31
 536 109 536 109 542.5 76.5 c 128,-1,32
 549 44 549 44 559 12 c 1,33,-1
 537 -4 l 2,34,35
 483 -42 483 -42 462.5 -65 c 128,-1,36
 442 -88 442 -88 442 -102 c 0,37,38
 442 -118 442 -118 468 -119 c 0,39,40
 483 -119 483 -119 500 -115 c 128,-1,41
 517 -111 517 -111 524 -108 c 1,42,-1
 515 -184 l 1,0,1
296 111 m 0,43,44
 329 111 329 111 351 125.5 c 128,-1,45
 373 140 373 140 390 160 c 1,46,47
 392 176 392 176 394.5 191.5 c 128,-1,48
 397 207 397 207 402 227 c 2,49,-1
 452 437 l 1,50,51
 439 441 439 441 425 442 c 128,-1,52
 411 443 411 443 398 443 c 0,53,54
 357 443 357 443 324 423.5 c 128,-1,55
 291 404 291 404 267.5 372 c 128,-1,56
 244 340 244 340 231.5 299 c 128,-1,57
 219 258 219 258 219 214 c 0,58,59
 219 183 219 183 224.5 163.5 c 128,-1,60
 230 144 230 144 240 132 c 128,-1,61
 250 120 250 120 264 115.5 c 128,-1,62
 278 111 278 111 296 111 c 0,43,44
EndSplineSet
Substitution2: "'case' Case-Sensitive Forms lookup 18 subtable" Aogonek
EndChar

StartChar: dcaron
Encoding: 271 271 234
Width: 588
VWidth: 1177
Flags: W
LayerCount: 2
Fore
SplineSet
227 111 m 0,0,1
 254 111 254 111 273 125.5 c 128,-1,2
 292 140 292 140 307 160 c 1,3,4
 309 176 309 176 311.5 191.5 c 128,-1,5
 314 207 314 207 319 227 c 2,6,-1
 370 437 l 1,7,8
 361 441 361 441 350 442 c 128,-1,9
 339 443 339 443 330 443 c 0,10,11
 297 443 297 443 270 423.5 c 128,-1,12
 243 404 243 404 224 372 c 128,-1,13
 205 340 205 340 194.5 299 c 128,-1,14
 184 258 184 258 184 214 c 0,15,16
 184 183 184 183 187 163.5 c 128,-1,17
 190 144 190 144 195.5 132 c 128,-1,18
 201 120 201 120 209.5 115.5 c 128,-1,19
 218 111 218 111 227 111 c 0,0,1
463 226 m 2,20,21
 458 205 458 205 455.5 184.5 c 128,-1,22
 453 164 453 164 453 143 c 0,23,24
 453 109 453 109 459.5 76.5 c 128,-1,25
 466 44 466 44 477 12 c 1,26,-1
 350 -9 l 1,27,28
 348 -4 348 -4 344 2.5 c 128,-1,29
 340 9 340 9 336.5 17.5 c 128,-1,30
 333 26 333 26 331 32.5 c 128,-1,31
 329 39 329 39 327 42 c 1,32,33
 306 24 306 24 271.5 5.5 c 128,-1,34
 237 -13 237 -13 187 -13 c 0,35,36
 116 -12 116 -12 78 36.5 c 128,-1,37
 40 85 40 85 40 193 c 0,38,39
 40 277 40 277 65 345 c 128,-1,40
 90 413 90 413 132 461.5 c 128,-1,41
 174 510 174 510 230.5 536 c 128,-1,42
 287 562 287 562 351 562 c 0,43,44
 375 562 375 562 398 554 c 1,45,-1
 455 793 l 1,46,-1
 605 817 l 1,47,-1
 463 226 l 2,20,21
783 816 m 1,48,-1
 686 559 l 1,49,-1
 592 559 l 1,50,-1
 651 816 l 1,51,-1
 783 816 l 1,48,-1
EndSplineSet
Substitution2: "'case' Case-Sensitive Forms lookup 18 subtable" Dcaron
EndChar

StartChar: dcroat
Encoding: 273 273 236
Width: 588
VWidth: 1177
Flags: W
LayerCount: 2
Fore
SplineSet
280 111 m 0,0,1
 311 111 311 111 331.5 125.5 c 128,-1,2
 352 140 352 140 369 160 c 1,3,4
 371 176 371 176 373.5 191.5 c 128,-1,5
 376 207 376 207 380 227 c 2,6,-1
 431 437 l 1,7,8
 419 441 419 441 407 442 c 128,-1,9
 395 443 395 443 384 443 c 0,10,11
 346 443 346 443 315.5 423.5 c 128,-1,12
 285 404 285 404 264 372 c 128,-1,13
 243 340 243 340 231 299 c 128,-1,14
 219 258 219 258 219 214 c 0,15,16
 219 183 219 183 223 163.5 c 128,-1,17
 227 144 227 144 235.5 132 c 128,-1,18
 244 120 244 120 255 115.5 c 128,-1,19
 266 111 266 111 280 111 c 0,0,1
722 724 m 1,20,-1
 698 627 l 1,21,-1
 621 627 l 1,22,-1
 525 226 l 2,23,24
 514 184 514 184 515 143 c 0,25,26
 515 109 515 109 522 76.5 c 128,-1,27
 529 44 529 44 538 12 c 1,28,-1
 411 -9 l 1,29,30
 409 -4 409 -4 405.5 2.5 c 128,-1,31
 402 9 402 9 398.5 17.5 c 128,-1,32
 395 26 395 26 392.5 32.5 c 128,-1,33
 390 39 390 39 389 42 c 1,34,35
 367 24 367 24 328.5 5.5 c 128,-1,36
 290 -13 290 -13 229 -13 c 0,37,38
 158 -12 158 -12 116.5 43 c 128,-1,39
 75 98 75 98 75 203 c 0,40,41
 75 283 75 283 101 349.5 c 128,-1,42
 127 416 127 416 172 463 c 128,-1,43
 217 510 217 510 277 536 c 128,-1,44
 337 562 337 562 405 562 c 0,45,46
 433 562 433 562 459 554 c 1,47,-1
 477 627 l 1,48,-1
 307 627 l 1,49,-1
 330 724 l 1,50,-1
 501 724 l 1,51,-1
 516 793 l 1,52,-1
 667 817 l 1,53,-1
 644 724 l 1,54,-1
 722 724 l 1,20,-1
EndSplineSet
Substitution2: "'case' Case-Sensitive Forms lookup 18 subtable" Dcroat
EndChar

StartChar: Eogonek
Encoding: 280 280 243
Width: 588
VWidth: 1177
Flags: W
LayerCount: 2
Fore
SplineSet
494 -184 m 1,0,1
 474 -191 474 -191 447 -195.5 c 128,-1,2
 420 -200 420 -200 393 -200 c 0,3,4
 328 -200 328 -200 302.5 -181.5 c 128,-1,5
 277 -163 277 -163 277 -138 c 0,6,7
 277 -104 277 -104 301.5 -71.5 c 128,-1,8
 326 -39 326 -39 392 0 c 1,9,-1
 62 0 l 1,10,-1
 237 729 l 1,11,-1
 669 729 l 1,12,-1
 641 609 l 1,13,-1
 353 609 l 1,14,-1
 313 445 l 1,15,-1
 563 445 l 1,16,-1
 535 325 l 1,17,-1
 285 325 l 1,18,-1
 236 120 l 1,19,-1
 549 120 l 1,20,-1
 521 0 l 1,21,-1
 512 -6 l 2,22,23
 459 -44 459 -44 439.5 -66 c 128,-1,24
 420 -88 420 -88 420 -102 c 0,25,26
 420 -118 420 -118 446 -119 c 0,27,28
 461 -119 461 -119 478.5 -115 c 128,-1,29
 496 -111 496 -111 503 -108 c 1,30,-1
 494 -184 l 1,0,1
EndSplineSet
EndChar

StartChar: eogonek
Encoding: 281 281 244
Width: 588
VWidth: 1177
Flags: W
LayerCount: 2
Fore
SplineSet
466 -184 m 1,0,1
 446 -191 446 -191 419.5 -195.5 c 128,-1,2
 393 -200 393 -200 366 -200 c 0,3,4
 301 -200 301 -200 275.5 -181.5 c 128,-1,5
 250 -163 250 -163 250 -138 c 0,6,7
 250 -107 250 -107 270.5 -77.5 c 128,-1,8
 291 -48 291 -48 344 -14 c 1,9,-1
 342 -14 l 2,10,11
 275 -14 275 -14 226.5 3 c 128,-1,12
 178 20 178 20 147.5 50.5 c 128,-1,13
 117 81 117 81 102.5 123 c 128,-1,14
 88 165 88 165 88 216 c 0,15,16
 88 284 88 284 111 348 c 128,-1,17
 134 412 134 412 178.5 460.5 c 128,-1,18
 223 509 223 509 286 538.5 c 128,-1,19
 349 568 349 568 430 568 c 256,20,21
 511 568 511 568 563 528 c 128,-1,22
 615 488 615 488 615 416 c 0,23,24
 615 356 615 356 585.5 314 c 128,-1,25
 556 272 556 272 504 246 c 128,-1,26
 452 220 452 220 382 208.5 c 128,-1,27
 312 197 312 197 231 197 c 1,28,29
 231 176 231 176 238 158.5 c 128,-1,30
 245 141 245 141 261 129.5 c 128,-1,31
 277 118 277 118 303.5 111.5 c 128,-1,32
 330 105 330 105 370 105 c 0,33,34
 417 105 417 105 459.5 115 c 128,-1,35
 502 125 502 125 522 134 c 1,36,-1
 531 25 l 1,37,-1
 489 -4 l 2,38,39
 434 -41 434 -41 413.5 -64.5 c 128,-1,40
 393 -88 393 -88 393 -102 c 0,41,42
 393 -118 393 -118 419 -119 c 0,43,44
 434 -119 434 -119 451.5 -115 c 128,-1,45
 469 -111 469 -111 476 -108 c 1,46,-1
 466 -184 l 1,0,1
403 452 m 0,47,48
 349 452 349 452 300 415 c 128,-1,49
 251 378 251 378 232 297 c 1,50,51
 306 297 306 297 354 306.5 c 128,-1,52
 402 316 402 316 429 330.5 c 128,-1,53
 456 345 456 345 466.5 362.5 c 128,-1,54
 477 380 477 380 477 396 c 0,55,56
 477 423 477 423 457.5 437.5 c 128,-1,57
 438 452 438 452 403 452 c 0,47,48
EndSplineSet
Substitution2: "'case' Case-Sensitive Forms lookup 18 subtable" Eogonek
EndChar

StartChar: hcircumflex
Encoding: 293 293 256
Width: 588
VWidth: 1177
Flags: W
LayerCount: 2
Fore
SplineSet
329 551 m 1,0,1
 349 557 349 557 370 561 c 128,-1,2
 391 565 391 565 411 565 c 0,3,4
 498 565 498 565 541.5 523.5 c 128,-1,5
 585 482 585 482 585 405 c 0,6,7
 585 385 585 385 582.5 361.5 c 128,-1,8
 580 338 580 338 574 312 c 2,9,-1
 498 0 l 1,10,-1
 353 0 l 1,11,-1
 424 293 l 2,12,13
 428 312 428 312 432.5 332 c 128,-1,14
 437 352 437 352 437 372 c 0,15,16
 437 399 437 399 423 420 c 128,-1,17
 409 441 409 441 369 441 c 0,18,19
 354 441 354 441 335.5 438 c 128,-1,20
 317 435 317 435 300 428 c 1,21,-1
 197 0 l 1,22,-1
 52 0 l 1,23,-1
 231 746 l 1,24,-1
 382 770 l 1,25,-1
 329 551 l 1,0,1
555 860 m 1,26,-1
 498 799 l 1,27,-1
 413 861 l 1,28,-1
 296 797 l 1,29,-1
 259 859 l 1,30,-1
 425 976 l 1,31,-1
 555 860 l 1,26,-1
EndSplineSet
Substitution2: "'case' Case-Sensitive Forms lookup 18 subtable" Hcircumflex
EndChar

StartChar: Hbar
Encoding: 294 294 257
Width: 588
VWidth: 1177
Flags: W
LayerCount: 2
Fore
SplineSet
610 528 m 1,0,-1
 483 0 l 1,1,-1
 338 0 l 1,2,-1
 416 322 l 1,3,-1
 285 322 l 1,4,-1
 207 0 l 1,5,-1
 62 0 l 1,6,-1
 190 528 l 1,7,-1
 125 528 l 1,8,-1
 153 644 l 1,9,-1
 217 644 l 1,10,-1
 238 729 l 1,11,-1
 383 729 l 1,12,-1
 362 644 l 1,13,-1
 492 644 l 1,14,-1
 514 729 l 1,15,-1
 658 729 l 1,16,-1
 637 644 l 1,17,-1
 703 644 l 1,18,-1
 675 528 l 1,19,-1
 610 528 l 1,0,-1
444 442 m 1,20,-1
 465 528 l 1,21,-1
 335 528 l 1,22,-1
 313 442 l 1,23,-1
 444 442 l 1,20,-1
EndSplineSet
EndChar

StartChar: hbar
Encoding: 295 295 258
Width: 588
VWidth: 1177
Flags: W
LayerCount: 2
Fore
SplineSet
240 724 m 1,0,-1
 258 793 l 1,1,-1
 408 817 l 1,2,-1
 385 724 l 1,3,-1
 536 724 l 1,4,-1
 512 627 l 1,5,-1
 362 627 l 1,6,-1
 343 549 l 1,7,8
 357 555 357 555 379.5 559.5 c 128,-1,9
 402 564 402 564 432 564 c 0,10,11
 472 564 472 564 501 551 c 128,-1,12
 530 538 530 538 549 516 c 128,-1,13
 568 494 568 494 576 463.5 c 128,-1,14
 584 433 584 433 584 398 c 0,15,16
 584 377 584 377 581 355 c 128,-1,17
 578 333 578 333 572 310 c 2,18,-1
 498 0 l 1,19,-1
 353 0 l 1,20,-1
 423 291 l 2,21,22
 427 306 427 306 431 326 c 128,-1,23
 435 346 435 346 435 367 c 0,24,25
 435 395 435 395 423.5 418 c 128,-1,26
 412 441 412 441 378 441 c 0,27,28
 362 441 362 441 347.5 439 c 128,-1,29
 333 437 333 437 317 435 c 1,30,-1
 212 0 l 1,31,-1
 67 0 l 1,32,-1
 218 627 l 1,33,-1
 153 627 l 1,34,-1
 177 724 l 1,35,-1
 240 724 l 1,0,-1
EndSplineSet
Substitution2: "'case' Case-Sensitive Forms lookup 18 subtable" Hbar
EndChar

StartChar: Iogonek
Encoding: 302 302 265
Width: 588
VWidth: 1177
Flags: W
LayerCount: 2
Fore
SplineSet
320 -184 m 1,0,1
 300 -191 300 -191 273.5 -195.5 c 128,-1,2
 247 -200 247 -200 220 -200 c 0,3,4
 155 -200 155 -200 129.5 -181.5 c 128,-1,5
 104 -163 104 -163 104 -138 c 0,6,7
 104 -104 104 -104 128.5 -71.5 c 128,-1,8
 153 -39 153 -39 219 0 c 1,9,-1
 41 0 l 1,10,-1
 69 120 l 1,11,-1
 230 120 l 1,12,-1
 347 609 l 1,13,-1
 187 609 l 1,14,-1
 216 729 l 1,15,-1
 678 729 l 1,16,-1
 650 609 l 1,17,-1
 492 609 l 1,18,-1
 375 120 l 1,19,-1
 532 120 l 1,20,-1
 504 0 l 1,21,-1
 347 0 l 1,22,-1
 343 -4 l 2,23,24
 289 -42 289 -42 268 -65 c 128,-1,25
 247 -88 247 -88 247 -102 c 0,26,27
 247 -118 247 -118 273 -119 c 0,28,29
 288 -119 288 -119 305.5 -115 c 128,-1,30
 323 -111 323 -111 330 -108 c 1,31,-1
 320 -184 l 1,0,1
EndSplineSet
EndChar

StartChar: iogonek
Encoding: 303 303 266
Width: 588
VWidth: 1177
Flags: W
LayerCount: 2
Fore
SplineSet
491 -184 m 1,0,1
 471 -191 471 -191 444.5 -195.5 c 128,-1,2
 418 -200 418 -200 391 -200 c 0,3,4
 326 -200 326 -200 300 -181.5 c 128,-1,5
 274 -163 274 -163 274 -138 c 0,6,7
 274 -107 274 -107 295.5 -76.5 c 128,-1,8
 317 -46 317 -46 371 -12 c 1,9,10
 296 -8 296 -8 260 32 c 128,-1,11
 224 72 224 72 224 143 c 0,12,13
 224 182 224 182 237 233 c 2,14,-1
 284 433 l 1,15,-1
 131 433 l 1,16,-1
 160 554 l 1,17,-1
 458 554 l 1,18,-1
 378 216 l 2,19,20
 371 191 371 191 371 172 c 0,21,22
 371 113 371 113 431 113 c 0,23,24
 451 113 451 113 478 117 c 128,-1,25
 505 121 505 121 538 133 c 1,26,-1
 541 15 l 1,27,-1
 514 -4 l 2,28,29
 460 -42 460 -42 439 -65 c 128,-1,30
 418 -88 418 -88 418 -102 c 0,31,32
 418 -118 418 -118 444 -119 c 0,33,34
 459 -119 459 -119 476.5 -115 c 128,-1,35
 494 -111 494 -111 501 -108 c 1,36,-1
 491 -184 l 1,0,1
391 621 m 0,37,38
 353 621 353 621 330 641 c 128,-1,39
 307 661 307 661 307 703 c 0,40,41
 307 725 307 725 315.5 744.5 c 128,-1,42
 324 764 324 764 337.5 777 c 128,-1,43
 351 790 351 790 368.5 798 c 128,-1,44
 386 806 386 806 405 806 c 0,45,46
 439 806 439 806 464.5 786 c 128,-1,47
 490 766 490 766 490 721 c 0,48,49
 490 700 490 700 481 681 c 128,-1,50
 472 662 472 662 458 649 c 128,-1,51
 444 636 444 636 426.5 628.5 c 128,-1,52
 409 621 409 621 391 621 c 0,37,38
EndSplineSet
Substitution2: "'case' Case-Sensitive Forms lookup 18 subtable" Iogonek
EndChar

StartChar: dotlessi
Encoding: 305 305 268
Width: 588
VWidth: 1177
Flags: W
LayerCount: 2
Fore
SplineSet
541 15 m 1,0,1
 497 -1 497 -1 458.5 -7 c 128,-1,2
 420 -13 420 -13 388 -13 c 0,3,4
 304 -13 304 -13 264 27.5 c 128,-1,5
 224 68 224 68 224 143 c 0,6,7
 224 182 224 182 237 233 c 2,8,-1
 284 433 l 1,9,-1
 131 433 l 1,10,-1
 160 554 l 1,11,-1
 458 554 l 1,12,-1
 378 216 l 2,13,14
 371 191 371 191 371 172 c 0,15,16
 371 113 371 113 431 113 c 0,17,18
 451 113 451 113 478 117 c 128,-1,19
 505 121 505 121 538 133 c 1,20,-1
 541 15 l 1,0,1
EndSplineSet
EndChar

StartChar: IJ
Encoding: 306 306 270
Width: 588
VWidth: 1177
Flags: W
LayerCount: 2
Fore
SplineSet
15 0 m 1,0,-1
 192 729 l 1,1,-1
 326 729 l 1,2,-1
 151 0 l 1,3,-1
 15 0 l 1,0,-1
594 244 m 2,4,5
 583 189 583 189 566.5 141 c 128,-1,6
 550 93 550 93 523 58.5 c 128,-1,7
 496 24 496 24 456.5 4.5 c 128,-1,8
 417 -15 417 -15 359 -15 c 256,9,10
 301 -15 301 -15 259 5.5 c 128,-1,11
 217 26 217 26 194 53 c 1,12,-1
 261 146 l 1,13,14
 277 128 277 128 302 114 c 128,-1,15
 327 100 327 100 350 100 c 256,16,17
 372 100 372 100 388 107 c 128,-1,18
 404 114 404 114 416.5 130.5 c 128,-1,19
 429 147 429 147 438.5 174 c 128,-1,20
 448 201 448 201 457 241 c 2,21,-1
 575 729 l 1,22,-1
 709 729 l 1,23,-1
 594 244 l 2,4,5
EndSplineSet
EndChar

StartChar: ij
Encoding: 307 307 271
Width: 588
VWidth: 1177
Flags: W
LayerCount: 2
Fore
SplineSet
224 0 m 1,0,-1
 79 0 l 1,1,-1
 212 554 l 1,2,-1
 358 554 l 1,3,-1
 224 0 l 1,0,-1
312 621 m 0,4,5
 274 621 274 621 250.5 641 c 128,-1,6
 227 661 227 661 227 703 c 0,7,8
 227 725 227 725 235.5 744.5 c 128,-1,9
 244 764 244 764 257.5 777 c 128,-1,10
 271 790 271 790 288.5 798 c 128,-1,11
 306 806 306 806 325 806 c 0,12,13
 359 806 359 806 384.5 786 c 128,-1,14
 410 766 410 766 410 721 c 0,15,16
 410 700 410 700 401 681 c 128,-1,17
 392 662 392 662 378.5 649 c 128,-1,18
 365 636 365 636 347.5 628.5 c 128,-1,19
 330 621 330 621 312 621 c 0,4,5
260 -194 m 0,20,21
 231 -194 231 -194 208 -189 c 128,-1,22
 185 -184 185 -184 161 -174 c 1,23,-1
 201 -51 l 1,24,25
 216 -57 216 -57 230 -59.5 c 128,-1,26
 244 -62 244 -62 261 -62 c 0,27,28
 299 -62 299 -62 318.5 -40 c 128,-1,29
 338 -18 338 -18 347 25 c 2,30,-1
 475 554 l 1,31,-1
 621 554 l 1,32,-1
 492 20 l 2,33,34
 465 -88 465 -88 412 -141 c 128,-1,35
 359 -194 359 -194 260 -194 c 0,20,21
574 621 m 0,36,37
 536 621 536 621 512.5 641 c 128,-1,38
 489 661 489 661 489 703 c 0,39,40
 489 725 489 725 497 744.5 c 128,-1,41
 505 764 505 764 518.5 777 c 128,-1,42
 532 790 532 790 550 798 c 128,-1,43
 568 806 568 806 587 806 c 0,44,45
 622 806 622 806 647.5 786 c 128,-1,46
 673 766 673 766 673 721 c 0,47,48
 673 700 673 700 664 681 c 128,-1,49
 655 662 655 662 641 649 c 128,-1,50
 627 636 627 636 609.5 628.5 c 128,-1,51
 592 621 592 621 574 621 c 0,36,37
EndSplineSet
Substitution2: "'case' Case-Sensitive Forms lookup 18 subtable" IJ
EndChar

StartChar: kgreenlandic.case
Encoding: 65538 -1 276
Width: 588
VWidth: 1177
Flags: W
LayerCount: 2
Fore
SplineSet
336 379 m 1,0,1
 363 340 363 340 381.5 300.5 c 128,-1,2
 400 261 400 261 413 216.5 c 128,-1,3
 426 172 426 172 434 119 c 128,-1,4
 442 66 442 66 446 0 c 1,5,-1
 300 0 l 1,6,7
 298 47 298 47 292 95.5 c 128,-1,8
 286 144 286 144 276.5 188.5 c 128,-1,9
 267 233 267 233 255 271.5 c 128,-1,10
 243 310 243 310 229 338 c 1,11,-1
 151 0 l 1,12,-1
 15 0 l 1,13,-1
 188 729 l 1,14,-1
 324 729 l 1,15,-1
 251 426 l 1,16,17
 279 459 279 459 307.5 498.5 c 128,-1,18
 336 538 336 538 362 579 c 128,-1,19
 388 620 388 620 410 658.5 c 128,-1,20
 432 697 432 697 449 729 c 1,21,-1
 595 729 l 1,22,23
 569 681 569 681 541.5 636.5 c 128,-1,24
 514 592 514 592 482 550 c 128,-1,25
 450 508 450 508 414 465.5 c 128,-1,26
 378 423 378 423 336 379 c 1,0,1
559 521 m 1,27,28
 561 537 561 537 564.5 554 c 128,-1,29
 568 571 568 571 572 587 c 0,30,31
 583 626 583 626 596 656.5 c 128,-1,32
 609 687 609 687 625 713 c 128,-1,33
 641 739 641 739 659 763 c 128,-1,34
 677 787 677 787 701 814 c 1,35,-1
 771 786 l 1,36,37
 736 728 736 728 717 680.5 c 128,-1,38
 698 633 698 633 684 577 c 0,39,40
 682 562 682 562 678.5 546.5 c 128,-1,41
 675 531 675 531 675 521 c 1,42,-1
 559 521 l 1,27,28
EndSplineSet
EndChar

StartChar: kgreenlandic
Encoding: 312 312 277
Width: 588
VWidth: 1177
Flags: W
LayerCount: 2
Fore
SplineSet
668 554 m 1,0,1
 611 486 611 486 540.5 419 c 128,-1,2
 470 352 470 352 406 299 c 1,3,4
 427 273 427 273 449 236 c 128,-1,5
 471 199 471 199 492.5 158 c 128,-1,6
 514 117 514 117 531.5 75.5 c 128,-1,7
 549 34 549 34 561 0 c 1,8,-1
 404 0 l 1,9,10
 395 29 395 29 379.5 67 c 128,-1,11
 364 105 364 105 346.5 142.5 c 128,-1,12
 329 180 329 180 310 213 c 128,-1,13
 291 246 291 246 273 267 c 1,14,-1
 210 0 l 1,15,-1
 64 0 l 1,16,-1
 197 554 l 1,17,-1
 342 554 l 1,18,-1
 291 342 l 1,19,20
 312 360 312 360 340.5 385.5 c 128,-1,21
 369 411 369 411 398.5 440 c 128,-1,22
 428 469 428 469 455.5 499 c 128,-1,23
 483 529 483 529 503 554 c 1,24,-1
 668 554 l 1,0,1
EndSplineSet
Substitution2: "'case' Case-Sensitive Forms lookup 18 subtable" kgreenlandic.case
EndChar

StartChar: lacute
Encoding: 314 314 279
Width: 588
VWidth: 1177
Flags: W
LayerCount: 2
Fore
SplineSet
536 24 m 1,0,1
 531 22 531 22 517.5 15 c 128,-1,2
 504 8 504 8 481.5 2 c 128,-1,3
 459 -4 459 -4 429 -8.5 c 128,-1,4
 399 -13 399 -13 363 -13 c 0,5,6
 283 -13 283 -13 243 28 c 128,-1,7
 203 69 203 69 203 144 c 0,8,9
 203 164 203 164 205.5 185.5 c 128,-1,10
 208 207 208 207 214 231 c 2,11,-1
 311 640 l 1,12,-1
 158 640 l 1,13,-1
 186 760 l 1,14,-1
 484 760 l 1,15,-1
 358 221 l 2,16,17
 356 209 356 209 353 196 c 128,-1,18
 350 183 350 183 350 172 c 0,19,20
 350 148 350 148 363 130.5 c 128,-1,21
 376 113 376 113 416 113 c 0,22,23
 432 113 432 113 449 116 c 128,-1,24
 466 119 466 119 481.5 123.5 c 128,-1,25
 497 128 497 128 509 131.5 c 128,-1,26
 521 135 521 135 527 138 c 1,27,-1
 536 24 l 1,0,1
575 869 m 1,28,-1
 336 799 l 1,29,-1
 317 867 l 1,30,-1
 545 978 l 1,31,-1
 575 869 l 1,28,-1
EndSplineSet
Substitution2: "'case' Case-Sensitive Forms lookup 18 subtable" Lacute
EndChar

StartChar: Lslash
Encoding: 321 321 286
Width: 588
VWidth: 1177
Flags: W
LayerCount: 2
Fore
SplineSet
505 0 m 1,0,-1
 94 0 l 1,1,-1
 163 283 l 1,2,-1
 80 244 l 1,3,-1
 54 350 l 1,4,-1
 194 416 l 1,5,-1
 270 729 l 1,6,-1
 415 729 l 1,7,-1
 358 492 l 1,8,-1
 472 547 l 1,9,-1
 498 441 l 1,10,-1
 325 359 l 1,11,-1
 269 120 l 1,12,-1
 534 120 l 1,13,-1
 505 0 l 1,0,-1
EndSplineSet
EndChar

StartChar: lslash
Encoding: 322 322 287
Width: 588
VWidth: 1177
Flags: W
LayerCount: 2
Fore
SplineSet
536 24 m 1,0,1
 531 22 531 22 517.5 15 c 128,-1,2
 504 8 504 8 481.5 2 c 128,-1,3
 459 -4 459 -4 429 -8.5 c 128,-1,4
 399 -13 399 -13 363 -13 c 0,5,6
 283 -13 283 -13 243 28 c 128,-1,7
 203 69 203 69 203 144 c 0,8,9
 203 164 203 164 205.5 185.5 c 128,-1,10
 208 207 208 207 214 231 c 2,11,-1
 243 351 l 1,12,-1
 171 319 l 1,13,-1
 147 417 l 1,14,-1
 272 471 l 1,15,-1
 324 690 l 1,16,-1
 171 690 l 1,17,-1
 199 810 l 1,18,-1
 497 810 l 1,19,-1
 435 544 l 1,20,-1
 518 582 l 1,21,-1
 543 485 l 1,22,-1
 405 423 l 1,23,-1
 358 221 l 2,24,25
 356 209 356 209 353 196 c 128,-1,26
 350 183 350 183 350 172 c 0,27,28
 350 148 350 148 363 130.5 c 128,-1,29
 376 113 376 113 416 113 c 0,30,31
 432 113 432 113 449 116 c 128,-1,32
 466 119 466 119 481.5 123.5 c 128,-1,33
 497 128 497 128 509 131.5 c 128,-1,34
 521 135 521 135 527 138 c 1,35,-1
 536 24 l 1,0,1
EndSplineSet
Substitution2: "'case' Case-Sensitive Forms lookup 18 subtable" Lslash
EndChar

StartChar: napostrophe.case
Encoding: 65539 -1 294
Width: 588
VWidth: 1177
Flags: W
LayerCount: 2
Fore
SplineSet
415 0 m 1,0,-1
 392 452 l 1,1,-1
 287 0 l 1,2,-1
 184 0 l 1,3,-1
 358 729 l 1,4,-1
 455 729 l 1,5,6
 460 681 460 681 464 628 c 128,-1,7
 468 575 468 575 471.5 520.5 c 128,-1,8
 475 466 475 466 478.5 413 c 128,-1,9
 482 360 482 360 485 312 c 1,10,-1
 582 729 l 1,11,-1
 686 729 l 1,12,-1
 510 0 l 1,13,-1
 415 0 l 1,0,-1
340 816 m 1,14,-1
 332 782 l 2,15,16
 316 715 316 715 284 666 c 128,-1,17
 252 617 252 617 211 570 c 1,18,-1
 134 594 l 1,19,20
 168 641 168 641 187 682.5 c 128,-1,21
 206 724 206 724 217 769 c 0,22,23
 219 782 219 782 222 794.5 c 128,-1,24
 225 807 225 807 225 816 c 1,25,-1
 340 816 l 1,14,-1
EndSplineSet
EndChar

StartChar: Eng
Encoding: 330 330 296
Width: 588
VWidth: 1177
Flags: W
LayerCount: 2
Fore
SplineSet
300 -197 m 0,0,1
 240 -197 240 -197 201 -176 c 1,2,-1
 244 -64 l 1,3,4
 257 -69 257 -69 268.5 -71 c 128,-1,5
 280 -73 280 -73 300 -73 c 0,6,7
 341 -73 341 -73 360 -51 c 128,-1,8
 379 -29 379 -29 389 8 c 2,9,-1
 393 25 l 1,10,11
 384 78 384 78 371.5 138.5 c 128,-1,12
 359 199 359 199 345 264 c 128,-1,13
 331 329 331 329 315 394 c 128,-1,14
 299 459 299 459 283 523 c 1,15,-1
 159 0 l 1,16,-1
 31 0 l 1,17,-1
 205 729 l 1,18,-1
 329 729 l 1,19,20
 345 677 345 677 363.5 616 c 128,-1,21
 382 555 382 555 397.5 492.5 c 128,-1,22
 413 430 413 430 427 368.5 c 128,-1,23
 441 307 441 307 449 257 c 1,24,-1
 561 729 l 1,25,-1
 689 729 l 1,26,-1
 519 22 l 2,27,28
 506 -32 506 -32 489.5 -73 c 128,-1,29
 473 -114 473 -114 448 -141 c 128,-1,30
 423 -168 423 -168 387 -182.5 c 128,-1,31
 351 -197 351 -197 300 -197 c 0,0,1
EndSplineSet
EndChar

StartChar: eng
Encoding: 331 331 297
Width: 588
VWidth: 1177
Flags: W
LayerCount: 2
Fore
SplineSet
504 22 m 2,0,1
 491 -32 491 -32 476.5 -73 c 128,-1,2
 462 -114 462 -114 438.5 -141 c 128,-1,3
 415 -168 415 -168 379.5 -182.5 c 128,-1,4
 344 -197 344 -197 289 -197 c 0,5,6
 267 -197 267 -197 241.5 -191 c 128,-1,7
 216 -185 216 -185 198 -177 c 1,8,-1
 239 -61 l 1,9,10
 252 -66 252 -66 261.5 -68.5 c 128,-1,11
 271 -71 271 -71 289 -71 c 0,12,13
 323 -71 323 -71 336.5 -43 c 128,-1,14
 350 -15 350 -15 359 22 c 2,15,-1
 424 293 l 2,16,17
 428 312 428 312 432.5 332 c 128,-1,18
 437 352 437 352 437 372 c 0,19,20
 437 399 437 399 422.5 420 c 128,-1,21
 408 441 408 441 369 441 c 0,22,23
 353 441 353 441 335.5 439 c 128,-1,24
 318 437 318 437 300 435 c 1,25,-1
 197 0 l 1,26,-1
 52 0 l 1,27,-1
 180 536 l 1,28,29
 221 547 221 547 271.5 556 c 128,-1,30
 322 565 322 565 389 565 c 0,31,32
 489 565 489 565 537 523.5 c 128,-1,33
 585 482 585 482 585 405 c 0,34,35
 585 385 585 385 582.5 361.5 c 128,-1,36
 580 338 580 338 574 312 c 2,37,-1
 504 22 l 2,0,1
EndSplineSet
Substitution2: "'case' Case-Sensitive Forms lookup 18 subtable" Eng
EndChar

StartChar: Scedilla
Encoding: 350 350 314
Width: 588
VWidth: 1177
Flags: W
LayerCount: 2
Fore
SplineSet
293 -29 m 1,0,1
 319 -42 319 -42 329.5 -60 c 128,-1,2
 340 -78 340 -78 340 -99 c 0,3,4
 340 -147 340 -147 299.5 -173.5 c 128,-1,5
 259 -200 259 -200 196 -200 c 0,6,7
 139 -200 139 -200 94 -177 c 1,8,-1
 125 -108 l 1,9,10
 138 -115 138 -115 155 -119.5 c 128,-1,11
 172 -124 172 -124 188 -124 c 0,12,13
 215 -124 215 -124 224 -113 c 128,-1,14
 233 -102 233 -102 233 -94 c 0,15,16
 233 -81 233 -81 226.5 -72.5 c 128,-1,17
 220 -64 220 -64 203 -58 c 2,18,-1
 181 -51 l 1,19,20
 188 -39 188 -39 194 -30 c 128,-1,21
 200 -21 200 -21 206 -12 c 1,22,23
 138 -5 138 -5 97.5 14.5 c 128,-1,24
 57 34 57 34 37 48 c 1,25,-1
 99 159 l 1,26,27
 111 152 111 152 129 142.5 c 128,-1,28
 147 133 147 133 170 125 c 128,-1,29
 193 117 193 117 220 111.5 c 128,-1,30
 247 106 247 106 278 106 c 0,31,32
 305 106 305 106 330 111.5 c 128,-1,33
 355 117 355 117 373 129 c 128,-1,34
 391 141 391 141 402 160 c 128,-1,35
 413 179 413 179 413 207 c 0,36,37
 413 228 413 228 404.5 245.5 c 128,-1,38
 396 263 396 263 380.5 277 c 128,-1,39
 365 291 365 291 344.5 302.5 c 128,-1,40
 324 314 324 314 300 326 c 0,41,42
 271 341 271 341 245.5 356.5 c 128,-1,43
 220 372 220 372 202 393.5 c 128,-1,44
 184 415 184 415 173.5 444 c 128,-1,45
 163 473 163 473 163 516 c 0,46,47
 163 620 163 620 233 683 c 128,-1,48
 303 746 303 746 432 746 c 0,49,50
 474 746 474 746 508 740 c 128,-1,51
 542 734 542 734 568 725.5 c 128,-1,52
 594 717 594 717 612 707.5 c 128,-1,53
 630 698 630 698 642 691 c 1,54,-1
 581 580 l 1,55,56
 554 599 554 599 512.5 611.5 c 128,-1,57
 471 624 471 624 413 624 c 0,58,59
 368 624 368 624 337 604 c 128,-1,60
 306 584 306 584 306 535 c 0,61,62
 306 495 306 495 332.5 474 c 128,-1,63
 359 453 359 453 397 437 c 0,64,65
 432 421 432 421 461.5 403 c 128,-1,66
 491 385 491 385 512.5 361.5 c 128,-1,67
 534 338 534 338 546 306 c 128,-1,68
 558 274 558 274 558 231 c 0,69,70
 558 120 558 120 491.5 57.5 c 128,-1,71
 425 -5 425 -5 303 -14 c 1,72,-1
 293 -29 l 1,0,1
EndSplineSet
EndChar

StartChar: scedilla
Encoding: 351 351 315
Width: 588
VWidth: 1177
Flags: W
LayerCount: 2
Fore
SplineSet
304 -29 m 1,0,1
 330 -42 330 -42 340.5 -60 c 128,-1,2
 351 -78 351 -78 351 -99 c 0,3,4
 351 -147 351 -147 310.5 -173.5 c 128,-1,5
 270 -200 270 -200 206 -200 c 0,6,7
 149 -200 149 -200 105 -177 c 1,8,-1
 135 -108 l 1,9,10
 148 -115 148 -115 165.5 -119.5 c 128,-1,11
 183 -124 183 -124 199 -124 c 0,12,13
 226 -124 226 -124 235 -113 c 128,-1,14
 244 -102 244 -102 244 -94 c 0,15,16
 244 -81 244 -81 237.5 -72.5 c 128,-1,17
 231 -64 231 -64 213 -58 c 2,18,-1
 192 -51 l 1,19,20
 199 -39 199 -39 205.5 -30 c 128,-1,21
 212 -21 212 -21 218 -12 c 1,22,23
 151 -5 151 -5 113 11 c 128,-1,24
 75 27 75 27 58 37 c 1,25,-1
 112 151 l 1,26,27
 136 138 136 138 177 122.5 c 128,-1,28
 218 107 218 107 276 107 c 0,29,30
 338 107 338 107 361.5 123.5 c 128,-1,31
 385 140 385 140 385 163 c 0,32,33
 385 174 385 174 381 182 c 128,-1,34
 377 190 377 190 367 197.5 c 128,-1,35
 357 205 357 205 339.5 212.5 c 128,-1,36
 322 220 322 220 294 231 c 0,37,38
 261 243 261 243 236.5 256 c 128,-1,39
 212 269 212 269 195.5 286 c 128,-1,40
 179 303 179 303 171 325 c 128,-1,41
 163 347 163 347 163 378 c 0,42,43
 163 464 163 464 223.5 516 c 128,-1,44
 284 568 284 568 405 568 c 0,45,46
 465 568 465 568 515 557.5 c 128,-1,47
 565 547 565 547 595 532 c 1,48,-1
 542 418 l 1,49,50
 515 431 515 431 480 439.5 c 128,-1,51
 445 448 445 448 392 448 c 0,52,53
 380 448 380 448 365.5 446 c 128,-1,54
 351 444 351 444 338 438 c 128,-1,55
 325 432 325 432 316 422 c 128,-1,56
 307 412 307 412 307 397 c 0,57,58
 307 386 307 386 310 378.5 c 128,-1,59
 313 371 313 371 322.5 363.5 c 128,-1,60
 332 356 332 356 349.5 347.5 c 128,-1,61
 367 339 367 339 397 329 c 0,62,63
 432 315 432 315 457.5 300.5 c 128,-1,64
 483 286 483 286 500 268.5 c 128,-1,65
 517 251 517 251 524.5 227.5 c 128,-1,66
 532 204 532 204 532 171 c 0,67,68
 532 139 532 139 520 108 c 128,-1,69
 508 77 508 77 481.5 51 c 128,-1,70
 455 25 455 25 413 8 c 128,-1,71
 371 -9 371 -9 313 -14 c 1,72,-1
 304 -29 l 1,0,1
EndSplineSet
Substitution2: "'case' Case-Sensitive Forms lookup 18 subtable" Scedilla
EndChar

StartChar: uni0162
Encoding: 354 354 316
Width: 588
VWidth: 1177
Flags: W
LayerCount: 2
Fore
SplineSet
305 -29 m 1,0,1
 331 -42 331 -42 341.5 -60 c 128,-1,2
 352 -78 352 -78 352 -99 c 0,3,4
 352 -147 352 -147 311.5 -173.5 c 128,-1,5
 271 -200 271 -200 207 -200 c 0,6,7
 150 -200 150 -200 106 -177 c 1,8,-1
 137 -108 l 1,9,10
 150 -115 150 -115 167 -119.5 c 128,-1,11
 184 -124 184 -124 200 -124 c 0,12,13
 227 -124 227 -124 236 -113 c 128,-1,14
 245 -102 245 -102 245 -94 c 0,15,16
 245 -81 245 -81 238.5 -72.5 c 128,-1,17
 232 -64 232 -64 214 -58 c 2,18,-1
 193 -51 l 1,19,-1
 227 0 l 1,20,-1
 198 0 l 1,21,-1
 344 609 l 1,22,-1
 152 609 l 1,23,-1
 180 729 l 1,24,-1
 710 729 l 1,25,-1
 682 609 l 1,26,-1
 489 609 l 1,27,-1
 343 0 l 1,28,-1
 325 0 l 1,29,-1
 305 -29 l 1,0,1
EndSplineSet
EndChar

StartChar: uni0163
Encoding: 355 355 317
Width: 588
VWidth: 1177
Flags: W
LayerCount: 2
Fore
SplineSet
379 -29 m 1,0,1
 405 -42 405 -42 415.5 -60 c 128,-1,2
 426 -78 426 -78 426 -99 c 0,3,4
 426 -147 426 -147 385.5 -173.5 c 128,-1,5
 345 -200 345 -200 282 -200 c 0,6,7
 225 -200 225 -200 180 -177 c 1,8,-1
 211 -108 l 1,9,10
 224 -115 224 -115 241 -119.5 c 128,-1,11
 258 -124 258 -124 274 -124 c 0,12,13
 301 -124 301 -124 310 -113 c 128,-1,14
 319 -102 319 -102 319 -94 c 0,15,16
 319 -81 319 -81 312.5 -72.5 c 128,-1,17
 306 -64 306 -64 289 -58 c 2,18,-1
 267 -51 l 1,19,20
 275 -38 275 -38 282 -28 c 128,-1,21
 289 -18 289 -18 296 -8 c 1,22,23
 230 3 230 3 197.5 42 c 128,-1,24
 165 81 165 81 165 146 c 0,25,26
 165 165 165 165 167.5 184.5 c 128,-1,27
 170 204 170 204 176 226 c 2,28,-1
 225 433 l 1,29,-1
 114 433 l 1,30,-1
 144 554 l 1,31,-1
 253 554 l 1,32,-1
 286 693 l 1,33,-1
 438 716 l 1,34,-1
 398 554 l 1,35,-1
 609 554 l 1,36,-1
 580 433 l 1,37,-1
 370 433 l 1,38,-1
 318 218 l 2,39,40
 312 189 312 189 312 172 c 0,41,42
 312 137 312 137 336 125 c 128,-1,43
 360 113 360 113 391 113 c 0,44,45
 423 113 423 113 456.5 120.5 c 128,-1,46
 490 128 490 128 522 141 c 1,47,-1
 521 20 l 1,48,49
 463 -5 463 -5 391 -11 c 1,50,-1
 379 -29 l 1,0,1
EndSplineSet
Substitution2: "'case' Case-Sensitive Forms lookup 18 subtable" uni0162
EndChar

StartChar: Tbar
Encoding: 358 358 320
Width: 588
VWidth: 1177
Flags: W
LayerCount: 2
Fore
SplineSet
710 729 m 1,0,-1
 682 609 l 1,1,-1
 489 609 l 1,2,-1
 437 397 l 1,3,-1
 567 397 l 1,4,-1
 538 280 l 1,5,-1
 410 280 l 1,6,-1
 343 0 l 1,7,-1
 198 0 l 1,8,-1
 265 280 l 1,9,-1
 140 280 l 1,10,-1
 168 397 l 1,11,-1
 292 397 l 1,12,-1
 344 609 l 1,13,-1
 152 609 l 1,14,-1
 180 729 l 1,15,-1
 710 729 l 1,0,-1
EndSplineSet
EndChar

StartChar: tbar
Encoding: 359 359 321
Width: 588
VWidth: 1177
Flags: W
LayerCount: 2
Fore
SplineSet
193 240 m 1,0,-1
 84 240 l 1,1,-1
 106 338 l 1,2,-1
 217 338 l 1,3,-1
 240 433 l 1,4,-1
 130 433 l 1,5,-1
 159 554 l 1,6,-1
 269 554 l 1,7,-1
 302 693 l 1,8,-1
 453 716 l 1,9,-1
 413 554 l 1,10,-1
 624 554 l 1,11,-1
 595 433 l 1,12,-1
 385 433 l 1,13,-1
 362 338 l 1,14,-1
 585 338 l 1,15,-1
 562 240 l 1,16,-1
 339 240 l 1,17,-1
 333 218 l 2,18,19
 327 189 327 189 327 172 c 0,20,21
 327 137 327 137 351.5 125 c 128,-1,22
 376 113 376 113 406 113 c 0,23,24
 438 113 438 113 471.5 120.5 c 128,-1,25
 505 128 505 128 537 141 c 1,26,-1
 536 20 l 1,27,28
 499 4 499 4 455 -4.5 c 128,-1,29
 411 -13 411 -13 367 -13 c 0,30,31
 273 -13 273 -13 226.5 27.5 c 128,-1,32
 180 68 180 68 180 146 c 0,33,34
 180 165 180 165 182.5 184.5 c 128,-1,35
 185 204 185 204 191 226 c 2,36,-1
 193 240 l 1,0,-1
EndSplineSet
Substitution2: "'case' Case-Sensitive Forms lookup 18 subtable" Tbar
EndChar

StartChar: Uring
Encoding: 366 366 328
Width: 588
VWidth: 1177
Flags: W
LayerCount: 2
Fore
SplineSet
279 -15 m 0,0,1
 175 -15 175 -15 127 34.5 c 128,-1,2
 79 84 79 84 79 172 c 0,3,4
 79 220 79 220 93 280 c 2,5,-1
 196 706 l 1,6,-1
 340 706 l 1,7,-1
 239 282 l 2,8,9
 233 255 233 255 228.5 230.5 c 128,-1,10
 224 206 224 206 224 186 c 0,11,12
 224 151 224 151 240.5 131 c 128,-1,13
 257 111 257 111 300 111 c 0,14,15
 326 111 326 111 345 118.5 c 128,-1,16
 364 126 364 126 378 144.5 c 128,-1,17
 392 163 392 163 403.5 193.5 c 128,-1,18
 415 224 415 224 425 270 c 2,19,-1
 530 706 l 1,20,-1
 675 706 l 1,21,-1
 568 259 l 2,22,23
 553 194 553 194 533.5 143.5 c 128,-1,24
 514 93 514 93 482 57.5 c 128,-1,25
 450 22 450 22 401 3.5 c 128,-1,26
 352 -15 352 -15 279 -15 c 0,0,1
572 852 m 0,27,28
 572 793 572 793 535 762 c 128,-1,29
 498 731 498 731 448 731 c 0,30,31
 424 731 424 731 401.5 739 c 128,-1,32
 379 747 379 747 362 762 c 128,-1,33
 345 777 345 777 335 799.5 c 128,-1,34
 325 822 325 822 325 852 c 256,35,36
 325 881 325 881 335 904 c 128,-1,37
 345 927 345 927 362 942.5 c 128,-1,38
 379 958 379 958 401.5 965.5 c 128,-1,39
 424 973 424 973 448 973 c 0,40,41
 499 973 499 973 535.5 942.5 c 128,-1,42
 572 912 572 912 572 852 c 0,27,28
496 852 m 0,43,44
 496 877 496 877 482 889 c 128,-1,45
 468 901 468 901 448 901 c 0,46,47
 430 901 430 901 415 888.5 c 128,-1,48
 400 876 400 876 400 852 c 0,49,50
 400 828 400 828 415 815 c 128,-1,51
 430 802 430 802 448 802 c 0,52,53
 468 802 468 802 482 815 c 128,-1,54
 496 828 496 828 496 852 c 0,43,44
EndSplineSet
EndChar

